<svg width="225" height="225" viewBox="0 0 225 225" fill="none" xmlns="http://www.w3.org/2000/svg">
<path d="M163.875 61.1251C166.103 58.4285 169.295 56.7079 172.773 56.3297C176.25 55.9515 179.738 56.9455 182.493 59.1001C183.847 60.1481 184.976 61.4568 185.815 62.9487C186.654 64.4407 187.185 66.0856 187.377 67.7864C187.57 69.4872 187.419 71.2092 186.934 72.8508C186.45 74.4924 185.641 76.0202 184.556 77.3438L114.056 163.969C112.876 165.4 111.412 166.571 109.756 167.407C108.101 168.244 106.29 168.728 104.437 168.828C102.585 168.928 100.732 168.643 98.9959 167.991C97.2595 167.339 95.6774 166.333 94.3497 165.038L41.4747 113.1L40.5559 112.125C36.3184 107.025 36.6184 99.5063 41.4747 94.7438C46.3309 89.9813 53.9997 89.6813 59.1934 93.8438L60.1872 94.7438L102.75 136.369L164.062 61.1813L163.875 61.1251Z" fill="#FEFFFF"/>
</svg>
