<svg width="196" height="196" viewBox="0 0 196 196" fill="none" xmlns="http://www.w3.org/2000/svg">
<mask id="path-1-inside-1_1549_7112" fill="white">
<path d="M103.798 141.202C103.397 140.832 102.959 140.504 102.492 140.222C102.071 139.904 101.603 139.655 101.103 139.487C100.617 139.238 100.093 139.072 99.5517 138.997C97.9871 138.666 96.3581 138.837 94.8967 139.487C93.8832 139.854 92.9628 140.439 92.2007 141.201C91.4386 141.963 90.8534 142.883 90.4867 143.897C90.0295 144.866 89.8057 145.929 89.8333 147C89.8203 148.062 90.0145 149.116 90.405 150.103C90.882 151.077 91.4861 151.984 92.2017 152.798C92.9648 153.555 93.8698 154.154 94.8648 154.561C95.8598 154.967 96.9252 155.173 98 155.167C99.0713 155.194 100.134 154.971 101.103 154.513C102.089 154.093 103 153.514 103.798 152.798C104.555 152.035 105.154 151.13 105.56 150.135C105.967 149.14 106.173 148.075 106.167 147C106.154 145.933 105.932 144.879 105.513 143.897C105.125 142.894 104.542 141.978 103.798 141.202ZM69.825 107.555C69.4048 107.237 68.936 106.989 68.4367 106.82C67.961 106.514 67.436 106.293 66.885 106.167C65.8373 105.923 64.7477 105.923 63.7 106.167L62.23 106.657L60.76 107.392L59.535 108.372C58.004 109.978 57.1551 112.115 57.1667 114.333C57.1605 115.408 57.3665 116.474 57.7729 117.469C58.1793 118.464 58.7781 119.369 59.535 120.132C60.3335 120.847 61.2439 121.426 62.23 121.847C63.4672 122.355 64.8104 122.552 66.1414 122.419C67.4724 122.287 68.7506 121.83 69.8635 121.088C70.9764 120.346 71.8901 119.342 72.5242 118.164C73.1582 116.986 73.4933 115.671 73.5 114.333C73.4699 112.171 72.624 110.1 71.1317 108.535L69.825 107.555ZM71.1317 141.202C70.355 140.458 69.4391 139.875 68.4367 139.487C66.9583 138.801 65.3087 138.574 63.7 138.833L62.23 139.323C61.711 139.506 61.2171 139.753 60.76 140.058C60.3362 140.365 59.9274 140.692 59.535 141.038C58.7915 141.815 58.2087 142.731 57.82 143.733C57.3879 144.711 57.1648 145.768 57.1648 146.837C57.1648 147.906 57.3879 148.963 57.82 149.94C58.2404 150.926 58.8198 151.837 59.535 152.635C60.2845 153.422 61.1834 154.051 62.179 154.485C63.1747 154.92 64.247 155.152 65.3333 155.167C66.4046 155.194 67.4675 154.971 68.4367 154.513C69.4228 154.093 70.3332 153.514 71.1317 152.798C71.8469 152 72.4262 151.089 72.8467 150.103C73.2787 149.126 73.5019 148.069 73.5019 147C73.5019 145.931 73.2787 144.874 72.8467 143.897C72.458 142.894 71.8752 141.978 71.1317 141.202ZM94.8967 106.82C93.8942 107.209 92.9783 107.792 92.2017 108.535C90.7093 110.1 89.8634 112.171 89.8333 114.333C89.84 115.671 90.1751 116.986 90.8092 118.164C91.4433 119.342 92.3569 120.346 93.4698 121.088C94.5828 121.83 95.8609 122.287 97.1919 122.419C98.523 122.552 99.8661 122.355 101.103 121.847C102.089 121.426 103 120.847 103.798 120.132C104.555 119.369 105.154 118.464 105.56 117.469C105.967 116.474 106.173 115.408 106.167 114.333C106.137 112.171 105.291 110.1 103.798 108.535C102.65 107.402 101.192 106.634 99.6073 106.329C98.0231 106.024 96.3839 106.195 94.8967 106.82ZM136.465 141.202C135.667 140.487 134.756 139.907 133.77 139.487C132.283 138.861 130.644 138.69 129.059 138.996C127.475 139.301 126.017 140.069 124.868 141.202C124.125 141.978 123.542 142.894 123.153 143.897C122.721 144.874 122.498 145.931 122.498 147C122.498 148.069 122.721 149.126 123.153 150.103C123.574 151.089 124.153 152 124.868 152.798C125.631 153.555 126.536 154.154 127.531 154.561C128.526 154.967 129.592 155.173 130.667 155.167C131.738 155.194 132.801 154.971 133.77 154.513C134.756 154.093 135.667 153.514 136.465 152.798C137.598 151.65 138.366 150.192 138.671 148.607C138.976 147.023 138.805 145.384 138.18 143.897C137.791 142.894 137.208 141.978 136.465 141.202ZM130.667 40.8334H65.3333C63.1674 40.8334 61.0902 41.6938 59.5586 43.2254C58.0271 44.7569 57.1667 46.8341 57.1667 49.0001V81.6667C57.1667 83.8327 58.0271 85.9099 59.5586 87.4415C61.0902 88.973 63.1674 89.8334 65.3333 89.8334H130.667C132.833 89.8334 134.91 88.973 136.441 87.4415C137.973 85.9099 138.833 83.8327 138.833 81.6667V49.0001C138.833 46.8341 137.973 44.7569 136.441 43.2254C134.91 41.6938 132.833 40.8334 130.667 40.8334ZM122.5 73.5001H73.5V57.1667H122.5V73.5001ZM147 8.16675H49C42.5022 8.16675 36.2705 10.748 31.6759 15.3426C27.0812 19.9373 24.5 26.1689 24.5 32.6667V163.333C24.5 169.831 27.0812 176.063 31.6759 180.658C36.2705 185.252 42.5022 187.833 49 187.833H147C153.498 187.833 159.729 185.252 164.324 180.658C168.919 176.063 171.5 169.831 171.5 163.333V32.6667C171.5 26.1689 168.919 19.9373 164.324 15.3426C159.729 10.748 153.498 8.16675 147 8.16675ZM155.167 163.333C155.167 165.499 154.306 167.577 152.775 169.108C151.243 170.64 149.166 171.5 147 171.5H49C46.8341 171.5 44.7568 170.64 43.2253 169.108C41.6938 167.577 40.8333 165.499 40.8333 163.333V32.6667C40.8333 30.5008 41.6938 28.4236 43.2253 26.892C44.7568 25.3605 46.8341 24.5001 49 24.5001H147C149.166 24.5001 151.243 25.3605 152.775 26.892C154.306 28.4236 155.167 30.5008 155.167 32.6667V163.333ZM135.158 107.555C134.738 107.237 134.269 106.989 133.77 106.82C133.284 106.571 132.759 106.406 132.218 106.33C131.171 106.086 130.081 106.086 129.033 106.33L127.563 106.82L126.093 107.555L124.868 108.535C123.376 110.1 122.53 112.171 122.5 114.333C122.507 115.671 122.842 116.986 123.476 118.164C124.11 119.342 125.024 120.346 126.137 121.088C127.249 121.83 128.528 122.287 129.859 122.419C131.19 122.552 132.533 122.355 133.77 121.847C134.756 121.426 135.667 120.847 136.465 120.132C137.222 119.369 137.821 118.464 138.227 117.469C138.634 116.474 138.84 115.408 138.833 114.333C138.803 112.171 137.957 110.1 136.465 108.535L135.158 107.555Z"/>
</mask>
<path d="M103.798 141.202C103.397 140.832 102.959 140.504 102.492 140.222C102.071 139.904 101.603 139.655 101.103 139.487C100.617 139.238 100.093 139.072 99.5517 138.997C97.9871 138.666 96.3581 138.837 94.8967 139.487C93.8832 139.854 92.9628 140.439 92.2007 141.201C91.4386 141.963 90.8534 142.883 90.4867 143.897C90.0295 144.866 89.8057 145.929 89.8333 147C89.8203 148.062 90.0145 149.116 90.405 150.103C90.882 151.077 91.4861 151.984 92.2017 152.798C92.9648 153.555 93.8698 154.154 94.8648 154.561C95.8598 154.967 96.9252 155.173 98 155.167C99.0713 155.194 100.134 154.971 101.103 154.513C102.089 154.093 103 153.514 103.798 152.798C104.555 152.035 105.154 151.13 105.56 150.135C105.967 149.14 106.173 148.075 106.167 147C106.154 145.933 105.932 144.879 105.513 143.897C105.125 142.894 104.542 141.978 103.798 141.202ZM69.825 107.555C69.4048 107.237 68.936 106.989 68.4367 106.82C67.961 106.514 67.436 106.293 66.885 106.167C65.8373 105.923 64.7477 105.923 63.7 106.167L62.23 106.657L60.76 107.392L59.535 108.372C58.004 109.978 57.1551 112.115 57.1667 114.333C57.1605 115.408 57.3665 116.474 57.7729 117.469C58.1793 118.464 58.7781 119.369 59.535 120.132C60.3335 120.847 61.2439 121.426 62.23 121.847C63.4672 122.355 64.8104 122.552 66.1414 122.419C67.4724 122.287 68.7506 121.83 69.8635 121.088C70.9764 120.346 71.8901 119.342 72.5242 118.164C73.1582 116.986 73.4933 115.671 73.5 114.333C73.4699 112.171 72.624 110.1 71.1317 108.535L69.825 107.555ZM71.1317 141.202C70.355 140.458 69.4391 139.875 68.4367 139.487C66.9583 138.801 65.3087 138.574 63.7 138.833L62.23 139.323C61.711 139.506 61.2171 139.753 60.76 140.058C60.3362 140.365 59.9274 140.692 59.535 141.038C58.7915 141.815 58.2087 142.731 57.82 143.733C57.3879 144.711 57.1648 145.768 57.1648 146.837C57.1648 147.906 57.3879 148.963 57.82 149.94C58.2404 150.926 58.8198 151.837 59.535 152.635C60.2845 153.422 61.1834 154.051 62.179 154.485C63.1747 154.92 64.247 155.152 65.3333 155.167C66.4046 155.194 67.4675 154.971 68.4367 154.513C69.4228 154.093 70.3332 153.514 71.1317 152.798C71.8469 152 72.4262 151.089 72.8467 150.103C73.2787 149.126 73.5019 148.069 73.5019 147C73.5019 145.931 73.2787 144.874 72.8467 143.897C72.458 142.894 71.8752 141.978 71.1317 141.202ZM94.8967 106.82C93.8942 107.209 92.9783 107.792 92.2017 108.535C90.7093 110.1 89.8634 112.171 89.8333 114.333C89.84 115.671 90.1751 116.986 90.8092 118.164C91.4433 119.342 92.3569 120.346 93.4698 121.088C94.5828 121.83 95.8609 122.287 97.1919 122.419C98.523 122.552 99.8661 122.355 101.103 121.847C102.089 121.426 103 120.847 103.798 120.132C104.555 119.369 105.154 118.464 105.56 117.469C105.967 116.474 106.173 115.408 106.167 114.333C106.137 112.171 105.291 110.1 103.798 108.535C102.65 107.402 101.192 106.634 99.6073 106.329C98.0231 106.024 96.3839 106.195 94.8967 106.82ZM136.465 141.202C135.667 140.487 134.756 139.907 133.77 139.487C132.283 138.861 130.644 138.69 129.059 138.996C127.475 139.301 126.017 140.069 124.868 141.202C124.125 141.978 123.542 142.894 123.153 143.897C122.721 144.874 122.498 145.931 122.498 147C122.498 148.069 122.721 149.126 123.153 150.103C123.574 151.089 124.153 152 124.868 152.798C125.631 153.555 126.536 154.154 127.531 154.561C128.526 154.967 129.592 155.173 130.667 155.167C131.738 155.194 132.801 154.971 133.77 154.513C134.756 154.093 135.667 153.514 136.465 152.798C137.598 151.65 138.366 150.192 138.671 148.607C138.976 147.023 138.805 145.384 138.18 143.897C137.791 142.894 137.208 141.978 136.465 141.202ZM130.667 40.8334H65.3333C63.1674 40.8334 61.0902 41.6938 59.5586 43.2254C58.0271 44.7569 57.1667 46.8341 57.1667 49.0001V81.6667C57.1667 83.8327 58.0271 85.9099 59.5586 87.4415C61.0902 88.973 63.1674 89.8334 65.3333 89.8334H130.667C132.833 89.8334 134.91 88.973 136.441 87.4415C137.973 85.9099 138.833 83.8327 138.833 81.6667V49.0001C138.833 46.8341 137.973 44.7569 136.441 43.2254C134.91 41.6938 132.833 40.8334 130.667 40.8334ZM122.5 73.5001H73.5V57.1667H122.5V73.5001ZM147 8.16675H49C42.5022 8.16675 36.2705 10.748 31.6759 15.3426C27.0812 19.9373 24.5 26.1689 24.5 32.6667V163.333C24.5 169.831 27.0812 176.063 31.6759 180.658C36.2705 185.252 42.5022 187.833 49 187.833H147C153.498 187.833 159.729 185.252 164.324 180.658C168.919 176.063 171.5 169.831 171.5 163.333V32.6667C171.5 26.1689 168.919 19.9373 164.324 15.3426C159.729 10.748 153.498 8.16675 147 8.16675ZM155.167 163.333C155.167 165.499 154.306 167.577 152.775 169.108C151.243 170.64 149.166 171.5 147 171.5H49C46.8341 171.5 44.7568 170.64 43.2253 169.108C41.6938 167.577 40.8333 165.499 40.8333 163.333V32.6667C40.8333 30.5008 41.6938 28.4236 43.2253 26.892C44.7568 25.3605 46.8341 24.5001 49 24.5001H147C149.166 24.5001 151.243 25.3605 152.775 26.892C154.306 28.4236 155.167 30.5008 155.167 32.6667V163.333ZM135.158 107.555C134.738 107.237 134.269 106.989 133.77 106.82C133.284 106.571 132.759 106.406 132.218 106.33C131.171 106.086 130.081 106.086 129.033 106.33L127.563 106.82L126.093 107.555L124.868 108.535C123.376 110.1 122.53 112.171 122.5 114.333C122.507 115.671 122.842 116.986 123.476 118.164C124.11 119.342 125.024 120.346 126.137 121.088C127.249 121.83 128.528 122.287 129.859 122.419C131.19 122.552 132.533 122.355 133.77 121.847C134.756 121.426 135.667 120.847 136.465 120.132C137.222 119.369 137.821 118.464 138.227 117.469C138.634 116.474 138.84 115.408 138.833 114.333C138.803 112.171 137.957 110.1 136.465 108.535L135.158 107.555Z" fill="#032327" stroke="#FEFFFF" stroke-width="4" mask="url(#path-1-inside-1_1549_7112)"/>
</svg>
