<svg width="196" height="196" viewBox="0 0 196 196" fill="none" xmlns="http://www.w3.org/2000/svg">
<path d="M57.168 171.5L89.8346 73.5M106.168 73.5L118.255 109.752M126.005 133.002L138.835 171.5M98.0013 40.8333C102.333 40.8333 106.488 42.5542 109.551 45.6173C112.614 48.6804 114.335 52.8348 114.335 57.1667C114.335 61.4985 112.614 65.653 109.551 68.7161C106.488 71.7792 102.333 73.5 98.0013 73.5C93.6694 73.5 89.515 71.7792 86.4519 68.7161C83.3888 65.653 81.668 61.4985 81.668 57.1667C81.668 52.8348 83.3888 48.6804 86.4519 45.6173C89.515 42.5542 93.6694 40.8333 98.0013 40.8333ZM98.0013 40.8333V24.5M32.668 98C45.1303 122.133 70.1366 138.833 98.0013 138.833C125.85 138.833 150.864 122.108 163.335 98" stroke="#032327" stroke-width="12" stroke-linecap="round" stroke-linejoin="round"/>
</svg>
