<svg width="82" height="82" viewBox="0 0 82 82" fill="none" xmlns="http://www.w3.org/2000/svg">
<path d="M40.9993 23.9166C48.2486 23.9166 55.2009 26.7963 60.3269 31.9223C65.4529 37.0483 68.3327 44.0007 68.3327 51.2499C68.3327 58.4992 65.4529 65.4515 60.3269 70.5775C55.2009 75.7035 48.2486 78.5833 40.9993 78.5833C33.7501 78.5833 26.7978 75.7035 21.6718 70.5775C16.5458 65.4515 13.666 58.4992 13.666 51.2499C13.666 44.0007 16.5458 37.0483 21.6718 31.9223C26.7978 26.7963 33.7501 23.9166 40.9993 23.9166ZM40.9993 35.8749L36.4825 45.0316L26.376 46.5008L33.6877 53.6245L31.9623 63.69L40.9993 58.9374L50.0364 63.6866L48.311 53.6245L55.6227 46.4973L45.5162 45.0282L40.9993 35.8749ZM44.416 6.82983L61.4994 6.83325V17.0833L56.8424 20.9714C52.9789 18.9423 48.7592 17.68 44.416 17.2541V6.82983ZM37.5827 6.82983V17.2507C33.2407 17.677 29.0222 18.9393 25.1597 20.968L20.4993 17.0833V6.83325L37.5827 6.82983Z" fill="#F3BB0C"/>
</svg>
