<svg width="32" height="32" viewBox="0 0 32 32" fill="none" xmlns="http://www.w3.org/2000/svg">
<path d="M4.0001 12.99L14.4601 17.295C14.9501 17.495 15.4701 17.6 16.0001 17.6C16.5301 17.6 17.0501 17.495 17.5401 17.295L29.6601 12.305C30.1101 12.12 30.4001 11.685 30.4001 11.2C30.4001 10.715 30.1101 10.28 29.6601 10.095L17.5401 5.105C17.0501 4.905 16.5301 4.8 16.0001 4.8C15.4701 4.8 14.9501 4.905 14.4601 5.105L2.3401 10.095C1.8901 10.28 1.6001 10.715 1.6001 11.2V26C1.6001 26.665 2.1351 27.2 2.8001 27.2C3.4651 27.2 4.0001 26.665 4.0001 26V12.99ZM6.4001 16.575V22.4C6.4001 25.05 10.7001 27.2 16.0001 27.2C21.3001 27.2 25.6001 25.05 25.6001 22.4V16.57L18.4551 19.515C17.6751 19.835 16.8451 20 16.0001 20C15.1551 20 14.3251 19.835 13.5451 19.515L6.4001 16.57V16.575Z" fill="#032327"/>
</svg>
