<svg width="32" height="32" viewBox="0 0 32 32" fill="none" xmlns="http://www.w3.org/2000/svg">
<mask id="mask0_1293_4837" style="mask-type:luminance" maskUnits="userSpaceOnUse" x="1" y="1" width="30" height="28">
<path d="M21.3334 12H10.6667C6.24875 12 2.66675 15.582 2.66675 20C2.66675 24.418 6.24875 28 10.6667 28H21.3334C25.7514 28 29.3334 24.418 29.3334 20C29.3334 15.582 25.7514 12 21.3334 12Z" fill="white" stroke="white" stroke-width="2" stroke-linejoin="round"/>
<path d="M10.6667 17.3333V22.6666M8 20H13.3333" stroke="black" stroke-width="2" stroke-linecap="round" stroke-linejoin="round"/>
<path d="M16 10.6667V6.47599H21.3333V2.66666" stroke="white" stroke-width="2" stroke-linecap="round" stroke-linejoin="round"/>
<path d="M21.3334 22.6666C22.0407 22.6666 22.7189 22.3857 23.219 21.8856C23.7191 21.3855 24.0001 20.7072 24.0001 20C24.0001 19.2927 23.7191 18.6145 23.219 18.1144C22.7189 17.6143 22.0407 17.3333 21.3334 17.3333C20.6262 17.3333 19.9479 17.6143 19.4478 18.1144C18.9477 18.6145 18.6667 19.2927 18.6667 20C18.6667 20.7072 18.9477 21.3855 19.4478 21.8856C19.9479 22.3857 20.6262 22.6666 21.3334 22.6666Z" fill="black" stroke="black" stroke-width="2" stroke-linejoin="round"/>
</mask>
<g mask="url(#mask0_1293_4837)">
<path d="M0 0H32V32H0V0Z" fill="#032327"/>
</g>
</svg>
