<svg width="32" height="32" viewBox="0 0 32 32" fill="none" xmlns="http://www.w3.org/2000/svg">
<path d="M5 25.1429V12.2857C5 11.8333 5.09762 11.4048 5.29287 11C5.48812 10.5952 5.75717 10.2619 6.1 10L14.35 3.57143C14.8312 3.19048 15.3812 3 16 3C16.6187 3 17.1687 3.19048 17.65 3.57143L25.9 10C26.2437 10.2619 26.5132 10.5952 26.7085 11C26.9037 11.4048 27.0009 11.8333 27 12.2857V25.1429C27 25.9286 26.7305 26.6014 26.1915 27.1614C25.6525 27.7214 25.0053 28.0009 24.25 28H20.125C19.7354 28 19.4091 27.8629 19.146 27.5886C18.8829 27.3143 18.7509 26.9752 18.75 26.5714V19.4286C18.75 19.0238 18.618 18.6848 18.354 18.4114C18.09 18.1381 17.7637 18.0009 17.375 18H14.625C14.2354 18 13.9091 18.1371 13.646 18.4114C13.3829 18.6857 13.2509 19.0248 13.25 19.4286V26.5714C13.25 26.9762 13.118 27.3157 12.854 27.59C12.59 27.8643 12.2637 28.0009 11.875 28H7.75C6.99375 28 6.34658 27.7205 5.8085 27.1614C5.27042 26.6024 5.00092 25.9295 5 25.1429Z" fill="#032327"/>
</svg>
