<svg width="32" height="32" viewBox="0 0 32 32" fill="none" xmlns="http://www.w3.org/2000/svg">
<path d="M24.0001 2.66667C22.8001 2.66667 21.3334 4.00001 21.3334 5.33334H10.6667C10.6667 4.00001 9.20008 2.66667 8.00008 2.66667H2.66675V14.6667C2.66675 16 4.00008 17.3333 5.33341 17.3333H8.26675C8.80008 20 10.5334 22.2667 14.6667 22.6667V25.44C10.6667 26.0533 10.6667 29.3333 10.6667 29.3333H21.3334C21.3334 29.3333 21.3334 26.0533 17.3334 25.44V22.6667C21.4667 22.2667 23.2001 20 23.7334 17.3333H26.6667C28.0001 17.3333 29.3334 16 29.3334 14.6667V2.66667H24.0001ZM8.00008 14.6667H5.33341V5.33334H8.00008V14.6667ZM26.6667 14.6667H24.0001V5.33334H26.6667V14.6667Z" fill="#032327"/>
</svg>
