<svg width="32" height="32" viewBox="0 0 32 32" fill="none" xmlns="http://www.w3.org/2000/svg">
<path d="M16.0001 2.66666C17.1947 2.66666 18.3521 2.82399 19.4534 3.11866L16.6187 5.95199C16.4037 6.1679 16.214 6.40768 16.0534 6.66666H16.0001C14.1541 6.66666 12.3496 7.21405 10.8148 8.23961C9.2799 9.26517 8.08362 10.7228 7.37721 12.4283C6.67079 14.1337 6.48596 16.0103 6.84609 17.8208C7.20621 19.6313 8.09513 21.2944 9.40042 22.5997C10.7057 23.9049 12.3687 24.7939 14.1792 25.154C15.9897 25.5141 17.8663 25.3293 19.5718 24.6229C21.2772 23.9164 22.7349 22.7202 23.7605 21.1853C24.786 19.6505 25.3334 17.8459 25.3334 16V15.9467C25.5912 15.7867 25.829 15.5978 26.0467 15.38L28.8814 12.5467C29.1761 13.648 29.3334 14.8053 29.3334 16C29.3334 23.364 23.3641 29.3333 16.0001 29.3333C8.63608 29.3333 2.66675 23.364 2.66675 16C2.66675 8.63599 8.63608 2.66666 16.0001 2.66666ZM15.4481 9.35599C15.4481 10.4907 15.3921 11.6413 15.4534 12.7747L14.7334 13.4947C14.4857 13.7423 14.2893 14.0364 14.1552 14.36C14.0212 14.6836 13.9522 15.0304 13.9522 15.3807C13.9522 15.7309 14.0212 16.0778 14.1552 16.4014C14.2893 16.725 14.4857 17.019 14.7334 17.2667C14.9811 17.5143 15.2751 17.7108 15.5987 17.8448C15.9223 17.9789 16.2692 18.0479 16.6194 18.0479C16.9697 18.0479 17.3165 17.9789 17.6401 17.8448C17.9637 17.7108 18.2577 17.5143 18.5054 17.2667L19.2254 16.5467C20.3587 16.608 21.5081 16.552 22.6441 16.552C22.5388 17.8191 22.0733 19.0297 21.3025 20.0409C20.5318 21.0522 19.4879 21.8219 18.294 22.2594C17.1002 22.6969 15.8061 22.7838 14.5645 22.5099C13.3228 22.2361 12.1854 21.6129 11.2863 20.7138C10.3872 19.8147 9.76398 18.6773 9.49013 17.4356C9.21627 16.194 9.3032 14.8999 9.74067 13.706C10.1781 12.5122 10.9479 11.4683 11.9591 10.6976C12.9704 9.9268 14.181 9.46132 15.4481 9.35599ZM24.6721 2.83599C24.9155 2.9369 25.1235 3.10764 25.2699 3.32667C25.4163 3.5457 25.4946 3.8032 25.4947 4.06666V6.50666H27.9334C28.1971 6.50671 28.4548 6.58494 28.674 6.73145C28.8932 6.87797 29.0641 7.08618 29.165 7.32978C29.2659 7.57338 29.2923 7.84143 29.2409 8.10003C29.1894 8.35864 29.0625 8.59619 28.8761 8.78266L24.1601 13.4933C23.9101 13.7434 23.571 13.8839 23.2174 13.884H20.0001L17.5627 16.3227C17.3126 16.5728 16.9732 16.7134 16.6194 16.7134C16.2656 16.7134 15.9263 16.5728 15.6761 16.3227C15.4259 16.0725 15.2853 15.7331 15.2853 15.3793C15.2853 15.0255 15.4259 14.6862 15.6761 14.436L18.1147 12V8.78132C18.1146 8.60602 18.149 8.4324 18.2161 8.27042C18.2831 8.10844 18.3814 7.96126 18.5054 7.83732L23.2187 3.12399C23.4052 2.93741 23.6428 2.81033 23.9015 2.75883C24.1602 2.70733 24.4284 2.73372 24.6721 2.83466" fill="#032327"/>
</svg>
