<svg width="24" height="24" viewBox="0 0 24 24" fill="none" xmlns="http://www.w3.org/2000/svg">
<path d="M20.2642 7.00754C20.1027 6.982 19.9394 7.02167 19.7942 7.12167L16 9.71808V14.2832L19.7942 16.8796C19.9211 16.9665 20.062 17.0075 20.2037 16.9989C20.3455 16.9902 20.4832 16.9322 20.604 16.8302C20.7247 16.7283 20.8245 16.5858 20.8938 16.4163C20.9631 16.2468 20.9996 16.0559 21 15.8616V8.13969C20.9998 7.86035 20.9247 7.59082 20.7891 7.38217C20.6535 7.17351 20.4667 7.04022 20.2642 7.00754Z" fill="#032327"/>
<path d="M5 5C3.355 5 2 6.355 2 8V16C2 17.645 3.355 19 5 19H13C14.645 19 16 17.645 16 16V8C16 6.355 14.645 5 13 5H5Z" fill="#032327"/>
</svg>
