<svg width="24" height="24" viewBox="0 0 24 24" fill="none" xmlns="http://www.w3.org/2000/svg">
<mask id="mask0_1293_4738" style="mask-type:luminance" maskUnits="userSpaceOnUse" x="1" y="1" width="22" height="21">
<path d="M16 9H8C4.6865 9 2 11.6865 2 15C2 18.3135 4.6865 21 8 21H16C19.3135 21 22 18.3135 22 15C22 11.6865 19.3135 9 16 9Z" fill="white" stroke="white" stroke-width="2" stroke-linejoin="round"/>
<path d="M8 13V17M6 15H10" stroke="black" stroke-width="2" stroke-linecap="round" stroke-linejoin="round"/>
<path d="M12 8V4.857H16V2" stroke="white" stroke-width="2" stroke-linecap="round" stroke-linejoin="round"/>
<path d="M16 17C16.5304 17 17.0391 16.7893 17.4142 16.4142C17.7893 16.0391 18 15.5304 18 15C18 14.4696 17.7893 13.9609 17.4142 13.5858C17.0391 13.2107 16.5304 13 16 13C15.4696 13 14.9609 13.2107 14.5858 13.5858C14.2107 13.9609 14 14.4696 14 15C14 15.5304 14.2107 16.0391 14.5858 16.4142C14.9609 16.7893 15.4696 17 16 17Z" fill="black" stroke="black" stroke-width="2" stroke-linejoin="round"/>
</mask>
<g mask="url(#mask0_1293_4738)">
<path d="M0 0H24V24H0V0Z" fill="#032327"/>
</g>
</svg>
