<svg width="13" height="10" viewBox="0 0 13 10" fill="none" xmlns="http://www.w3.org/2000/svg">
<path d="M12.1768 1.33852C12.0691 1.3215 11.9602 1.34794 11.8634 1.41461L9.33398 3.14555V6.18897L11.8634 7.91992C11.948 7.97781 12.042 8.00517 12.1365 7.99941C12.231 7.99365 12.3228 7.95495 12.4033 7.88699C12.4838 7.81903 12.5503 7.72404 12.5965 7.61104C12.6427 7.49804 12.6671 7.37075 12.6673 7.24124V2.09329C12.6672 1.90706 12.6171 1.72738 12.5267 1.58827C12.4363 1.44917 12.3118 1.36031 12.1768 1.33852Z" fill="#FEFFFF" fill-opacity="0.5"/>
<path d="M2 0C0.903333 0 0 0.903333 0 2V7.33333C0 8.43 0.903333 9.33333 2 9.33333H7.33333C8.43 9.33333 9.33333 8.43 9.33333 7.33333V2C9.33333 0.903333 8.43 0 7.33333 0H2Z" fill="#FEFFFF" fill-opacity="0.5"/>
</svg>
