<svg width="24" height="24" viewBox="0 0 24 24" fill="none" xmlns="http://www.w3.org/2000/svg">
<path d="M21.5 5.13415C21.6347 5.21191 21.7494 5.32001 21.8349 5.44986C21.9205 5.57971 21.9746 5.72772 21.993 5.88215L22 6.00015V19.0002C22 19.1757 21.9538 19.3481 21.866 19.5001C21.7782 19.6522 21.652 19.7784 21.5 19.8662C21.348 19.9539 21.1755 20.0001 21 20.0001C20.8245 20.0001 20.652 19.9539 20.5 19.8662C19.3669 19.2119 18.0907 18.8455 16.7831 18.7991C15.4756 18.7528 14.1766 19.0278 13 19.6002V4.42615C14.3814 3.91016 15.8598 3.70606 17.3293 3.82846C18.7988 3.95086 20.223 4.39674 21.5 5.13415ZM11 4.42715L11.001 19.6012C9.8708 19.051 8.62686 18.7748 7.37002 18.7952C6.11318 18.8155 4.87881 19.1317 3.767 19.7182L3.44 19.8982L3.337 19.9422L3.288 19.9582L3.178 19.9842L3.117 19.9942L3 20.0002H2.958L2.848 19.9882L2.771 19.9742L2.663 19.9422L2.537 19.8862L2.442 19.8302L2.353 19.7632L2.293 19.7072L2.22 19.6252L2.156 19.5362L2.134 19.5002L2.102 19.4402L2.058 19.3372L2.042 19.2882L2.016 19.1782L2.006 19.1172L2.002 19.0682L2 6.00015C2 5.82462 2.04621 5.65218 2.13398 5.50017C2.22175 5.34815 2.34798 5.22192 2.5 5.13415C3.77705 4.3969 5.20134 3.9512 6.67084 3.82897C8.14035 3.70674 9.6187 3.91101 11 4.42715Z" fill="#FEFFFF"/>
</svg>
