<svg width="22" height="27" viewBox="0 0 22 27" fill="none" xmlns="http://www.w3.org/2000/svg">
<path fill-rule="evenodd" clip-rule="evenodd" d="M2.66667 0C1.95942 0 1.28115 0.280951 0.781048 0.781048C0.280951 1.28115 0 1.95942 0 2.66667V22.6667C0 23.7275 0.421427 24.7449 1.17157 25.4951C1.92172 26.2452 2.93913 26.6667 4 26.6667H20C20.3536 26.6667 20.6928 26.5262 20.9428 26.2761C21.1929 26.0261 21.3333 25.687 21.3333 25.3333C21.3333 24.9797 21.1929 24.6406 20.9428 24.3905C20.6928 24.1405 20.3536 24 20 24H17.3333V21.3333H20C20.3536 21.3333 20.6928 21.1929 20.9428 20.9428C21.1929 20.6928 21.3333 20.3536 21.3333 20V2.66667C21.3333 1.95942 21.0524 1.28115 20.5523 0.781048C20.0522 0.280951 19.3739 0 18.6667 0H8V21.3333H14.6667V24H4C3.64638 24 3.30724 23.8595 3.05719 23.6095C2.80714 23.3594 2.66667 23.0203 2.66667 22.6667C2.66667 22.313 2.80714 21.9739 3.05719 21.7239C3.30724 21.4738 3.64638 21.3333 4 21.3333H5.33333V0H2.66667Z" fill="#032327"/>
</svg>
