<svg width="16" height="16" viewBox="0 0 16 16" fill="none" xmlns="http://www.w3.org/2000/svg">
<path d="M2.66658 7.33334C2.8365 7.33353 2.99993 7.3986 3.12349 7.51524C3.24705 7.63189 3.3214 7.79131 3.33136 7.96094C3.34132 8.13057 3.28613 8.2976 3.17707 8.4279C3.06801 8.5582 2.91331 8.64194 2.74458 8.66201L2.66658 8.66668H1.99991C1.82999 8.66649 1.66656 8.60142 1.543 8.48478C1.41944 8.36813 1.34509 8.20871 1.33513 8.03908C1.32517 7.86945 1.38036 7.70242 1.48942 7.57212C1.59848 7.44182 1.75318 7.35808 1.92191 7.33801L1.99991 7.33334H2.66658ZM7.99991 1.33334C8.1632 1.33337 8.3208 1.39331 8.44283 1.50182C8.56485 1.61033 8.64281 1.75984 8.66191 1.92201L8.66658 2.00001V2.66668C8.66639 2.8366 8.60133 3.00003 8.48468 3.12359C8.36803 3.24715 8.20861 3.3215 8.03898 3.33146C7.86935 3.34142 7.70233 3.28623 7.57202 3.17717C7.44172 3.06811 7.35798 2.91341 7.33791 2.74468L7.33325 2.66668V2.00001C7.33325 1.8232 7.40348 1.65363 7.52851 1.52861C7.65353 1.40358 7.8231 1.33334 7.99991 1.33334ZM13.9999 7.33334C14.1698 7.33353 14.3333 7.3986 14.4568 7.51524C14.5804 7.63189 14.6547 7.79131 14.6647 7.96094C14.6747 8.13057 14.6195 8.2976 14.5104 8.4279C14.4013 8.5582 14.2466 8.64194 14.0779 8.66201L13.9999 8.66668H13.3332C13.1633 8.66649 12.9999 8.60142 12.8763 8.48478C12.7528 8.36813 12.6784 8.20871 12.6685 8.03908C12.6585 7.86945 12.7137 7.70242 12.8228 7.57212C12.9318 7.44182 13.0865 7.35808 13.2552 7.33801L13.3332 7.33334H13.9999ZM3.26191 3.26201C3.37671 3.14723 3.52944 3.07827 3.69146 3.06808C3.85348 3.0579 4.01364 3.10718 4.14191 3.20668L4.20458 3.26201L4.67125 3.72868C4.79081 3.84865 4.86023 4.00963 4.8654 4.17893C4.87057 4.34823 4.8111 4.51315 4.69908 4.6402C4.58706 4.76724 4.43088 4.84688 4.26226 4.86294C4.09365 4.879 3.92524 4.83028 3.79125 4.72668L3.72858 4.67134L3.26191 4.20468C3.13693 4.07966 3.06672 3.91012 3.06672 3.73334C3.06672 3.55657 3.13693 3.38703 3.26191 3.26201ZM11.7952 3.26201C11.9152 3.14244 12.0762 3.07303 12.2455 3.06786C12.4148 3.06269 12.5797 3.12215 12.7068 3.23418C12.8338 3.3462 12.9135 3.50238 12.9295 3.67099C12.9456 3.83961 12.8969 4.00802 12.7932 4.14201L12.7379 4.20468L12.2712 4.67134C12.1513 4.79091 11.9903 4.86033 11.821 4.8655C11.6517 4.87067 11.4868 4.8112 11.3597 4.69918C11.2327 4.58716 11.153 4.43098 11.137 4.26236C11.1209 4.09375 11.1696 3.92534 11.2732 3.79134L11.3286 3.72868L11.7952 3.26201ZM9.33325 12C9.51006 12 9.67963 12.0702 9.80465 12.1953C9.92967 12.3203 9.99991 12.4899 9.99991 12.6667C9.99991 13.1971 9.7892 13.7058 9.41413 14.0809C9.03905 14.456 8.53035 14.6667 7.99991 14.6667C7.46948 14.6667 6.96077 14.456 6.5857 14.0809C6.21063 13.7058 5.99991 13.1971 5.99991 12.6667C5.99993 12.5034 6.05988 12.3458 6.16839 12.2238C6.2769 12.1017 6.42641 12.0238 6.58858 12.0047L6.66658 12H9.33325ZM7.99991 4.00001C8.83944 4.00001 9.65769 4.26416 10.3388 4.75504C11.0198 5.24592 11.5292 5.93865 11.7946 6.7351C12.0601 7.53155 12.0683 8.39134 11.818 9.19268C11.5676 9.99402 11.0715 10.6963 10.3999 11.2C10.308 11.269 10.1999 11.3131 10.0859 11.328L9.99991 11.3333H5.99991C5.85567 11.3333 5.71531 11.2866 5.59991 11.2C4.92829 10.6963 4.43218 9.99402 4.18186 9.19268C3.93154 8.39134 3.9397 7.53155 4.20518 6.7351C4.47066 5.93865 4.98001 5.24592 5.66107 4.75504C6.34213 4.26416 7.16038 4.00001 7.99991 4.00001Z" fill="#DB9615"/>
</svg>
