<svg width="27" height="35" viewBox="0 0 27 35" fill="none" xmlns="http://www.w3.org/2000/svg">
<path d="M7.99999 34.8003C3.58172 34.8003 0 31.2186 0 26.8003V14.1001C0 12.7194 1.11929 11.6001 2.5 11.6001C3.88071 11.6001 5 10.4808 5 9.10011V8.28579C5 5.99339 5.81278 4.0396 7.43833 2.42442C9.06389 0.809247 11.0289 0.0011059 13.3333 1.13117e-06C15.6378 -0.00110364 17.6033 0.807037 19.23 2.42442C20.8567 4.04181 21.6689 5.9956 21.6667 8.28579V9.10011C21.6667 10.4808 22.786 11.6001 24.1667 11.6001C25.5474 11.6001 26.6667 12.7194 26.6667 14.1001V26.8003C26.6667 31.2186 23.0849 34.8003 18.6667 34.8003H7.99999ZM13.3333 26.5145C14.25 26.5145 15.035 26.1903 15.6883 25.5418C16.3417 24.8933 16.6678 24.1128 16.6667 23.2002C16.6656 22.2877 16.3394 21.5077 15.6883 20.8603C15.0372 20.2129 14.2522 19.8881 13.3333 19.8859C12.4144 19.8837 11.63 20.2085 10.98 20.8603C10.33 21.5121 10.0033 22.2921 10 23.2002C9.99667 24.1083 10.3233 24.8889 10.98 25.5418C11.6367 26.1947 12.4211 26.519 13.3333 26.5145ZM8.33333 8.28579C8.33333 10.1162 9.8172 11.6001 11.6476 11.6001H15.019C16.8495 11.6001 18.3333 10.1162 18.3333 8.28579C18.3333 6.90483 17.8472 5.73101 16.875 4.76433C15.9028 3.79766 14.7222 3.31432 13.3333 3.31432C11.9444 3.31432 10.7639 3.79766 9.79167 4.76433C8.81944 5.73101 8.33333 6.90483 8.33333 8.28579Z" fill="#FEFFFF"/>
</svg>
