<svg width="84" height="84" viewBox="0 0 84 84" fill="none" xmlns="http://www.w3.org/2000/svg">
<path d="M22.7493 5.25C23.6775 5.25 24.5677 5.61875 25.2241 6.27513C25.8805 6.9315 26.2493 7.82174 26.2493 8.75V17.5H35.0063C35.9345 17.5 36.8247 17.8687 37.4811 18.5251C38.1375 19.1815 38.5063 20.0717 38.5063 21C38.5063 21.9283 38.1375 22.8185 37.4811 23.4749C36.8247 24.1313 35.9345 24.5 35.0063 24.5H26.2493V33.25C26.2493 34.1783 25.8805 35.0685 25.2241 35.7249C24.5677 36.3813 23.6775 36.75 22.7493 36.75C21.821 36.75 20.9308 36.3813 20.2744 35.7249C19.618 35.0685 19.2493 34.1783 19.2493 33.25V24.5H10.5063C9.57799 24.5 8.68776 24.1313 8.03138 23.4749C7.375 22.8185 7.00625 21.9283 7.00625 21C7.00625 20.0717 7.375 19.1815 8.03138 18.5251C8.68776 17.8687 9.57799 17.5 10.5063 17.5H19.2493V8.75C19.2493 7.82174 19.618 6.9315 20.2744 6.27513C20.9308 5.61875 21.821 5.25 22.7493 5.25ZM48.9923 17.5C48.064 17.5 47.1738 17.8687 46.5174 18.5251C45.861 19.1815 45.4923 20.0717 45.4923 21C45.4923 21.9283 45.861 22.8185 46.5174 23.4749C47.1738 24.1313 48.064 24.5 48.9923 24.5H73.4922C74.4205 24.5 75.3107 24.1313 75.9671 23.4749C76.6235 22.8185 76.9922 21.9283 76.9922 21C76.9922 20.0717 76.6235 19.1815 75.9671 18.5251C75.3107 17.8687 74.4205 17.5 73.4922 17.5H48.9923ZM45.4993 61.25C45.4993 60.3217 45.868 59.4315 46.5244 58.7751C47.1808 58.1187 48.071 57.75 48.9993 57.75H73.4993C74.4275 57.75 75.3177 58.1187 75.9741 58.7751C76.6305 59.4315 76.9993 60.3217 76.9993 61.25C76.9993 62.1783 76.6305 63.0685 75.9741 63.7249C75.3177 64.3813 74.4275 64.75 73.4993 64.75H48.9993C48.071 64.75 47.1808 64.3813 46.5244 63.7249C45.868 63.0685 45.4993 62.1783 45.4993 61.25ZM61.2493 54.25C62.4096 54.25 63.5224 53.7891 64.3428 52.9686C65.1633 52.1481 65.6243 51.0353 65.6243 49.875C65.6243 48.7147 65.1633 47.6019 64.3428 46.7814C63.5224 45.9609 62.4096 45.5 61.2493 45.5C60.0889 45.5 58.9761 45.9609 58.1557 46.7814C57.3352 47.6019 56.8743 48.7147 56.8743 49.875C56.8743 51.0353 57.3352 52.1481 58.1557 52.9686C58.9761 53.7891 60.0889 54.25 61.2493 54.25ZM65.6243 72.625C65.6243 73.7853 65.1633 74.8981 64.3428 75.7186C63.5224 76.5391 62.4096 77 61.2493 77C60.0889 77 58.9761 76.5391 58.1557 75.7186C57.3352 74.8981 56.8743 73.7853 56.8743 72.625C56.8743 71.4647 57.3352 70.3519 58.1557 69.5314C58.9761 68.7109 60.0889 68.25 61.2493 68.25C62.4096 68.25 63.5224 68.7109 64.3428 69.5314C65.1633 70.3519 65.6243 71.4647 65.6243 72.625ZM8.02475 46.5255C8.6811 45.8694 9.57118 45.5007 10.4993 45.5007C11.4273 45.5007 12.3174 45.8694 12.9738 46.5255L22.7493 56.301L32.5248 46.5255C33.1849 45.8879 34.069 45.5352 34.9867 45.5431C35.9043 45.5511 36.7822 45.9192 37.4311 46.5681C38.08 47.2171 38.4481 48.0949 38.4561 49.0126C38.4641 49.9303 38.1113 50.8144 37.4738 51.4745L27.6983 61.25L37.4738 71.0255C38.1113 71.6856 38.4641 72.5697 38.4561 73.4874C38.4481 74.4051 38.08 75.2829 37.4311 75.9319C36.7822 76.5808 35.9043 76.9489 34.9867 76.9569C34.069 76.9648 33.1849 76.6121 32.5248 75.9745L22.7493 66.199L12.9738 75.9745C12.3136 76.6121 11.4295 76.9648 10.5118 76.9569C9.59416 76.9489 8.71632 76.5808 8.06739 75.9319C7.41846 75.2829 7.05037 74.4051 7.04239 73.4874C7.03442 72.5697 7.3872 71.6856 8.02475 71.0255L17.8003 61.25L8.02475 51.4745C7.3686 50.8182 7 49.9281 7 49C7 48.0719 7.3686 47.1818 8.02475 46.5255Z" fill="#085A98"/>
</svg>
