<svg width="94" height="32" viewBox="0 0 94 32" fill="none" xmlns="http://www.w3.org/2000/svg">
<g clip-path="url(#clip0_73_7930)">
<path d="M16.0473 32C24.91 32 32.0946 24.8366 32.0946 16C32.0946 7.16344 24.91 0 16.0473 0C7.18462 0 0 7.16344 0 16C0 24.8366 7.18462 32 16.0473 32Z" fill="#032327"/>
<path d="M38.89 0.529785H31.1094V31.8825H38.89V0.529785Z" fill="#032327"/>
<path d="M52.3431 0.529785H44.5625V31.8825H52.3431V0.529785Z" fill="#032327"/>
<path d="M66.4447 0.529785H58.6641V31.8825H66.4447V0.529785Z" fill="#032327"/>
<path d="M66.4447 0.529785H58.6641V31.8825H66.4447V0.529785Z" fill="#032327"/>
<path d="M79.8978 0.529785H72.1172V31.8825H79.8978V0.529785Z" fill="#032327"/>
<path d="M94.0013 7.91943H86.2207V31.8837H94.0013V7.91943Z" fill="#032327"/>
<path d="M59.6035 8.28844L31.305 8.28844V0.530762L51.8229 0.530762C56.1172 0.530762 59.6035 4.00682 59.6035 8.28844Z" fill="#032327"/>
<path d="M87.0742 8.28843L58.7757 8.28843V0.530762L79.2936 0.530762C83.5879 0.530762 87.0742 4.00682 87.0742 8.28843Z" fill="#032327"/>
</g>
<defs>
<clipPath id="clip0_73_7930">
<rect width="94" height="32" fill="white"/>
</clipPath>
</defs>
</svg>
