<svg width="11" height="14" viewBox="0 0 11 14" fill="none" xmlns="http://www.w3.org/2000/svg">
<path d="M1.33333 13.3333C0.966667 13.3333 0.652889 13.2029 0.392 12.942C0.131111 12.6811 0.000444444 12.3671 0 12V1.33333C0 0.966667 0.130667 0.652889 0.392 0.392C0.653333 0.131111 0.967111 0.000444444 1.33333 0H6.11667C6.29444 0 6.464 0.0333334 6.62533 0.1C6.78667 0.166667 6.92822 0.261111 7.05 0.383333L10.2833 3.61667C10.4056 3.73889 10.5 3.88067 10.5667 4.042C10.6333 4.20333 10.6667 4.37267 10.6667 4.55V12C10.6667 12.3667 10.5362 12.6807 10.2753 12.942C10.0144 13.2033 9.70045 13.3338 9.33333 13.3333H1.33333ZM6 4C6 4.18889 6.064 4.34733 6.192 4.47533C6.32 4.60333 6.47822 4.66711 6.66667 4.66667H9.33333L6 1.33333V4ZM4.61667 8.75L3.68333 7.81667C3.61667 7.75 3.54444 7.7 3.46667 7.66667C3.38889 7.63333 3.30844 7.61667 3.22533 7.61667C3.14222 7.61667 3.05889 7.63333 2.97533 7.66667C2.89178 7.7 2.81667 7.75 2.75 7.81667C2.61667 7.95 2.55 8.10844 2.55 8.292C2.55 8.47556 2.61667 8.63378 2.75 8.76667L4.16667 10.2C4.23333 10.2667 4.30556 10.314 4.38333 10.342C4.46111 10.37 4.54444 10.3838 4.63333 10.3833C4.72222 10.3829 4.80556 10.3691 4.88333 10.342C4.96111 10.3149 5.03333 10.2676 5.1 10.2L7.91667 7.38333C8.05 7.25 8.11667 7.08889 8.11667 6.9C8.11667 6.71111 8.05 6.55 7.91667 6.41667C7.78333 6.28333 7.62222 6.21667 7.43333 6.21667C7.24444 6.21667 7.08333 6.28333 6.95 6.41667L4.61667 8.75Z" fill="#FEFFFF"/>
</svg>
