<svg width="16" height="16" viewBox="0 0 16 16" fill="none" xmlns="http://www.w3.org/2000/svg">
<path d="M13.5107 4.67202C13.4031 4.65499 13.2942 4.68144 13.1974 4.7481L10.668 6.47905V9.52247L13.1974 11.2534C13.282 11.3113 13.376 11.3387 13.4705 11.3329C13.5649 11.3271 13.6568 11.2884 13.7373 11.2205C13.8178 11.1525 13.8843 11.0575 13.9305 10.9445C13.9767 10.8315 14.0011 10.7042 14.0013 10.5747V5.42678C14.0011 5.24056 13.9511 5.06087 13.8607 4.92177C13.7703 4.78267 13.6458 4.69381 13.5107 4.67202Z" fill="#FEFFFF"/>
<path d="M3.33398 3.3335C2.23732 3.3335 1.33398 4.23683 1.33398 5.3335V10.6668C1.33398 11.7635 2.23732 12.6668 3.33398 12.6668H8.66732C9.76398 12.6668 10.6673 11.7635 10.6673 10.6668V5.3335C10.6673 4.23683 9.76398 3.3335 8.66732 3.3335H3.33398Z" fill="#FEFFFF"/>
</svg>
