<svg width="40" height="40" viewBox="0 0 40 40" fill="none" xmlns="http://www.w3.org/2000/svg">
<g clip-path="url(#clip0_1322_264)">
<path d="M22.9427 33.617C8.67937 35.8353 3.95791 16.4626 5.89943 11.0785C7.45304 6.77322 11.3926 5.58528 13.1685 5.53073C19.8799 5.32062 19.6335 12.6422 24.0478 13.3917C36.3272 14.4059 36.7232 31.4735 22.9427 33.617Z" stroke="#032327" stroke-width="2.5" stroke-linecap="round" stroke-linejoin="round"/>
<path d="M7.93601 7.87832L6.02885 5.97115M5.65913 12.0058L3.01253 11.4926M5.67327 16.6828L3.04687 17.2889M6.92384 21.9093L4.38432 22.8165M9.18254 26.649L6.94404 28.1521M12.1989 30.3886L10.3483 32.3483M16.3041 33.0028L15.296 35.502M20.9872 33.8029L21.0276 36.498M25.9753 32.8271L26.7915 35.3969M32.1231 32.0654L30.2159 30.1582M35.0344 27.7157L32.4908 26.8207M35.9637 22.3821L33.2666 22.372M34.0101 16.1737L31.7413 17.6344M29.131 11.9937L28.038 14.4605M23.9207 10.5168L22.8297 12.9816M20.9791 6.63381L18.8679 8.31269M16.5486 3.30637L15.5021 5.79135M10.8432 3.18919L11.3463 5.83781M21.1145 26.0995C21.773 26.758 22.6661 27.1279 23.5974 27.1279C24.5287 27.1279 25.4219 26.758 26.0804 26.0995C26.7389 25.4409 27.1088 24.5478 27.1088 23.6165C27.1088 22.6852 26.7389 21.7921 26.0804 21.1335C25.4219 20.475 24.5287 20.1051 23.5974 20.1051C22.6661 20.1051 21.773 20.475 21.1145 21.1335C20.4559 21.7921 20.086 22.6852 20.086 23.6165C20.086 24.5478 20.4559 25.4409 21.1145 26.0995ZM11.5221 16.499C12.0606 17.0375 12.7909 17.34 13.5525 17.34C14.314 17.34 15.0444 17.0375 15.5829 16.499C16.1214 15.9605 16.4239 15.2301 16.4239 14.4686C16.4239 13.707 16.1214 12.9766 15.5829 12.4382C15.0444 11.8997 14.314 11.5971 13.5525 11.5971C12.7909 11.5971 12.0606 11.8997 11.5221 12.4382C10.9836 12.9766 10.681 13.707 10.681 14.4686C10.681 15.2301 10.9836 15.9605 11.5221 16.499ZM14.7465 24.2973C14.6125 24.4313 14.4308 24.5066 14.2414 24.5066C14.0519 24.5066 13.8703 24.4313 13.7363 24.2973C13.6024 24.1634 13.5271 23.9817 13.5271 23.7923C13.5271 23.6028 13.6024 23.4211 13.7363 23.2872C13.8703 23.1532 14.0519 23.078 14.2414 23.078C14.4308 23.078 14.6125 23.1532 14.7465 23.2872C14.8804 23.4211 14.9557 23.6028 14.9557 23.7923C14.9557 23.9817 14.8804 24.1634 14.7465 24.2973Z" stroke="#032327" stroke-width="2.5" stroke-linecap="round" stroke-linejoin="round"/>
</g>
<defs>
<clipPath id="clip0_1322_264">
<rect width="40" height="40" fill="white"/>
</clipPath>
</defs>
</svg>
