<svg width="40" height="40" viewBox="0 0 40 40" fill="none" xmlns="http://www.w3.org/2000/svg">
<path d="M24.9999 36.6667H10.6782C9.98795 36.6663 9.30943 36.4879 8.70823 36.1487C8.10704 35.8095 7.60349 35.321 7.24625 34.7303C6.88901 34.1397 6.69015 33.4669 6.6689 32.7769C6.64764 32.087 6.8047 31.4032 7.1249 30.7917L15.8332 14.1667V3.33333H24.1666V14.1667L27.4999 20.53M13.3332 3.33333H26.6666M13.3332 19.1667H26.6666" stroke="#032327" stroke-width="2.5" stroke-linecap="round" stroke-linejoin="round"/>
<path d="M30.8333 25L30.4033 26.1617C29.84 27.685 29.5583 28.4467 29.0033 29.0017C28.4467 29.5583 27.685 29.84 26.1617 30.4033L25 30.8333L26.1617 31.2633C27.685 31.8267 28.445 32.1083 29.0017 32.6633C29.5583 33.22 29.84 33.9817 30.4033 35.505L30.8333 36.6667L31.2633 35.505C31.8267 33.9817 32.1083 33.22 32.6633 32.665C33.22 32.1083 33.98 31.8267 35.505 31.2633L36.6667 30.8333L35.505 30.4033C33.9817 29.84 33.22 29.5583 32.665 29.0033C32.1083 28.4467 31.8267 27.685 31.2633 26.1617L30.8333 25Z" stroke="#032327" stroke-width="2.5" stroke-linejoin="round"/>
</svg>
