<svg width="40" height="40" viewBox="0 0 40 40" fill="none" xmlns="http://www.w3.org/2000/svg">
<path d="M7.99995 23.5C7.99995 22.4267 8.12528 21.3693 8.37595 20.328C8.62662 19.288 9.01662 18.2933 9.54595 17.344C9.62995 17.1973 9.71328 17.046 9.79595 16.89C9.87995 16.734 9.97928 16.5887 10.094 16.454C10.1937 16.3238 10.3155 16.2121 10.454 16.124C10.6027 16.0438 10.769 16.0019 10.9379 16.0019C11.1069 16.0019 11.2732 16.0438 11.422 16.124C11.5726 16.2016 11.6976 16.3211 11.7819 16.468L13.8599 19.86C13.9546 20.016 14.0793 20.136 14.234 20.22C14.398 20.3072 14.5802 20.3552 14.7659 20.36C14.9255 20.3671 15.0843 20.335 15.2286 20.2667C15.3729 20.1984 15.4983 20.0958 15.5939 19.968C15.7307 19.7879 15.8256 19.5795 15.8716 19.3581C15.9176 19.1366 15.9136 18.9077 15.8599 18.688C15.826 18.5583 15.7791 18.4323 15.72 18.312C15.3082 17.4368 14.958 16.5339 14.6719 15.61C14.3958 14.6711 14.259 13.6967 14.2659 12.718C14.2659 11.406 14.4846 10.2553 14.9219 9.266C15.3593 8.27534 15.9686 7.426 16.75 6.718C17.53 6.01134 18.4413 5.43867 19.4839 5C20.5595 4.5512 21.6808 4.22124 22.8279 4.016C22.9711 3.99009 23.1183 3.99638 23.2588 4.03444C23.3992 4.07249 23.5294 4.14135 23.6399 4.236C23.8799 4.44267 24 4.69734 24 5C24 6.56267 24.2653 8.052 24.7959 9.468C25.3342 10.8961 26.0766 12.2388 27 13.454L28.7339 15.718C29.3179 16.478 29.8546 17.27 30.344 18.094C30.8333 18.9167 31.2293 19.7707 31.5319 20.656C31.8333 21.5427 31.9893 22.4907 32 23.5C32 24.6147 31.8646 25.698 31.594 26.75C31.3277 27.7865 30.9284 28.7841 30.406 29.718C29.886 30.646 29.2713 31.49 28.562 32.25C27.854 33.01 27.052 33.6713 26.156 34.234C25.26 34.7967 24.2966 35.2293 23.266 35.532C22.2353 35.8347 21.1466 35.9907 20 36C18.8952 36.005 17.7954 35.8521 16.7339 35.546C15.7196 35.2517 14.7521 34.8153 13.8599 34.25C12.9756 33.6887 12.1624 33.0225 11.4379 32.266C10.7085 31.5059 10.0879 30.6485 9.59395 29.718C9.09144 28.7766 8.69822 27.7808 8.42195 26.75C8.13811 25.6901 7.99621 24.5972 7.99995 23.5Z" fill="#E81A84"/>
</svg>
