<svg width="40" height="40" viewBox="0 0 40 40" fill="none" xmlns="http://www.w3.org/2000/svg">
<g clip-path="url(#clip0_1322_279)">
<path d="M4.66675 16.3333C4.66675 10.0483 4.66675 6.905 6.62008 4.95333C8.57341 3.00167 11.7151 3 18.0001 3H21.3334C27.6184 3 30.7617 3 32.7134 4.95333C34.6651 6.90667 34.6667 10.0483 34.6667 16.3333V26.3333H4.66675V16.3333Z" stroke="#032327" stroke-width="2.5" stroke-linejoin="round"/>
<path d="M3 26.3333H36.3333M6.33333 36.3333L11.3333 26.3333M33 36.3333L28 26.3333" stroke="#032327" stroke-width="2.5" stroke-linecap="round"/>
<path d="M21.3333 14.6667H17.9999M12.9999 18V11.3333L11.3333 13M27.9999 18V11.3333L26.3333 13M19.6666 33V26.3333" stroke="#032327" stroke-width="2.5" stroke-linecap="round" stroke-linejoin="round"/>
</g>
<defs>
<clipPath id="clip0_1322_279">
<rect width="40" height="40" fill="white"/>
</clipPath>
</defs>
</svg>
