<svg width="40" height="40" viewBox="0 0 40 40" fill="none" xmlns="http://www.w3.org/2000/svg">
<path d="M20.0001 28.3333L22.6001 22.6333L28.3334 20L22.6001 17.4L20.0001 11.6667L17.3834 17.4L11.6667 20L17.3834 22.6333L20.0001 28.3333ZM13.6167 4.6C15.6418 3.76658 17.8101 3.33631 20.0001 3.33333C22.1834 3.33333 24.3501 3.76666 26.3834 4.6C28.4001 5.43333 30.2334 6.66666 31.7834 8.21666C33.3334 9.76666 34.5667 11.6 35.4001 13.6167C36.2334 15.65 36.6667 17.8167 36.6667 20C36.6667 24.4167 34.9167 28.6667 31.7834 31.7833C30.2377 33.3333 28.4011 34.5626 26.3789 35.4006C24.3568 36.2387 22.189 36.6689 20.0001 36.6667C17.8101 36.6637 15.6418 36.2334 13.6167 35.4C11.5968 34.5605 9.76194 33.3316 8.21672 31.7833C6.66675 30.2377 5.43744 28.401 4.5994 26.3789C3.76137 24.3567 3.33112 22.1889 3.33338 20C3.33338 15.5833 5.08338 11.3333 8.21672 8.21666C9.76672 6.66666 11.6 5.43333 13.6167 4.6ZM10.5667 29.4333C13.0667 31.9333 16.4667 33.3333 20.0001 33.3333C23.5334 33.3333 26.9334 31.9333 29.4334 29.4333C31.9334 26.9333 33.3334 23.5333 33.3334 20C33.3334 16.4667 31.9334 13.0667 29.4334 10.5667C28.1942 9.32887 26.7233 8.34735 25.1047 7.67818C23.4861 7.009 21.7515 6.66528 20.0001 6.66666C16.4667 6.66666 13.0667 8.06666 10.5667 10.5667C9.32893 11.8058 8.3474 13.2767 7.67823 14.8953C7.00906 16.5139 6.66534 18.2485 6.66672 20C6.66672 23.5333 8.06672 26.9333 10.5667 29.4333Z" fill="#032327"/>
</svg>
