<svg width="32" height="32" viewBox="0 0 32 32" fill="none" xmlns="http://www.w3.org/2000/svg">
<path d="M26.2713 11.4505C23.5193 12.3679 19.8887 12.8892 15.9993 12.8892C12.11 12.8892 8.47935 12.3679 5.72735 11.4492C4.62602 11.0839 3.56468 10.6199 2.66602 10.0345V15.7745C2.66602 18.2292 8.63535 20.2185 15.9993 20.2185C23.3633 20.2185 29.3327 18.2292 29.3327 15.7745V10.0332C28.434 10.6199 27.374 11.0825 26.27 11.4505" fill="#032327"/>
<path d="M29.3327 20.0295C28.434 20.6148 27.374 21.0788 26.27 21.4455C23.5193 22.3628 19.8887 22.8855 15.9993 22.8855C12.11 22.8855 8.47935 22.3628 5.72735 21.4455C4.62602 21.0802 3.56468 20.6162 2.66602 20.0295V26.2228C2.66602 28.6762 8.63535 30.6668 15.9993 30.6668C23.3633 30.6668 29.3327 28.6775 29.3327 26.2228V20.0295ZM15.9993 10.2228C8.63535 10.2228 2.66602 8.23216 2.66602 5.7775V5.7735C2.67268 3.32016 8.63935 1.3335 15.9993 1.3335C21.522 1.3335 26.2607 2.4535 28.2847 4.04816C28.9593 4.58016 29.3327 5.16416 29.3327 5.7775C29.3327 8.23216 23.3633 10.2228 15.9993 10.2228Z" fill="#032327"/>
</svg>
