<svg width="147" height="180" viewBox="0 0 147 180" fill="none" xmlns="http://www.w3.org/2000/svg">
<mask id="path-1-inside-1_1031_384" fill="white">
<path d="M79.2983 133.035C78.8966 132.665 78.4589 132.337 77.9917 132.055C77.5714 131.737 77.1026 131.489 76.6033 131.32C76.117 131.071 75.5926 130.906 75.0517 130.83C73.4871 130.499 71.8581 130.671 70.3967 131.32C69.3832 131.687 68.4628 132.272 67.7007 133.034C66.9386 133.796 66.3534 134.717 65.9867 135.73C65.5295 136.699 65.3057 137.762 65.3333 138.833C65.3203 139.895 65.5145 140.949 65.905 141.937C66.382 142.911 66.9861 143.817 67.7017 144.632C68.4648 145.389 69.3698 145.987 70.3648 146.394C71.3598 146.8 72.4252 147.006 73.5 147C74.5713 147.028 75.6341 146.804 76.6033 146.347C77.5894 145.926 78.4998 145.347 79.2983 144.632C80.0552 143.869 80.6541 142.964 81.0605 141.969C81.4669 140.974 81.6729 139.908 81.6667 138.833C81.6538 137.766 81.4318 136.712 81.0133 135.73C80.6246 134.728 80.0418 133.812 79.2983 133.035ZM45.325 99.3883C44.9048 99.0703 44.436 98.8221 43.9367 98.6533C43.461 98.3477 42.936 98.1266 42.385 98C41.3373 97.7561 40.2477 97.7561 39.2 98L37.73 98.49L36.26 99.225L35.035 100.205C33.504 101.811 32.6551 103.948 32.6667 106.167C32.6605 107.241 32.8665 108.307 33.2729 109.302C33.6793 110.297 34.2781 111.202 35.035 111.965C35.8335 112.68 36.7439 113.26 37.73 113.68C38.9672 114.188 40.3104 114.385 41.6414 114.253C42.9724 114.12 44.2506 113.663 45.3635 112.921C46.4764 112.179 47.3901 111.175 48.0242 109.997C48.6582 108.82 48.9933 107.504 49 106.167C48.9699 104.004 48.124 101.933 46.6317 100.368L45.325 99.3883ZM46.6317 133.035C45.855 132.292 44.9391 131.709 43.9367 131.32C42.4583 130.635 40.8087 130.407 39.2 130.667L37.73 131.157C37.211 131.339 36.7171 131.586 36.26 131.892C35.8362 132.199 35.4274 132.526 35.035 132.872C34.2915 133.648 33.7087 134.564 33.32 135.567C32.8879 136.544 32.6648 137.601 32.6648 138.67C32.6648 139.739 32.8879 140.796 33.32 141.773C33.7404 142.759 34.3198 143.67 35.035 144.468C35.7845 145.255 36.6834 145.884 37.679 146.318C38.6747 146.753 39.747 146.985 40.8333 147C41.9046 147.028 42.9675 146.804 43.9367 146.347C44.9228 145.926 45.8332 145.347 46.6317 144.632C47.3469 143.833 47.9262 142.923 48.3467 141.937C48.7787 140.959 49.0019 139.902 49.0019 138.833C49.0019 137.765 48.7787 136.708 48.3467 135.73C47.958 134.728 47.3752 133.812 46.6317 133.035ZM70.3967 98.6533C69.3942 99.042 68.4783 99.6248 67.7017 100.368C66.2093 101.933 65.3634 104.004 65.3333 106.167C65.34 107.504 65.6751 108.82 66.3092 109.997C66.9433 111.175 67.8569 112.179 68.9698 112.921C70.0828 113.663 71.3609 114.12 72.6919 114.253C74.023 114.385 75.3661 114.188 76.6033 113.68C77.5894 113.26 78.4998 112.68 79.2983 111.965C80.0552 111.202 80.6541 110.297 81.0605 109.302C81.4669 108.307 81.6729 107.241 81.6667 106.167C81.6366 104.004 80.7907 101.933 79.2983 100.368C78.1499 99.2351 76.6916 98.4675 75.1073 98.1623C73.5231 97.8571 71.8839 98.0279 70.3967 98.6533ZM111.965 133.035C111.167 132.32 110.256 131.74 109.27 131.32C107.783 130.695 106.144 130.524 104.559 130.829C102.975 131.134 101.517 131.902 100.368 133.035C99.6248 133.812 99.042 134.728 98.6533 135.73C98.2213 136.708 97.9981 137.765 97.9981 138.833C97.9981 139.902 98.2213 140.959 98.6533 141.937C99.0738 142.923 99.6531 143.833 100.368 144.632C101.131 145.389 102.036 145.987 103.031 146.394C104.026 146.8 105.092 147.006 106.167 147C107.238 147.028 108.301 146.804 109.27 146.347C110.256 145.926 111.167 145.347 111.965 144.632C113.098 143.483 113.866 142.025 114.171 140.441C114.476 138.856 114.305 137.217 113.68 135.73C113.291 134.728 112.708 133.812 111.965 133.035ZM106.167 32.6667H40.8333C38.6674 32.6667 36.5902 33.5271 35.0586 35.0586C33.5271 36.5902 32.6667 38.6674 32.6667 40.8333V73.5C32.6667 75.6659 33.5271 77.7432 35.0586 79.2747C36.5902 80.8063 38.6674 81.6667 40.8333 81.6667H106.167C108.333 81.6667 110.41 80.8063 111.941 79.2747C113.473 77.7432 114.333 75.6659 114.333 73.5V40.8333C114.333 38.6674 113.473 36.5902 111.941 35.0586C110.41 33.5271 108.333 32.6667 106.167 32.6667ZM98 65.3333H49V49H98V65.3333ZM122.5 0H24.5C18.0022 0 11.7705 2.58124 7.17588 7.17588C2.58124 11.7705 0 18.0022 0 24.5V155.167C0 161.664 2.58124 167.896 7.17588 172.491C11.7705 177.085 18.0022 179.667 24.5 179.667H122.5C128.998 179.667 135.229 177.085 139.824 172.491C144.419 167.896 147 161.664 147 155.167V24.5C147 18.0022 144.419 11.7705 139.824 7.17588C135.229 2.58124 128.998 0 122.5 0ZM130.667 155.167C130.667 157.333 129.806 159.41 128.275 160.941C126.743 162.473 124.666 163.333 122.5 163.333H24.5C22.3341 163.333 20.2568 162.473 18.7253 160.941C17.1938 159.41 16.3333 157.333 16.3333 155.167V24.5C16.3333 22.3341 17.1938 20.2568 18.7253 18.7253C20.2568 17.1937 22.3341 16.3333 24.5 16.3333H122.5C124.666 16.3333 126.743 17.1937 128.275 18.7253C129.806 20.2568 130.667 22.3341 130.667 24.5V155.167ZM110.658 99.3883C110.238 99.0703 109.769 98.8221 109.27 98.6533C108.784 98.4047 108.259 98.2391 107.718 98.1633C106.671 97.9194 105.581 97.9194 104.533 98.1633L103.063 98.6533L101.593 99.3883L100.368 100.368C98.876 101.933 98.0301 104.004 98 106.167C98.0067 107.504 98.3418 108.82 98.9758 109.997C99.6099 111.175 100.524 112.179 101.637 112.921C102.749 113.663 104.028 114.12 105.359 114.253C106.69 114.385 108.033 114.188 109.27 113.68C110.256 113.26 111.167 112.68 111.965 111.965C112.722 111.202 113.321 110.297 113.727 109.302C114.134 108.307 114.34 107.241 114.333 106.167C114.303 104.004 113.457 101.933 111.965 100.368L110.658 99.3883Z"/>
</mask>
<path d="M79.2983 133.035C78.8966 132.665 78.4589 132.337 77.9917 132.055C77.5714 131.737 77.1026 131.489 76.6033 131.32C76.117 131.071 75.5926 130.906 75.0517 130.83C73.4871 130.499 71.8581 130.671 70.3967 131.32C69.3832 131.687 68.4628 132.272 67.7007 133.034C66.9386 133.796 66.3534 134.717 65.9867 135.73C65.5295 136.699 65.3057 137.762 65.3333 138.833C65.3203 139.895 65.5145 140.949 65.905 141.937C66.382 142.911 66.9861 143.817 67.7017 144.632C68.4648 145.389 69.3698 145.987 70.3648 146.394C71.3598 146.8 72.4252 147.006 73.5 147C74.5713 147.028 75.6341 146.804 76.6033 146.347C77.5894 145.926 78.4998 145.347 79.2983 144.632C80.0552 143.869 80.6541 142.964 81.0605 141.969C81.4669 140.974 81.6729 139.908 81.6667 138.833C81.6538 137.766 81.4318 136.712 81.0133 135.73C80.6246 134.728 80.0418 133.812 79.2983 133.035ZM45.325 99.3883C44.9048 99.0703 44.436 98.8221 43.9367 98.6533C43.461 98.3477 42.936 98.1266 42.385 98C41.3373 97.7561 40.2477 97.7561 39.2 98L37.73 98.49L36.26 99.225L35.035 100.205C33.504 101.811 32.6551 103.948 32.6667 106.167C32.6605 107.241 32.8665 108.307 33.2729 109.302C33.6793 110.297 34.2781 111.202 35.035 111.965C35.8335 112.68 36.7439 113.26 37.73 113.68C38.9672 114.188 40.3104 114.385 41.6414 114.253C42.9724 114.12 44.2506 113.663 45.3635 112.921C46.4764 112.179 47.3901 111.175 48.0242 109.997C48.6582 108.82 48.9933 107.504 49 106.167C48.9699 104.004 48.124 101.933 46.6317 100.368L45.325 99.3883ZM46.6317 133.035C45.855 132.292 44.9391 131.709 43.9367 131.32C42.4583 130.635 40.8087 130.407 39.2 130.667L37.73 131.157C37.211 131.339 36.7171 131.586 36.26 131.892C35.8362 132.199 35.4274 132.526 35.035 132.872C34.2915 133.648 33.7087 134.564 33.32 135.567C32.8879 136.544 32.6648 137.601 32.6648 138.67C32.6648 139.739 32.8879 140.796 33.32 141.773C33.7404 142.759 34.3198 143.67 35.035 144.468C35.7845 145.255 36.6834 145.884 37.679 146.318C38.6747 146.753 39.747 146.985 40.8333 147C41.9046 147.028 42.9675 146.804 43.9367 146.347C44.9228 145.926 45.8332 145.347 46.6317 144.632C47.3469 143.833 47.9262 142.923 48.3467 141.937C48.7787 140.959 49.0019 139.902 49.0019 138.833C49.0019 137.765 48.7787 136.708 48.3467 135.73C47.958 134.728 47.3752 133.812 46.6317 133.035ZM70.3967 98.6533C69.3942 99.042 68.4783 99.6248 67.7017 100.368C66.2093 101.933 65.3634 104.004 65.3333 106.167C65.34 107.504 65.6751 108.82 66.3092 109.997C66.9433 111.175 67.8569 112.179 68.9698 112.921C70.0828 113.663 71.3609 114.12 72.6919 114.253C74.023 114.385 75.3661 114.188 76.6033 113.68C77.5894 113.26 78.4998 112.68 79.2983 111.965C80.0552 111.202 80.6541 110.297 81.0605 109.302C81.4669 108.307 81.6729 107.241 81.6667 106.167C81.6366 104.004 80.7907 101.933 79.2983 100.368C78.1499 99.2351 76.6916 98.4675 75.1073 98.1623C73.5231 97.8571 71.8839 98.0279 70.3967 98.6533ZM111.965 133.035C111.167 132.32 110.256 131.74 109.27 131.32C107.783 130.695 106.144 130.524 104.559 130.829C102.975 131.134 101.517 131.902 100.368 133.035C99.6248 133.812 99.042 134.728 98.6533 135.73C98.2213 136.708 97.9981 137.765 97.9981 138.833C97.9981 139.902 98.2213 140.959 98.6533 141.937C99.0738 142.923 99.6531 143.833 100.368 144.632C101.131 145.389 102.036 145.987 103.031 146.394C104.026 146.8 105.092 147.006 106.167 147C107.238 147.028 108.301 146.804 109.27 146.347C110.256 145.926 111.167 145.347 111.965 144.632C113.098 143.483 113.866 142.025 114.171 140.441C114.476 138.856 114.305 137.217 113.68 135.73C113.291 134.728 112.708 133.812 111.965 133.035ZM106.167 32.6667H40.8333C38.6674 32.6667 36.5902 33.5271 35.0586 35.0586C33.5271 36.5902 32.6667 38.6674 32.6667 40.8333V73.5C32.6667 75.6659 33.5271 77.7432 35.0586 79.2747C36.5902 80.8063 38.6674 81.6667 40.8333 81.6667H106.167C108.333 81.6667 110.41 80.8063 111.941 79.2747C113.473 77.7432 114.333 75.6659 114.333 73.5V40.8333C114.333 38.6674 113.473 36.5902 111.941 35.0586C110.41 33.5271 108.333 32.6667 106.167 32.6667ZM98 65.3333H49V49H98V65.3333ZM122.5 0H24.5C18.0022 0 11.7705 2.58124 7.17588 7.17588C2.58124 11.7705 0 18.0022 0 24.5V155.167C0 161.664 2.58124 167.896 7.17588 172.491C11.7705 177.085 18.0022 179.667 24.5 179.667H122.5C128.998 179.667 135.229 177.085 139.824 172.491C144.419 167.896 147 161.664 147 155.167V24.5C147 18.0022 144.419 11.7705 139.824 7.17588C135.229 2.58124 128.998 0 122.5 0ZM130.667 155.167C130.667 157.333 129.806 159.41 128.275 160.941C126.743 162.473 124.666 163.333 122.5 163.333H24.5C22.3341 163.333 20.2568 162.473 18.7253 160.941C17.1938 159.41 16.3333 157.333 16.3333 155.167V24.5C16.3333 22.3341 17.1938 20.2568 18.7253 18.7253C20.2568 17.1937 22.3341 16.3333 24.5 16.3333H122.5C124.666 16.3333 126.743 17.1937 128.275 18.7253C129.806 20.2568 130.667 22.3341 130.667 24.5V155.167ZM110.658 99.3883C110.238 99.0703 109.769 98.8221 109.27 98.6533C108.784 98.4047 108.259 98.2391 107.718 98.1633C106.671 97.9194 105.581 97.9194 104.533 98.1633L103.063 98.6533L101.593 99.3883L100.368 100.368C98.876 101.933 98.0301 104.004 98 106.167C98.0067 107.504 98.3418 108.82 98.9758 109.997C99.6099 111.175 100.524 112.179 101.637 112.921C102.749 113.663 104.028 114.12 105.359 114.253C106.69 114.385 108.033 114.188 109.27 113.68C110.256 113.26 111.167 112.68 111.965 111.965C112.722 111.202 113.321 110.297 113.727 109.302C114.134 108.307 114.34 107.241 114.333 106.167C114.303 104.004 113.457 101.933 111.965 100.368L110.658 99.3883Z" fill="#032327" stroke="#FEFFFF" stroke-width="4" mask="url(#path-1-inside-1_1031_384)"/>
</svg>
