<svg width="143" height="159" viewBox="0 0 143 159" fill="none" xmlns="http://www.w3.org/2000/svg">
<path d="M30.502 153L63.1686 55M79.502 55L91.5886 91.2518M99.3388 114.502L112.169 153M71.3353 22.3333C75.6672 22.3333 79.8216 24.0542 82.8847 27.1173C85.9478 30.1804 87.6686 34.3348 87.6686 38.6667C87.6686 42.9985 85.9478 47.153 82.8847 50.2161C79.8216 53.2792 75.6672 55 71.3353 55C67.0034 55 62.849 53.2792 59.7859 50.2161C56.7228 47.153 55.002 42.9985 55.002 38.6667C55.002 34.3348 56.7228 30.1804 59.7859 27.1173C62.849 24.0542 67.0034 22.3333 71.3353 22.3333ZM71.3353 22.3333V6M6.00195 79.5C18.4643 103.633 43.4706 120.333 71.3353 120.333C99.1836 120.333 124.198 103.608 136.669 79.5" stroke="#032327" stroke-width="12" stroke-linecap="round" stroke-linejoin="round"/>
</svg>
