<svg width="32" height="32" viewBox="0 0 32 32" fill="none" xmlns="http://www.w3.org/2000/svg">
<path fill-rule="evenodd" clip-rule="evenodd" d="M8.00065 2.6665C7.29341 2.6665 6.61513 2.94746 6.11503 3.44755C5.61494 3.94765 5.33398 4.62593 5.33398 5.33317V25.3332C5.33398 26.394 5.75541 27.4115 6.50556 28.1616C7.2557 28.9117 8.27312 29.3332 9.33398 29.3332H25.334C25.6876 29.3332 26.0267 29.1927 26.2768 28.9426C26.5268 28.6926 26.6673 28.3535 26.6673 27.9998C26.6673 27.6462 26.5268 27.3071 26.2768 27.057C26.0267 26.807 25.6876 26.6665 25.334 26.6665H22.6673V23.9998H25.334C25.6876 23.9998 26.0267 23.8594 26.2768 23.6093C26.5268 23.3593 26.6673 23.0201 26.6673 22.6665V5.33317C26.6673 4.62593 26.3864 3.94765 25.8863 3.44755C25.3862 2.94746 24.7079 2.6665 24.0007 2.6665H13.334V23.9998H20.0007V26.6665H9.33398C8.98036 26.6665 8.64122 26.526 8.39118 26.276C8.14113 26.0259 8.00065 25.6868 8.00065 25.3332C8.00065 24.9795 8.14113 24.6404 8.39118 24.3904C8.64122 24.1403 8.98036 23.9998 9.33398 23.9998H10.6673V2.6665H8.00065Z" fill="#032327"/>
</svg>
