<svg width="32" height="32" viewBox="0 0 32 32" fill="none" xmlns="http://www.w3.org/2000/svg">
<path fill-rule="evenodd" clip-rule="evenodd" d="M14.3327 14.1413V17.7453C13.6701 17.6405 12.9952 17.6405 12.3327 17.7453V5.57933C12.3327 4.14133 13.652 3.00066 15.1267 3.38933C16.332 3.70666 18.1847 4.26199 20.6067 5.18666C21.4741 5.51439 22.331 5.86945 23.176 6.25133C24.2 6.71866 24.9713 7.57333 24.9713 8.66599C24.9713 9.75933 24.2 10.6133 23.176 11.0813C22.494 11.3927 21.6507 11.748 20.6067 12.146C18.3513 13.006 16.5907 13.5467 15.3853 13.8733C15.036 13.9685 14.685 14.0578 14.3327 14.1413ZM9.20802 22.6667C9.49036 21.7951 10.0416 21.0353 10.7825 20.4965C11.5235 19.9576 12.4162 19.6674 13.3323 19.6674C14.2485 19.6674 15.1412 19.9576 15.8821 20.4965C16.6231 21.0353 17.1743 21.7951 17.4567 22.6667H24.3567C24.3711 22.2896 24.3956 21.9131 24.43 21.5373C24.4833 20.972 24.7734 20.5247 25.21 20.294C25.644 20.064 26.1787 20.0713 26.6813 20.3173C27.4255 20.6857 28.15 21.0925 28.852 21.536C29.4129 21.882 29.9544 22.2586 30.474 22.664C30.9207 23.0193 31.1673 23.498 31.1673 24.0007C31.1673 24.5027 30.9207 24.9813 30.474 25.3367C29.9544 25.7421 29.4129 26.1186 28.852 26.4647C28.15 26.9082 27.4255 27.3149 26.6813 27.6833C26.1793 27.93 25.6447 27.9367 25.21 27.7067C24.7727 27.476 24.4833 27.0287 24.43 26.4633C24.3953 26.0874 24.3708 25.7106 24.3567 25.3333H17.4567C17.1742 26.2047 16.6229 26.9642 15.882 27.5028C15.1412 28.0415 14.2487 28.3316 13.3327 28.3316C12.4167 28.3316 11.5242 28.0415 10.7833 27.5028C10.0424 26.9642 9.49119 26.2047 9.20868 25.3333H1.99935C1.64573 25.3333 1.30659 25.1929 1.05654 24.9428C0.806491 24.6928 0.666016 24.3536 0.666016 24C0.666016 23.6464 0.806491 23.3072 1.05654 23.0572C1.30659 22.8071 1.64573 22.6667 1.99935 22.6667H9.20802Z" fill="#032327"/>
</svg>
