<svg width="32" height="32" viewBox="0 0 32 32" fill="none" xmlns="http://www.w3.org/2000/svg">
<path d="M23.9993 2.6665C22.7993 2.6665 21.3327 3.99984 21.3327 5.33317H10.666C10.666 3.99984 9.19935 2.6665 7.99935 2.6665H2.66602V14.6665C2.66602 15.9998 3.99935 17.3332 5.33268 17.3332H8.26602C8.79935 19.9998 10.5327 22.2665 14.666 22.6665V25.4398C10.666 26.0532 10.666 29.3332 10.666 29.3332H21.3327C21.3327 29.3332 21.3327 26.0532 17.3327 25.4398V22.6665C21.466 22.2665 23.1993 19.9998 23.7327 17.3332H26.666C27.9993 17.3332 29.3327 15.9998 29.3327 14.6665V2.6665H23.9993ZM7.99935 14.6665H5.33268V5.33317H7.99935V14.6665ZM26.666 14.6665H23.9993V5.33317H26.666V14.6665Z" fill="#032327"/>
</svg>
