<svg width="32" height="32" viewBox="0 0 32 32" fill="none" xmlns="http://www.w3.org/2000/svg">
<path d="M15.9993 2.6665C17.194 2.6665 18.3513 2.82384 19.4527 3.1185L16.618 5.95184C16.403 6.16775 16.2133 6.40752 16.0527 6.6665H15.9993C14.1534 6.6665 12.3489 7.21389 10.814 8.23945C9.27917 9.26501 8.08289 10.7227 7.37647 12.4281C6.67005 14.1336 6.48522 16.0102 6.84535 17.8207C7.20548 19.6312 8.0944 21.2942 9.39968 22.5995C10.705 23.9048 12.368 24.7937 14.1785 25.1538C15.989 25.514 17.8656 25.3291 19.5711 24.6227C21.2765 23.9163 22.7342 22.72 23.7597 21.1852C24.7853 19.6503 25.3327 17.8458 25.3327 15.9998V15.9465C25.5905 15.7865 25.8282 15.5976 26.046 15.3798L28.8807 12.5465C29.1753 13.6478 29.3327 14.8052 29.3327 15.9998C29.3327 23.3638 23.3633 29.3332 15.9993 29.3332C8.63535 29.3332 2.66602 23.3638 2.66602 15.9998C2.66602 8.63584 8.63535 2.6665 15.9993 2.6665ZM15.4473 9.35584C15.4473 10.4905 15.3913 11.6412 15.4527 12.7745L14.7327 13.4945C14.485 13.7422 14.2885 14.0362 14.1545 14.3598C14.0205 14.6834 13.9515 15.0302 13.9515 15.3805C13.9515 15.7308 14.0205 16.0776 14.1545 16.4012C14.2885 16.7248 14.485 17.0188 14.7327 17.2665C14.9804 17.5142 15.2744 17.7106 15.598 17.8447C15.9216 17.9787 16.2684 18.0477 16.6187 18.0477C16.9689 18.0477 17.3158 17.9787 17.6394 17.8447C17.963 17.7106 18.257 17.5142 18.5047 17.2665L19.2247 16.5465C20.358 16.6078 21.5073 16.5518 22.6433 16.5518C22.538 17.819 22.0725 19.0295 21.3018 20.0408C20.531 21.052 19.4872 21.8218 18.2933 22.2593C17.0994 22.6967 15.8054 22.7836 14.5637 22.5098C13.3221 22.2359 12.1846 21.6127 11.2855 20.7136C10.3865 19.8146 9.76325 18.6771 9.48939 17.4355C9.21554 16.1938 9.30247 14.8997 9.73993 13.7059C10.1774 12.512 10.9471 11.4682 11.9584 10.6974C12.9697 9.92665 14.1802 9.46116 15.4473 9.35584ZM24.6713 2.83584C24.9147 2.93674 25.1227 3.10749 25.2692 3.32652C25.4156 3.54555 25.4938 3.80304 25.494 4.0665V6.5065H27.9327C28.1963 6.50656 28.4541 6.58479 28.6733 6.7313C28.8925 6.87781 29.0634 7.08603 29.1643 7.32963C29.2651 7.57323 29.2915 7.84128 29.2401 8.09988C29.1887 8.35848 29.0618 8.59603 28.8753 8.7825L24.1593 13.4932C23.9094 13.7432 23.5703 13.8838 23.2167 13.8838H19.9993L17.562 16.3225C17.3118 16.5727 16.9725 16.7132 16.6187 16.7132C16.2649 16.7132 15.9255 16.5727 15.6753 16.3225C15.4252 16.0723 15.2846 15.733 15.2846 15.3792C15.2846 15.0254 15.4252 14.686 15.6753 14.4358L18.114 11.9998V8.78117C18.1139 8.60586 18.1483 8.43225 18.2153 8.27027C18.2824 8.10829 18.3807 7.96111 18.5047 7.83717L23.218 3.12384C23.4045 2.93726 23.6421 2.81018 23.9008 2.75868C24.1595 2.70718 24.4276 2.73356 24.6713 2.8345" fill="#032327"/>
</svg>
