<svg width="16" height="16" viewBox="0 0 16 16" fill="none" xmlns="http://www.w3.org/2000/svg">
<path d="M8.84574 2.44609C9.04577 2.24613 9.31703 2.13379 9.59987 2.13379C9.88271 2.13379 10.154 2.24613 10.354 2.44609L15.154 7.2461C15.354 7.44612 15.4663 7.71739 15.4663 8.00023C15.4663 8.28307 15.354 8.55433 15.154 8.75436L10.354 13.5544C10.1528 13.7487 9.88339 13.8562 9.60371 13.8537C9.32403 13.8513 9.0565 13.7391 8.85873 13.5414C8.66096 13.3436 8.54878 13.0761 8.54635 12.7964C8.54392 12.5167 8.65143 12.2473 8.84574 12.0461L11.7332 9.0669H1.59987C1.31697 9.0669 1.04566 8.95451 0.845623 8.75448C0.645584 8.55444 0.533203 8.28313 0.533203 8.00023C0.533203 7.71733 0.645584 7.44602 0.845623 7.24598C1.04566 7.04594 1.31697 6.93356 1.59987 6.93356H11.7332L8.84574 3.95436C8.64577 3.75433 8.53343 3.48307 8.53343 3.20023C8.53343 2.91739 8.64577 2.64612 8.84574 2.44609Z" fill="#032327"/>
</svg>
