<svg width="175" height="128" viewBox="0 0 175 128" fill="none" xmlns="http://www.w3.org/2000/svg">
<g clip-path="url(#clip0_1298_9333)">
<path d="M108.14 1.52708H112.016V2.88701H115.698V4.24693H119.283L119.543 4.56749L119.574 5.80113H123.45V7.16106H126.841C127.279 7.47578 127.12 8.04889 127.132 8.52098H130.814V10.0752H134.69V11.4351H138.566V12.9893H142.054V14.3492H145.93V15.9034H149.612L149.806 17.2634H153.488V18.6233H157.364V20.1775H161.434V21.5393L163.953 21.5374L164.134 23.0081L166.665 23.0935V28.5332L164.269 28.5604C163.783 28.7197 163.977 29.4755 163.953 29.8951H162.789V32.7102C162.475 33.1492 161.903 32.9899 161.432 33.0016V38.6355H162.791L162.789 40.1917H164.147V41.7439H168.023L168.205 43.2127L170.93 43.2981V47.7665H169.378L169.38 49.3226H168.021L168.023 50.6825H166.665V59.6172C167.136 59.6289 167.707 59.4696 168.021 59.9087V62.7256H169.38V64.0856H173.45L173.535 65.4571L175 65.6398V71.1766C174.686 71.6176 174.114 71.4544 173.641 71.4661L173.461 72.7425L172.091 72.826V74.1879L170.734 74.1859V75.5478L168.021 75.7401V77.102L166.665 77.1V78.4619L165.308 78.46V80.0161H162.597V81.378L161.238 81.376V82.7379L159.87 82.8214L159.688 84.0959H156.975V87.01L154.262 86.8157L154.242 88.1562L152.917 88.3797L152.907 89.7299H150.194V91.0917L148.835 91.0898V92.4517L147.285 92.4497V93.8116L144.766 93.8096L144.585 95.2803L143.215 95.3638L143.035 96.6402L141.859 96.7238V98.0856H139.147V99.2532L137.971 99.3368L137.791 100.613H136.432V102.165H133.719V103.527L132.36 103.525C132.337 103.945 132.531 104.699 132.045 104.86L129.647 104.885L129.564 106.064L128.291 106.245V107.413L126.922 107.496L126.742 108.773L124.231 108.782L124.008 110.111L122.671 110.131V111.687L121.314 111.685V112.852L119.957 112.851V114.212H117.246V115.574L115.888 115.572V116.934L114.531 116.932V118.294H111.82V119.656L110.267 119.654V121.016H107.556V122.378L106.198 122.376V123.738L104.841 123.736V125.098H102.13V126.459L100.771 126.458V128.014H92.4399L92.2578 126.545C91.4884 126.007 88.4787 127.194 88.2035 126.337L88.1764 125.102H84.1066L84.3004 123.742H81.3934V122.382H77.3236C77.312 121.91 77.4709 121.336 77.0329 121.022H73.0601V119.662H70.3469V118.302H66.2771V116.942H62.0136V115.582H57.9438V114.222H55.2306V112.862H50.9671V111.502H46.8973V110.142H42.8275V108.782H39.9205V107.422H35.8508V106.257H32.0717C31.6337 105.942 31.7926 105.369 31.781 104.897H29.0678V103.537H25.095C24.657 103.222 24.8159 102.649 24.8043 102.177H20.7345V100.623H16.6647V99.4572H13.9516V98.0973L12.5833 98.0137L12.4031 96.7374H11.0446V94.0195H9.68799V89.7454H8.3314V74.3977H9.68799L9.77132 73.0261L11.0446 72.8454V71.4836H12.4012L12.593 68.7637H8.32946V67.2095H4.25969V64.2954H2.9031L2.81977 62.9238L1.54845 62.7412V59.8271H0V40.2053H1.55039V37.2912L2.82364 37.1027L2.72481 36.0556L3.03295 35.7661L5.62016 35.737V34.1808H9.68799L9.97868 33.0152H13.7578V31.8476L16.4826 31.764L16.6628 30.4877H20.5407C20.5756 29.9573 20.3527 29.3026 20.8314 28.9354H24.8043V27.3812H28.6802V26.0213H32.75V24.4671H36.0446V23.1071H40.1143L40.1453 21.8735L40.405 21.5529H44.1841V20.193H48.2539L48.2849 18.9594L48.5446 18.6388H52.1298V17.2789H56.3934V15.919H60.2694V14.3648H64.3391V13.0048H68.4089V11.4506H72.4787V10.0907H76.3547L76.3857 8.85708L76.6453 8.53652H80.4244V7.1766H84.4942V5.81668H88.5639L88.595 4.58303L88.8547 4.26248H92.6337V2.90255H96.7035V1.54263H100.579L100.665 0.171045L107.82 0.015625L108.11 0.307037L108.138 1.54263L108.14 1.52708ZM106.395 4.24693C106.06 3.84673 106.223 3.38047 106.202 2.88701H103.488C103.601 3.18231 103.845 4.24693 103.391 4.24693H99.7093L99.4496 4.56749L99.4186 5.80113H95.3488V7.16106H91.2791V8.52098H87.5L87.2403 8.84154L87.2093 10.0752H83.1395V11.4351H79.3605L79.1008 11.7557L79.0698 12.9893H75.1938V14.3492H71.3178L71.2907 15.5848L71 15.8762L67.2384 15.7908L67.0543 17.2634H63.1783V18.6233H59.1085V20.1775H55.0388V21.5374H51.2597L51 21.858L50.969 23.0916H46.8992V24.4515H43.1202L42.8605 24.7721L42.8295 26.0057H38.7597V27.5599H34.4961V28.9199H31.7829C31.7713 29.3919 31.9302 29.9651 31.4922 30.2798H27.7132V31.6397H23.4496V32.8054H20.7364V34.1653H16.7636C16.2849 34.5325 16.5078 35.1872 16.4729 35.7214H12.4012V37.0794C11.9922 37.0755 11.5891 37.2717 11.1492 37.2814C10.2112 37.3028 9.2655 37.2484 8.32946 37.2717V38.6336L5.6376 38.8454L5.43605 40.1023L4.25969 40.1878V43.0048C3.94574 43.4458 3.37403 43.2826 2.90116 43.2943V58.2554L4.17442 58.4361L4.25775 61.1695H5.61628L5.61434 62.7237H6.97287V64.0817H9.68605L9.87984 65.6359H12.593V66.9977L15.124 67.0813L15.3043 68.5519H16.6628L16.6609 69.9119H18.0194V67.1901H16.6609V65.6359H13.7539V64.274L11.2229 64.1905L11.0426 62.7198L8.55039 62.6946L8.32946 61.1656H6.97287V56.6992C6.45155 56.6818 5.69186 56.9052 5.61628 56.2135V43.2962L6.94574 43.0728L7 40.5045C7.15891 40.0168 7.91279 40.2111 8.3314 40.1878V38.8259C9.78295 38.822 11.2442 38.8298 12.6996 38.8356C13.0891 38.8356 13.4709 38.6317 13.7558 38.6336C13.9845 38.6336 14.8178 39.0435 15.3062 38.8279V40.1878H18.0194V41.742H22.0891L22.2713 43.2107L24.8043 43.2943L24.9845 44.7649L27.5058 44.8601L27.7287 46.189L30.4225 46.2084L30.4477 47.4459L30.7384 47.7373L34.4922 47.7626L34.6725 49.2332L37.2054 49.3168V50.6786H39.9167L40.1124 52.2309H42.8256C42.8605 52.7652 42.6376 53.4199 43.1163 53.787H46.8953V55.147H49.6085L49.7907 56.6157L52.5174 56.6992V58.2554H56.5853V59.6172C57.4923 59.4366 58.4923 59.7785 59.2985 59.8096V61.1714L62.8566 61.1967L63.376 62.7159L67.6318 62.7256C67.1841 60.1146 70.2054 61.595 71.5756 61.1423L71.8682 60.8509L71.9147 59.829L75.9554 59.6056C76.0853 59.4715 75.7267 58.4108 76.2829 58.2826L79.9515 58.0747L80.064 57.0217L80.3527 56.7284L83.3314 56.7031C83.3547 56.2835 83.1609 55.5297 83.6473 55.3685L86.8314 55.2577L87.3295 53.8143L90.9981 53.6064L91.1105 52.5534L91.3992 52.2601L94.9477 52.2231L95.2868 50.8671L99.0252 50.6767L99.2481 49.344L102.198 49.14L102.525 47.7723L106.076 47.7373L106.709 46.4299L110.269 46.2103V44.8485H113.465C114.835 44.8485 114.401 43.6051 114.711 43.3778L117.064 43.2107L117.562 41.7673L121.231 41.5594L121.343 40.5064L121.632 40.2131L125.386 40.1878L125.566 38.9114L128.498 38.7424L128.996 37.2989L132.362 37.2737C131.922 34.8647 134.953 35.9487 136.432 35.7195L136.612 34.4431L139.409 34.3324L140.047 33.1842L143.091 33.1667L143.725 31.8592L146.967 31.8068L147.601 30.4993L151.233 30.4488L151.932 29.2074L154.453 29.1122L154.777 27.7464L158.496 27.727L158.717 26.1981L162.572 25.9844L162.593 24.4515H158.717V23.0897L155.217 22.8118L155.035 21.5355C154.907 21.5277 154.777 21.5432 154.647 21.5355C153.729 21.4888 152.663 21.4966 151.74 21.5355L151.353 20.1755L147.599 20.1503L147.07 18.6408L143.405 18.6233L143.225 17.3469L139.655 17.2342L139.362 16.9428L139.306 15.9326C139.165 15.9054 138.921 15.7072 138.851 15.7072H135.653V14.3473H132.455C132.016 14.0326 132.178 13.4595 132.167 12.9854L128.8 12.9602L128.512 12.6668L128.399 11.6138L124.731 11.406C124.244 11.2467 124.438 10.4909 124.415 10.0713L120.924 9.9761C120.422 9.73132 120.529 8.9989 120.537 8.51904H117.048V7.15911H113.463L113.153 5.81862C112.934 5.54858 109.688 5.56023 109.103 5.60492V4.43927C109.079 4.19448 108.888 4.26053 108.715 4.24499C108.029 4.18088 107.279 4.28967 106.583 4.24499H106.39L106.395 4.24693ZM158.527 31.4454C157.147 31.4843 155.756 31.4182 154.372 31.4435L154.457 32.2225C154.409 32.2828 154.426 32.5586 154.283 32.7199C153.822 33.2328 150.957 33.054 150.196 32.8073V34.1672H146.124L146.093 35.4009L145.833 35.7214H141.86V37.0833L138.566 37.2756C138.438 37.2814 138.306 37.2659 138.178 37.2756V38.8318L135.076 38.8298V39.9974C134.494 40.4714 131.878 40.046 131.006 40.1897C130.971 40.7221 131.194 41.3768 130.715 41.7459H126.742C126.731 42.3501 126.876 42.7775 126.548 43.3001H123.446V44.4657L119.762 44.6581V46.2142H116.469C116.343 46.2006 116.209 46.2239 116.081 46.2142L115.888 46.4085V47.7684H112.397V49.1283C112.287 49.1905 112.266 49.2119 112.203 49.3226H108.519C108.51 49.4508 108.527 49.5829 108.519 49.7112L108.326 50.6825H104.837L104.812 51.9181L104.521 52.2095L100.767 52.2348L100.576 53.7909H96.8915V55.3451C96.8275 55.351 96.7616 55.3374 96.6977 55.3451C96.1512 55.4209 93.5155 55.2247 93.4012 55.3451V56.5127C93.281 56.5186 93.0136 56.6973 92.7326 56.707C91.6647 56.74 90.5911 56.6856 89.5252 56.707V58.2631H85.4574V59.6231H81.3876L81.2054 61.0918L78.6725 61.1753V62.5372H74.7016L74.4419 62.8577L74.4109 64.0914H70.3411V65.6456H67.6279C67.624 67.262 67.6337 68.8861 67.6279 70.5025C67.6202 72.894 67.6047 75.2991 67.6279 77.6906C67.6376 78.594 67.6221 79.5071 67.6279 80.4105H71.6977V78.8563H75.7674V77.4964H78.6744V75.9402C79.8333 75.915 81.0039 75.9771 82.1628 75.9402C82.3566 75.9344 82.5523 75.9499 82.7442 75.9402V74.9669C82.8062 74.8426 82.7578 74.7318 82.938 74.5784H85.6512L85.4574 73.4127C85.4903 73.3195 85.4302 73.1466 85.4574 73.0242C85.5833 73.0125 85.7171 73.0378 85.843 73.0242C85.8702 73.0222 86.0543 73.3175 86.2306 73.0242H89.7209V71.47H92.4361V70.3043C93.062 69.8089 95.5814 70.2693 96.5078 70.112V68.7501H99.219V67.1959H102.417C102.886 67.1959 102.643 65.9603 102.514 65.6417H105.517C106.291 65.6417 106.134 64.3401 106.376 64.1711L108.911 64.0895V62.7276H113.172L113.2 61.3968C114.016 60.8936 114.845 61.6319 115.703 61.2822L115.884 59.8135H119.953V58.2593H123.151L123.411 57.9387L123.442 56.7051H127.124V55.3451H130.709L130.969 55.0246L131 53.7909H135.07V52.2367H137.783L137.814 51.0031L138.074 50.6825H141.853V49.3226H145.922L146.138 47.7898L149.87 47.7412L150.161 47.4498L150.188 46.2142H153.095V44.66H156.973V43.4944C157.766 42.8027 158.899 43.201 159.882 43.1078C159.89 42.6551 159.87 42.1985 159.882 41.7459C159.893 41.2291 159.874 40.7065 159.882 40.1897H158.523C158.585 37.2834 158.442 34.3557 158.523 31.4493C158.975 31.4357 159.43 31.459 159.882 31.4493V30.0874H158.523C158.514 30.5401 158.537 30.9967 158.523 31.4493L158.527 31.4454ZM12.7907 43.2962L12.5988 41.7401H11.0465L11.0233 43.1738C10.9205 43.609 10.3236 43.3875 10.1182 43.5254C9.88953 43.6789 9.97868 44.4657 9.85078 44.6192C9.72287 44.7727 8.63566 44.8523 8.33721 44.8523L8.5407 55.1353L9.60853 55.3296L9.71705 57.7464C10.5988 58.541 10.9922 57.6065 11.0484 59.0344C11.0678 59.5182 10.905 60.8606 11.2306 61.086L13.7616 61.1714C14.0485 61.5678 13.8178 62.3662 14.3411 62.6304L16.3857 62.7276C16.5504 62.7062 16.593 62.8519 16.6686 62.9199V64.0875H18.0271C18.0349 63.1841 18.0155 62.271 18.0271 61.3657C18.0271 61.3016 18.0271 61.2356 18.0271 61.1714H19.3857L19.3837 58.2554H20.7422V55.3432L18.2112 55.2577L18.0291 53.789H23.4554L23.4826 55.0246L23.7733 55.3238L27.7093 55.1567L28.0969 56.6118L30.4302 56.7012V58.2573H34.6919V59.8096L36.0407 59.8193C35.9012 61.628 37.4884 61.1132 38.7636 61.1695V62.7256H41.4748V65.6398H37.405V64.0836H36.0485L35.9651 65.4571L34.6919 65.6378V68.5539H33.1415V70.11C34.8004 69.9507 34.3159 70.1489 34.7985 71.0717C35.281 71.9945 37.5368 70.8949 38.1822 71.8566L37.9884 73.0222H41.2829C41.624 73.4613 41.7384 74.083 41.4767 74.5764H44.1899V75.9363H48.2597V77.4905H51.6512C52.4574 77.4905 52.2597 78.1161 52.5058 78.526C52.8275 79.0642 54.624 78.7825 55.2364 78.8485V80.4047H57.9477V81.7665L61.907 81.7529C62.0213 81.7743 62.0504 82.2658 62.2112 82.5436C62.1957 82.668 62.2326 82.8137 62.2112 82.9322C62.2112 82.9419 62.0213 82.9613 62.0213 83.0274L62.2112 83.1265H66.281V80.4066H64.9244V65.6417H61.0485C60.4361 65.2512 60.6919 64.7422 60.6609 64.0875H56.5911V62.7256C55.3043 62.6149 53.4167 63.3221 53.6841 61.3657L51.1919 61.1442L51.1667 59.6172H47.0969L46.9031 58.6459C46.8973 58.5176 46.9128 58.3855 46.9031 58.2573H44.188C44.1647 57.8377 44.3585 57.0858 43.8721 56.9246L41.6589 56.8119L41.4787 55.3412H37.6027H37.4089C37.3934 55.2169 37.4322 55.0693 37.4089 54.9527C37.0872 53.3655 36.0136 54.1445 34.6938 53.9833V52.2328H31.7888L31.6066 50.9584L28.9089 50.6515L28.8818 49.1245H25.781V47.9588H22.5833C22.0407 47.714 22.4167 46.3327 22.2926 46.2103H19.5795L19.3643 44.6775L16.7771 44.6697C16.5426 44.6076 16.7267 44.1685 16.6725 44.0752C16.657 43.9509 16.6938 43.8052 16.6725 43.6867C16.6434 43.5293 16.7364 43.3253 16.4787 43.2981H12.7965L12.7907 43.2962ZM165.31 44.6561H162.597L162.085 46.1831L158.525 46.2084C158.64 46.5794 158.455 47.7645 158.043 47.7645H154.845V49.1245H151.841C151.372 49.5285 151.32 50.0881 151.357 50.6786H147.287L147.107 52.1493L144.38 52.2328L144.37 53.585L140.504 53.787C140.481 54.2067 140.674 54.9605 140.188 55.1217L136.754 55.1761L136.256 56.6196L133.517 56.7886L133.155 58.1738C132.488 58.5798 129.798 57.7716 129.486 58.2845L129.279 59.5318C128.019 59.7824 126.64 59.3511 125.479 59.9961L125.211 61.0879L122.705 61.1967L122.194 62.7256H118.415V64.0856H114.636L114.165 65.5562L111.632 65.6398L111.452 66.9162L108.467 67.1862L108.124 68.5345L104.859 68.5655L104.519 69.9216L101.942 70.11L101.762 71.3864L98.1919 71.4972L97.6938 72.9406L94.3857 73.0242L94.2054 74.3005L91.2733 74.4696L90.9109 75.8547L88.1841 75.9383V77.3002H84.3101L83.936 78.7708L80.0465 78.8544L79.8585 80.123L77.2267 80.5912L77.1434 81.7704L73.2926 81.7957L72.8915 83.2411L69.0019 83.3246C68.8895 83.4431 69.2965 84.7059 68.5194 84.6865L58.2752 84.6593C57.7888 84.5 57.9806 83.7442 57.9593 83.3246L52.531 83.1323V81.7704H49.8198L49.7345 80.3988L47.093 80.1327L46.9128 78.8563L43.1589 78.831L42.6609 77.3876L40.3101 77.2186L40.1298 75.9422L36.0795 75.9227L35.8663 74.5842H33.1531V75.9441L34.6182 76.1248L34.7015 77.4983L37.0407 77.5818L37.2209 78.8582L39.9477 78.9418L40.4457 80.3852L42.843 80.4105V81.7724L45.374 81.8559L45.5543 83.1323H49.626L49.8062 84.4067C50.4031 84.5971 51.8702 84.399 52.343 84.7778C52.6473 85.0206 52.4671 85.5763 52.5388 85.6501C52.8236 85.9512 55.7829 84.8963 55.2461 87.0178L57.7771 87.1013L57.9574 88.3777C61.1899 88.809 64.4089 88.403 67.6395 88.368L67.9709 87.1946L70.3624 87.0178L70.3818 86.0639L73.0736 85.8502C73.0872 85.4694 72.9399 84.8613 73.3915 84.7098L75.8004 84.5991L76.1609 83.4062L79.938 83.1498L80.0775 81.988C81.0291 81.378 82.0891 82.3494 82.8624 81.5723L83.2752 80.4338L86.8353 80.4086C86.5 78.2579 88.2888 78.9398 89.7422 78.8544C89.7655 78.4347 89.5717 77.6809 90.0581 77.5197L93.812 77.4944C93.8043 77.0107 93.6919 76.2822 94.1977 76.0354L96.5368 75.8547L97.033 74.6036L100.399 74.4812L100.965 73.1058L103.488 73.0125C103.508 72.5579 103.591 71.468 104.176 71.468H107.568V70.1061L110.099 70.0226L110.279 68.5519H114.351L114.531 67.0832L117.258 66.9997V65.6378H121.132L121.159 64.3051L124.041 64.0856L124.221 62.8092L127.335 62.7256L127.516 61.255L131.017 61.1714C131.041 60.7518 130.847 59.998 131.333 59.8368L134.709 59.7241L134.89 58.2534H137.798C137.793 57.7833 137.674 57.045 138.184 56.7964L141.672 56.6992L141.895 55.3665L144.496 55.1586L144.579 53.7851H148.651L148.831 52.3164L151.558 52.2328V50.6767H155.82V49.3168H159.599L159.973 47.9433L163.777 47.6771L163.984 46.4279L165.314 46.2064V44.6542L165.31 44.6561ZM162.597 53.3985C161.955 54.3427 160.868 53.8628 159.903 54.0008C159.756 55.3646 159.705 55.3743 158.417 55.7162L158.312 56.6779C157.155 56.7692 156.891 57.0606 156.977 58.2534H154.264L154.178 59.625L152.905 59.8057V61.1676H150.194L150.012 62.6363L148.641 62.7198V64.0797H145.93C145.895 64.6198 146.126 65.2765 145.624 65.6203C145.029 66.0283 144.539 65.5931 144.574 66.9939H141.86V68.3557L140.502 68.3538V69.7157L139.145 69.7137V71.2699H136.434V72.6317H135.079L134.864 74.1626L132.357 74.2733L132.285 75.3574L130.988 75.6546L130.816 77.0962H128.103V78.458L126.744 78.4561V80.0122H124.033V81.3741L122.674 81.3722V82.734L119.952 82.8195L119.736 84.2571C118.552 84.1075 118.992 85.0245 118.61 85.3587C118.357 85.5801 117.694 85.5219 117.49 85.6909C117.229 85.9085 117.362 86.5807 117.202 86.7749C117.172 86.8119 116.519 87.012 116.382 87.2179L115.252 86.8157C114.686 87.0955 114.504 88.2009 114.267 88.3894C113.719 88.8245 113.209 88.199 113.064 89.7473L110.785 89.9474C110.089 90.7945 110.618 91.3365 109.112 91.0878L108.919 92.642L106.318 92.6382L106.205 93.6134C105.721 93.8019 105.355 93.7766 104.932 93.9884L104.841 95.3541C103.897 95.3483 103.527 95.5309 103.473 96.5081L100.779 96.5295C101.258 98.1964 100.023 97.9555 99.5174 98.4722C99.0407 98.9618 99.5504 99.5097 98.0659 99.2474C98.093 99.7156 98.0078 100.162 97.8721 100.607C97.0097 100.726 95.8295 100.304 95.1589 100.899V114.207H96.7093V116.926H99.4244C99.4322 116.734 99.4167 116.538 99.4244 116.344C99.4322 116.085 99.4147 115.823 99.4244 115.566H102.14L102.138 114.207H103.496V112.849H106.209L106.295 111.669L107.568 111.489C107.484 110.906 107.566 110.616 107.76 110.127H108.924V108.767C108.988 108.761 109.054 108.767 109.118 108.767C109.955 108.744 110.802 108.782 111.64 108.767V107.599C112.194 107.393 112.601 107.351 113.19 107.407V106.239H115.901L115.928 104.907L117.258 104.683V103.323L118.616 103.325L118.626 102.167L119.952 101.944L119.998 100.631L122.686 100.411V99.2435L124.043 99.2455L124.314 97.8661L126.436 97.6621L126.711 97.4057L126.562 96.7199L128.124 96.6344L128.304 95.358L129.578 95.1773L129.661 93.9981L132.194 93.9145L132.374 92.6382L133.55 92.5546L133.758 91.3054L135.087 91.084V89.726H137.802V88.3641L139.161 88.3661V87.0042L140.432 86.8235L140.516 85.45L143.008 85.2305L143.248 84.1114L144.585 84.092V82.7301H147.298V81.3683H148.653L148.874 80.0355L149.986 79.9831L150.207 78.6504L152.738 78.5649L152.919 77.0942H154.277L154.275 75.7343H155.634V74.182H158.347V72.8202L159.703 72.8221L159.884 71.3514L162.61 71.2679V69.906L163.746 69.8808C164.041 69.4398 163.8 68.7171 164.161 68.3538L165.134 68.2411V62.7179H163.773V52.227H162.609V53.3927L162.597 53.3985ZM154.264 55.3432C155.643 55.588 155.965 54.8614 155.434 53.6763L154.277 53.7987L154.266 55.3432H154.264ZM136.24 67.192C136.279 67.1862 136.517 66.8754 136.922 66.8132C137.556 66.7141 138.304 66.8618 138.953 66.8054C138.556 65.1463 139.659 65.7894 140.132 65.1696C140.349 64.886 140.25 64.4586 140.502 64.1808C140.872 63.7747 141.897 63.868 141.674 62.7334L144.574 62.7256L144.754 61.255L147.287 61.1714L147.37 59.9922L148.643 59.8115L148.824 58.3409L151.231 58.2282L151.523 57.9368L151.576 56.9226L152.905 56.7012V55.3432H150.194C150.506 57.1888 148.459 56.6332 147.287 56.7012L147.107 58.1718L143.217 58.2554L143.037 59.5318L140.504 59.6153L140.324 61.086L136.461 61.1967L136.06 62.6421L133.721 62.7256L133.541 64.002L129.64 64.1711L129.345 65.4688L126.742 65.6398L126.562 67.1104L122.674 67.194C122.986 69.0415 120.944 68.4839 119.767 68.5539V69.9158H115.893L115.519 71.3864L113.169 71.5554L112.988 72.8318L110.295 73.0436L110.093 74.3005L106.205 74.386L105.983 75.7188L102.163 75.9674L101.94 77.2982L99.4089 77.3837L99.2287 78.6601L95.1667 78.8621L94.9767 80.1288L92.4457 80.2143L92.2229 81.547C90.781 81.6674 89.2364 81.0399 89.5368 83.1284H85.4671V84.4903L82.8663 84.6612L82.4361 85.823L78.6822 85.8483L78.5019 87.1246L75.7752 87.2082C75.7519 87.6278 75.9457 88.3816 75.4593 88.5428L71.8876 88.4593L71.5271 89.8445L69.188 89.928V91.2899H74.1318L74.6027 92.5663L77.3314 92.6479L77.5116 93.9243L81.0775 94.1943L81.4128 95.358C81.5988 95.4085 81.7946 95.3522 81.9826 95.3677C82.3643 95.4007 82.7616 95.3522 83.1453 95.3677C83.6667 95.391 84.5291 95.257 84.9554 95.3988C85.7326 95.6591 84.8624 96.9608 86.5543 96.9316C86.8275 96.9277 86.9961 96.7276 87.0233 96.7276C87.6008 96.7082 88.1919 96.7626 88.7674 96.7276C89.4981 97.054 89.655 97.2386 89.5426 98.0895C89.8004 98.0973 90.0601 98.0837 90.3178 98.0895C91.5911 98.1167 92.9225 98.1381 94.1938 98.0895C94.5097 98.0779 94.8295 98.1361 95.1415 98.0681L95.374 96.9413C95.9031 97.0696 96.3721 96.784 96.7132 96.7276C96.9516 96.6888 97.2558 96.7704 97.4884 96.7276C97.6647 96.6946 97.8643 96.7374 97.9787 96.5431L98.2519 95.4513L99.343 95.1832L99.6066 94.0894L100.777 93.9981L101.172 92.4517C101.61 92.3837 102.444 92.4206 102.917 92.4517C102.971 92.4555 103.244 92.7703 103.496 92.6459L103.876 91.3734L104.965 91.1053L105.047 89.9241L107.38 89.8367C107.698 89.625 107.634 88.776 107.802 88.6089C108.184 88.2242 109.318 88.7468 109.31 87.012C109.436 87.0217 109.57 87.0158 109.698 87.012C111.006 86.975 110.023 86.0989 110.86 85.652C111.322 85.7045 111.928 85.6617 112.411 85.652C112.669 85.6462 112.928 85.6656 113.184 85.652L113.409 84.3213L114.36 84.2047C114.547 84.0959 114.512 83.8822 114.541 83.7112C114.57 83.5403 114.539 83.3149 114.541 83.1284C114.82 82.9244 115.182 82.8739 115.51 82.7399C115.581 82.7107 115.802 82.8098 115.868 82.7185C115.969 82.5767 115.845 82.1473 115.928 81.9045C116.196 81.1312 117.948 81.4324 118.61 81.3819L118.694 80.2026L119.967 80.0219V78.6601L122.36 78.6348L122.859 77.1914L125.384 77.0981C125.407 76.7504 125.417 76.185 125.676 75.9344C126.171 75.4545 127.058 76.255 126.959 74.4035L128.273 74.1665L128.298 72.8338L130.831 72.7502L131.039 71.501L132.368 71.2796L132.55 70.0051L134.89 69.9216V68.5597L136.064 68.4762L136.244 67.1998L136.24 67.192ZM30.4264 65.8321C30.6919 65.8321 31.345 65.461 31.7849 65.6398L31.8682 64.2662L33.1395 64.0836V61.1695H30.4264V59.8076L27.8953 59.7241L27.7151 58.2534H23.562L23.3682 59.627C23.062 60.0757 22.0426 59.2986 22.0833 60.6955C22.0911 60.9694 22.2888 61.1423 22.2888 61.1676C22.3023 61.6785 22.3159 62.2128 22.2888 62.7218H20.7364V85.4519L22.0678 85.4247L22.2907 84.092H23.6473L23.6453 82.7301L26.0426 82.7573C26.6531 82.9574 26.2481 84.8808 26.3585 85.4519H27.7171L27.7151 86.8119L28.9884 86.9925L29.0717 88.1718H30.4302C30.4302 81.6344 30.4302 75.0874 30.4302 68.5481V65.8282L30.4264 65.8321ZM170.736 66.9977H168.023L167.829 69.9138H166.665L166.581 71.0911L165.2 71.4525L165.116 72.6337L163.843 72.8143L163.758 74.1859H161.045V75.5478L159.773 75.7285L159.688 77.1H156.975L156.754 78.4328L155.616 78.458L155.533 79.8316L154.26 80.0122L154.079 81.2886L151.547 81.3722L151.463 82.5514L150.19 82.7321L150.01 84.0085L148.64 84.092V85.4539L146.109 85.5374L145.928 86.8138L144.75 86.8973L144.39 88.2825L143.211 88.3661L143.031 89.6424L140.498 89.726L140.415 90.9052L139.141 91.0859V92.4478L136.61 92.5313L136.421 93.798C135.258 93.8465 134.934 93.932 134.86 95.1482L133.607 95.3483L133.523 96.5275L130.99 96.6111L130.81 97.8875L129.537 98.0681L129.453 99.2474L128.18 99.4281L128.095 100.607H125.382V101.969L124.023 101.967V103.329L121.331 103.541L121.285 104.662L119.955 104.883L119.775 106.158L118.624 106.267L118.397 107.399L117.134 107.59L117.05 108.769H114.529L114.446 109.946L113.2 110.154L112.979 111.487L111.707 111.669L111.622 112.849H108.909L108.824 114.028L107.55 114.209V115.57L106.376 115.654L106.196 116.928H103.483L103.397 118.108L102.143 118.308L101.922 119.638L99.4225 119.658L99.1996 120.987L97.8624 121.006L97.6822 122.283H95.3314L95.1492 121.008H91.0795V119.648H87.0097L86.8275 118.374L84.2965 118.288L84.1008 116.93H80.031V115.57H77.3178V114.21H73.2481L73.0659 112.936L70.3391 112.852V111.491H66.562C66.1221 111.176 66.2849 110.603 66.2733 110.129L62.2229 110.109L62.0097 108.771H57.9399V107.411H54.1609L53.6899 106.134L51.1667 106.041L50.9438 104.712L47.2151 104.701L46.6609 103.463L43.1473 103.341L42.8236 101.973H38.7539C38.7306 101.553 38.9244 100.8 38.438 100.638L34.6841 100.613C34.6705 100.141 34.8353 99.5679 34.3953 99.2513H30.4225V97.8914H26.3527L26.1318 96.5586L22.3953 96.5431L21.9438 95.3677L18.3372 95.1443C17.8508 94.985 18.0446 94.2293 18.0213 93.8096H16.6628L16.5795 92.6323L15.3081 92.4517V89.7318L13.9516 89.5375V78.6581H15.3081V75.9383L18.0213 75.744V73.0242C16.6744 72.7716 15.3159 72.8901 13.9535 73.0242L13.7713 74.2986L12.595 74.3821L12.5116 77.1156L11.0465 77.2982V88.3719H12.405L12.5988 92.4517C13.031 92.44 13.6337 92.3798 13.8585 92.8402L13.9535 95.3677L16.3508 95.393C16.8023 95.5426 16.655 96.1526 16.6686 96.5334L19.2016 96.6169L19.3837 97.8914L22.0969 98.0856V99.2532H27.2326L27.7422 100.588L30.405 100.833L30.6124 102.082C32.0562 102.727 34.9787 100.848 34.5 103.333L38.2539 103.358C38.8101 103.488 38.4515 104.543 38.5814 104.683L41.4806 104.885V106.053H45.2597C45.6996 106.368 45.5368 106.941 45.5485 107.415L49.3023 107.44L49.595 107.731L49.6473 108.745L52.3469 109.05L52.5291 110.133H56.5988V111.493H60.1841C60.2539 111.493 60.5 111.687 60.6357 111.722L60.8488 112.769L63.3818 112.851C63.3953 113.323 63.2306 113.896 63.6705 114.212H67.6434V115.572H71.2287C71.281 115.572 71.6802 115.772 71.7209 115.899L71.7132 116.932H75.7849L75.9651 118.207L78.6919 118.29V119.652H82.7597V121.012H85.4729C85.4942 121.43 85.3062 122.185 85.7907 122.345L89.5543 122.457L89.7345 123.734L93.624 123.817L93.8043 125.094L99.3411 124.911L99.4244 123.732L100.698 123.551L100.781 122.372L102.054 122.191L102.14 121.012H104.853L105.124 119.827L106.211 119.652L106.391 118.376L107.568 118.292V116.93H110.279L110.55 115.745L111.638 115.57L111.663 114.432L114.36 114.125L114.541 112.849H115.899L116.079 111.574L117.256 111.491L117.436 110.214L119.969 110.131V108.965L121.298 108.744L121.351 107.628L122.68 107.407L122.766 106.23L124.039 106.049L124.219 104.773L126.752 104.689L126.837 103.704L128.285 103.31L128.386 102.148L129.477 101.884L129.839 100.693L132.374 100.611L132.457 99.432L133.731 99.2513L133.75 98.1051L136.444 97.8914L136.527 96.7121L137.8 96.5314L137.981 95.255L139.157 95.1715L139.337 93.8932L141.69 93.9204L141.957 92.8286L143.203 92.4264L143.409 91.1753L144.585 91.0917L144.766 89.8153L145.942 89.7318L146.122 88.4554L148.461 88.2747L148.847 86.8157L150.023 86.7322L150.384 85.5394L152.919 85.4578V84.0959L154.275 84.0978V82.736L155.632 82.7379V81.376H156.988L157.101 79.9928L159.702 79.8218L159.785 78.6426L161.058 78.4619V77.1L162.405 77.0923L162.793 75.6372L165.099 75.5206L165.322 74.1879H166.678L166.676 72.826L169.209 72.7425L169.39 71.2718H170.748L170.746 69.9119H172.105L172.019 68.5403L170.746 68.3596V66.9977H170.736ZM18.0233 80.2084H16.6667V88.368H18.0233V80.2084ZM33.1395 93.8077C32.4167 93.899 31.3973 94.4993 30.4264 94.1962C30.5659 93.0384 30.1105 92.8324 29.0581 92.7508L28.5891 91.2782C28.3391 91.0043 28.0194 91.1092 27.7132 91.0898V89.7279L26.3547 89.7299V88.1737H25C24.9748 87.723 25.0194 87.2626 25 86.8138C23.7074 86.7128 23.2674 86.7458 23.4496 88.1737H20.7364V89.5356L19.5601 89.6191L19.3779 91.0898H20.7364V92.644H24.8062V94.0059C25.5853 94.1302 27.1337 93.7397 27.7132 94.1982L27.8256 95.1734L31.3953 95.1696C31.4942 95.2084 31.7442 95.053 31.7907 95.29L31.781 96.5295C32.7074 96.6888 35.2248 96.2264 35.8508 96.7238V97.8914H41.2771C41.6395 98.2585 41.4341 98.7695 41.4709 99.2532C42.4244 99.3037 43.2985 99.0823 44.1841 99.4456V100.613H48.2539C48.2597 100.807 48.2442 101.002 48.2539 101.196C48.2674 101.454 48.2403 101.717 48.2539 101.973L52.2074 102.146L52.6453 103.341L56.3934 103.333C56.7558 103.7 56.5504 104.211 56.5872 104.695H60.6589L60.8391 106.164L63.3585 106.265C63.3081 106.595 63.4651 106.776 63.5659 107.026C63.6047 107.125 63.4496 107.378 63.688 107.422L67.4419 107.415C67.7422 107.591 67.6182 107.922 67.6357 108.192C67.6492 108.384 67.6221 108.582 67.6357 108.775H71.7074V110.135L75.6725 110.121C75.907 110.183 75.7229 110.595 75.7771 110.715C75.8605 111.015 75.5097 111.456 76.062 111.494C76.8702 111.549 77.7054 111.376 78.5019 111.578L78.6822 112.854H82.7539C82.7597 112.917 82.7461 112.985 82.7539 113.047C82.8023 113.41 82.7171 113.837 82.7539 114.214H85.469L85.4671 115.574H89.5388C89.5969 115.607 89.6647 115.708 89.7326 115.767V116.934H92.4457C92.4496 116.998 92.4457 117.064 92.4457 117.128C92.4554 117.517 92.438 117.907 92.4457 118.296H93.8043L93.8062 115.687L92.8333 115.574C92.8139 115.551 92.5 115.668 92.4419 115.446C92.3643 115.147 92.4593 114.585 92.4457 114.214C92.3508 111.508 92.4593 108.765 92.4457 106.055C92.4399 104.763 92.4496 103.461 92.4457 102.167H91.0872L91.0891 100.613L87.1357 100.631L86.8256 100.032C86.843 99.906 86.8139 99.77 86.8256 99.6437L82.9496 99.4494C82.9109 99.4261 82.7829 99.296 82.7558 99.2552V98.0876H78.8798C78.5174 97.7204 78.7229 97.2094 78.686 96.7257L75.9593 96.6422L75.7771 95.3677H71.7074V94.0059C70.8837 93.8621 68.1105 94.2876 67.6376 93.8135V92.6459H62.405C62.2209 92.4555 62.1415 91.9893 62.0174 91.6746C61.9787 91.5755 62.1337 91.3229 61.8954 91.2782L56.7849 91.286C56.7209 91.2491 56.6376 91.1558 56.5911 91.0917V89.9241H54.0717C53.9981 89.895 53.8236 89.9883 53.7112 89.9028L53.4612 88.3971L50.969 88.3719V87.01H47.095V85.6501L44.186 85.8444V84.2882H41.4748L41.2946 83.0138C40.3198 82.633 39.3915 83.5772 38.5678 82.734L38.4554 81.7588L34.6899 81.7626V80.2065H33.1395V93.8077Z" fill="#090605"/>
<path d="M108.528 5.80121C109.348 6.73373 111.945 5.69436 112.609 6.46952C112.782 6.66962 112.797 7.05817 112.977 7.26605C113.753 8.16165 116.001 7.47198 116.45 7.76728C116.601 7.86636 116.569 8.87659 117.191 9.06503C117.853 9.26514 119.574 8.89407 119.976 9.18743C120.185 9.3409 120.132 9.81882 120.262 10.0655C120.679 10.8621 122.7 10.2501 123.512 10.4988L124.753 11.9753L127.596 12.0394C128.026 12.1909 127.772 12.8456 128.214 13.1681C128.844 13.6286 130.51 13.1467 131.392 13.6732C131.859 13.951 131.753 14.7223 132.307 14.8933L134.758 14.9613L135.795 16.2532L138.446 16.3154C138.764 16.4261 138.786 16.9934 139.036 17.279C139.917 18.2873 141.569 17.5665 142.51 17.8754C142.935 18.0153 142.851 18.6991 143.359 18.9672C144.21 19.416 146.072 18.9905 146.522 19.2936C146.815 19.4918 146.718 20.3602 147.224 20.5331L150.462 20.5894L151.169 21.6482C151.541 21.8619 151.7 21.5375 151.747 21.5355C152.669 21.4967 153.735 21.4889 154.654 21.5355C154.857 21.8969 154.915 22.4059 154.865 22.81C154.82 23.1694 154.499 23.0684 154.464 23.2238C154.367 23.6395 154.514 24.1991 154.46 24.6439H150.196V26.0039H146.127V27.5581H142.154C141.675 27.9252 141.898 28.58 141.863 29.1142L138.109 29.1395C137.625 29.2988 137.813 30.0545 137.791 30.4722H133.722V32.6092H129.652V34.1634H125.388V35.7176H121.319L121.288 36.9513L121.028 37.2718H117.249V38.6317H113.179V40.1859H108.915V41.7401H104.846V43.1001H100.776V44.6562C99.3224 44.7417 97.5356 44.0617 97.8689 46.2085H93.7991V47.7627H89.7294L89.5336 49.3149C88.1422 49.1304 86.8612 49.2683 85.4658 49.3149V50.6748H81.396V52.229H77.3263L77.2953 53.4627L77.0356 53.7832H73.0627V55.3374H68.993V56.6993C68.0918 56.7168 67.1809 56.6721 66.2798 56.6993V55.3374L62.334 55.3122L62.0433 55.0208L62.0181 53.7832L58.1616 53.7638L57.9464 52.231H55.2333V50.6768H51.1635L50.9813 49.2042L48.4367 49.2314L48.2565 47.7607L44.5026 47.7355L44.2119 47.444L44.1867 46.2065H41.4716L41.2914 44.7378L38.7585 44.6543V43.0981H36.0472L35.8263 41.7654L31.7836 41.5459V40.184L29.2526 40.1005L29.0724 38.8241H27.7139L27.6015 37.2485C26.0104 36.4267 23.1519 38.6026 23.6441 35.7157H27.7139V34.1615H30.4271L30.6209 33.1901H34.6906V31.8302H38.7604V30.4702H42.8302V28.916H47.0937V27.5561H50.9697V26.0019H55.0395V24.4458C56.4561 24.337 57.7042 24.8499 59.0995 24.438L59.1092 23.0878H63.179V21.5336H67.2488V20.1737H71.3185L71.3108 18.9459C71.3495 18.8176 71.7488 18.6195 71.803 18.6195H75.3883V17.2595H79.6519V15.8996H83.1402V14.3454H87.4038V12.9855H91.2798L91.3069 11.7499L91.5976 11.4585L95.3495 11.6256V10.0714H99.6131V8.51718H103.489L103.683 7.15725H107.753V5.79539C107.997 5.76236 108.303 5.84201 108.528 5.79539V5.80121Z" fill="#E81A84"/>
<path d="M12.4023 37.0791V35.7172L16.4721 35.7192C16.507 35.1869 16.2841 34.5322 16.7628 34.163H20.7357V32.8031H23.4489V31.6375H27.7124V30.2775H31.4915C31.9295 29.9628 31.7706 29.3897 31.7822 28.9176H34.4954V27.5577H38.7589V26.0035H42.8287L42.8597 24.7698L43.1194 24.4493H46.8985V23.0894H50.9682L50.9992 21.8557L51.2589 21.5352H55.038V20.1752H59.1078V18.621H63.1775V17.2611H67.0535L67.2376 15.7885L70.9992 15.874L71.2899 15.5826L71.3171 14.347H75.193V12.9871H79.069L79.1 11.7534L79.3597 11.4329H83.1388V10.0729H87.2085L87.2395 8.83929L87.4992 8.51874H91.2783V7.15881H95.3481V5.79889H99.4178L99.4488 4.56524L99.7085 4.24469H103.391C103.844 4.24469 103.6 3.18006 103.488 2.88477H106.201C106.222 3.37822 106.059 3.84448 106.395 4.24469C106.416 4.268 106.362 4.404 106.491 4.43508L106.588 4.24469C107.284 4.28937 108.034 4.18058 108.72 4.24469L109.108 4.43897V5.60462C109.007 5.61239 108.726 5.75809 108.526 5.79889C108.302 5.84552 107.995 5.76392 107.749 5.79889V7.16076H103.681L103.488 8.52068H99.6116V10.0749H95.3481V11.6291L91.5961 11.462L91.3054 11.7534L91.2783 12.989H87.4023V14.3489H83.1388V15.9031H79.6504V17.2631H75.3868V18.623H71.8016C71.7473 18.623 71.35 18.8231 71.3093 18.9494L71.3171 20.1772H67.2473V21.5371H63.1775V23.0913H59.1078L59.0981 24.4415C57.7027 24.8534 56.4547 24.3424 55.038 24.4493V26.0054H50.9702V27.5596H47.0942V28.9196H42.8306V30.4738H38.7609V31.8337H34.6911V33.1936H30.6213L30.4275 34.165H27.7144V35.7192H23.6446C23.1523 38.6061 26.0109 36.4302 27.602 37.252L27.7144 38.8295H29.0729L29.2531 40.104L31.7861 40.1875V41.5494L35.8268 41.7689L36.0477 43.1016H38.7609V44.6578L41.2919 44.7413L41.4721 46.212H44.1872L44.2124 47.4476L44.5031 47.739L48.257 47.7642L48.4372 49.2349L50.9818 49.2077L51.164 50.6803H55.2337V52.2345H57.9469L58.162 53.7673L62.0186 53.7867L62.0438 55.0243L62.3345 55.3157L66.2822 55.3409V56.7028C65.8306 56.7164 65.3733 56.6931 64.9237 56.7028V58.259H62.2124L62.1 59.6403C61.7202 59.9142 59.8849 59.8365 59.3054 59.8132C58.4992 59.7801 57.4992 59.4402 56.5903 59.6208V58.259H52.5225V56.7028L49.7977 56.6193L49.6155 55.1506H46.9023V53.7906H43.1233C42.6446 53.4235 42.8675 52.7687 42.8326 52.2345H40.1194L39.9237 50.6822H37.2105V49.3204L34.6795 49.2368L34.4992 47.7662L30.7454 47.7409L30.4547 47.4495L30.4295 46.212L27.7357 46.1925L27.5128 44.8637L24.9915 44.7685L24.8113 43.2978L22.2783 43.2143L22.0961 41.7456H18.0264V40.1914H15.3132V38.8315C14.8248 39.0471 13.9915 38.6391 13.7628 38.6372V37.2773C13.3171 37.456 12.6795 37.0869 12.4062 37.083L12.4023 37.0791Z" fill="#E56CAE"/>
<path d="M158.527 31.4449C158.54 30.9922 158.517 30.5357 158.527 30.083H159.885V31.4449C159.434 31.4546 158.978 31.4313 158.527 31.4449C158.443 34.3512 158.589 37.2809 158.527 40.1892H159.885C159.876 40.704 159.897 41.2266 159.885 41.7414H155.62V43.1014H151.841L151.37 44.572L147.6 44.6439L147.287 46.2078H144.573C144.688 46.5789 144.504 47.764 144.091 47.764H140.506V49.1239H136.533L136.062 50.5946L133.725 50.68C133.794 51.3367 133.651 52.2323 132.85 52.2323H129.459V53.5922H126.068C126.015 53.5922 125.401 53.8234 125.378 53.9069L125.389 55.1464L122.662 55.23L122.482 56.7006H118.604C118.581 57.1183 118.775 57.8721 118.288 58.0333L114.37 58.282L114.321 59.5953L110.271 59.809L110.091 61.0854L107.558 61.1689V62.7251H103.974C103.535 63.0398 103.697 63.6129 103.686 64.087H100.583C100.548 64.6173 100.771 65.272 100.292 65.6392H96.5133V66.9991H92.4435V68.5533H89.7303L89.3543 70.0221L86.8233 70.1075V71.4694L84.2923 71.5529L84.1121 73.0236H80.0404L79.8601 74.298L77.3156 74.4671L77.1334 75.9358H73.0636V77.2977L70.5307 77.3812L70.0326 78.8246L67.8291 78.8538L67.6373 77.6862C67.614 75.2947 67.6295 72.8896 67.6373 70.498C67.9222 69.6646 70.3117 70.3465 70.5462 70.1114V68.7496L74.4105 68.5436L74.7342 67.1837L78.6974 67.1099L78.8776 65.6392L81.3776 65.6198L81.6005 64.2909C82.3912 64.1744 85.3446 64.594 85.6257 63.7606C85.74 63.4245 85.5307 62.8941 85.9764 62.7523L89.7303 62.727L89.9105 61.2564L92.4435 61.1728L92.6237 59.8964L96.5113 59.811L96.7536 58.4977L99.4202 58.2587V56.8968L103.488 56.7026C103.521 56.2829 103.316 55.533 103.808 55.3718L107.56 55.3446C107.287 52.9958 109.527 53.9749 111.05 53.7923C111.085 53.26 110.862 52.6053 111.341 52.2362H114.538V50.8782C115.924 50.4858 117.174 51.1036 118.496 50.7053L118.932 49.3143L122.68 49.324C122.715 48.7917 122.492 48.137 122.971 47.7679H126.943V46.406L129.647 46.2039V44.9742C129.668 44.8906 130.283 44.6595 130.335 44.6595H133.726V43.2995H137.699L138.002 41.9493C138.296 42.0426 138.719 41.7453 138.862 41.7453H142.06V40.3835L146.128 40.1892L146.31 38.9147L148.843 38.8312L149.064 37.3023L153.106 37.277C153.13 36.8574 152.936 36.1036 153.422 35.9423L156.994 35.8316C157.331 35.5907 157.044 34.8622 157.261 34.5455C157.385 34.3629 157.837 34.392 158.042 34.1628C158.5 33.646 158.405 31.7849 157.662 31.6391C156.74 31.4585 155.069 31.4896 154.463 32.2239L154.378 31.4449C155.761 31.4216 157.153 31.4876 158.533 31.4468L158.527 31.4449Z" fill="#FEFFFF"/>
<path d="M162.596 53.3981V52.2305H163.759V62.7213H165.117L165.119 68.2426L164.146 68.3553C164.447 68.0522 164.895 68.262 164.933 68.0522L164.741 63.9705H163.937L163.749 65.4334C161.951 65.2624 162.637 66.3018 162.117 66.8089C161.776 67.1411 161.216 66.9002 161.067 67.0187L160.842 68.3475L159.579 68.5379L159.495 69.7172L156.993 69.9289C157.106 71.4831 156.019 70.9586 155.66 71.3141C155.464 71.5084 155.54 72.54 155.243 72.7401L154.272 72.8372L154.067 74.1855H151.354V75.5473L150.177 75.6309L149.997 76.9073L148.724 77.0879L148.641 78.4615L146.108 78.545L145.906 79.802L144.579 80.0234L144.569 81.3737H141.856L141.771 82.5529L140.497 82.7336L140.414 83.9128L139.16 84.1129L138.939 85.4437L136.427 85.4534L136.344 86.6346L134.962 86.996L134.879 88.1772L132.346 88.2607L131.986 89.6459L130.807 89.7294L130.788 91.0699L129.462 91.2933L129.453 92.4512L126.92 92.5348L126.73 93.8014L125.402 94.0229L125.383 95.1691H124.024V96.5271H121.311L121.226 97.7063L119.953 97.887L119.772 99.1634L118.596 99.2469V100.609H115.885L115.683 101.959L114.42 102.149L114.336 103.329L111.621 103.521V104.689L110.447 104.772L110.267 106.049L109.088 106.13L108.73 107.323L107.54 107.49L107.36 108.766L104.867 108.792L104.646 110.124L103.503 110.144L103.104 111.395L100.577 111.484L100.567 112.642L99.2395 112.864L99.038 114.121L96.8926 114.204L97.0748 116.646C97.9294 116.905 98.6581 116.724 99.412 116.343C99.4062 116.537 99.4217 116.734 99.412 116.926H96.6969V114.206H95.1465V100.898C95.817 100.304 96.9973 100.725 97.8597 100.607C97.8306 100.7 97.9023 100.865 97.8558 100.986C97.5806 101.196 95.8926 100.663 95.5341 101.287V106.047H96.5031L96.6833 104.964L97.8345 104.856L98.0554 103.523L100.451 103.496L100.947 102.245L102.125 102.163V100.801L103.482 100.803L103.565 99.6238L104.838 99.4432L105.019 98.1668L107.552 98.0832L107.635 96.904L108.908 96.7233L109.088 95.4469L111.633 95.2779L111.993 94.0851L113.172 94.0035L113.352 92.7271L115.885 92.6435L115.968 91.4643L117.241 91.2836L117.422 90.0072L119.927 89.7022L120.135 88.453L121.311 88.3695L121.491 87.0931L122.668 87.0096L122.848 85.5389L125.354 85.4282C125.402 83.4913 127.015 84.7812 127.11 82.8171L128.288 82.7355L128.468 81.4591L131.001 81.3756L131.026 80.2352L132.356 80.0137L132.538 78.7393L133.714 78.6557L133.895 77.1851L136.427 77.1015V75.7397H139.139L139.224 74.3681L140.497 74.1874C140.521 73.7678 140.327 73.014 140.813 72.8528L143.189 72.8042C143.389 71.5356 143.232 71.4656 144.536 71.2383L144.786 69.9367L145.924 69.9114L146.104 68.635L148.648 68.466L149.009 67.0808L150.187 66.9973V65.6354L152.718 65.5519L152.926 64.3027L154.253 64.0793C154.015 62.1968 155.691 62.801 156.97 62.7233L157.053 61.3497L158.327 61.1691L158.507 59.8927L161.04 59.8091L161.214 58.525L162.59 58.253V56.6968H163.557V52.7142L163.075 52.4228C162.767 52.6831 162.815 53.0581 162.588 53.3942L162.596 53.3981Z" fill="#FEFFFF"/>
<path d="M170.737 66.998V68.3599L172.008 68.5406L172.093 69.9141H170.735L170.737 71.274H169.378L169.198 72.7427L166.665 72.8263V74.1881H165.31L165.087 75.5209L162.781 75.6374L162.394 77.0926L161.045 77.1003V78.4622L159.774 78.6429L159.69 79.8221L157.089 79.9931L156.977 81.3763H155.618L155.62 82.7362H154.262L154.264 84.0962H152.905L152.907 85.4561L150.372 85.5377L150.012 86.7305L148.836 86.8141L148.45 88.2731L146.111 88.4538L145.931 89.7301L144.754 89.8137L144.574 91.0901L143.398 91.1736L143.192 92.4247L141.946 92.8269L141.679 93.9187L139.326 93.8915L139.146 95.1698L137.969 95.2534L137.789 96.5298L136.516 96.7104L136.432 97.8897L133.739 98.1034L133.719 99.2496L132.446 99.4303L132.363 100.61L129.828 100.691L129.465 101.882L128.374 102.146L128.274 103.308L126.826 103.702L126.741 104.687L124.208 104.771L124.027 106.047L122.754 106.228L122.669 107.405L121.339 107.627L121.287 108.742L119.958 108.963V110.129L117.425 110.213L117.244 111.489L116.068 111.572L115.888 112.849H114.529L114.349 114.123L111.651 114.43L111.626 115.569L110.539 115.744L110.268 116.929H107.555V118.291L106.378 118.374L106.198 119.65L105.111 119.825L104.839 121.01H102.126L102.041 122.19L100.768 122.37L100.684 123.55L99.4111 123.73L99.3278 124.909L93.791 125.092L93.6107 123.816L89.7212 123.732L89.541 122.456L85.7774 122.343C85.2929 122.184 85.4809 121.428 85.4596 121.01H82.7464V119.65H78.6766V118.289L75.9518 118.205L75.7716 116.929H71.6999L71.7077 115.897C71.6689 115.769 71.2697 115.571 71.2154 115.571H67.6301V114.211H63.6573C63.2173 113.896 63.3801 113.323 63.3685 112.849L60.8356 112.767L60.6224 111.72C60.4867 111.685 60.2406 111.491 60.1708 111.491H56.5856V110.131H52.5158L52.3336 109.049L49.634 108.744L49.5817 107.73L49.289 107.438L45.5352 107.413C45.5216 106.941 45.6863 106.368 45.2464 106.051H41.4673V104.884L38.5701 104.682C38.4402 104.542 38.8007 103.487 38.2425 103.357L34.4887 103.331C34.9673 100.847 32.0449 102.725 30.6011 102.08L30.3937 100.831L27.7309 100.586L27.2212 99.2516H22.0856V98.084L19.3743 97.8897L19.1921 96.6152L16.6592 96.5317C16.6456 96.1509 16.7929 95.5428 16.3414 95.3913L13.9441 95.3661L13.8491 92.8385C13.6243 92.3781 13.0216 92.4383 12.5894 92.45L12.3956 88.3702H11.0371V77.2985L12.5022 77.1159L12.5856 74.3824L13.7619 74.2989L13.9441 73.0244C15.3065 72.8904 16.665 72.7699 18.0119 73.0244V75.7443L15.2987 75.9386V78.6584H13.9421V89.5378L15.2987 89.7321V92.4519L16.5701 92.6326L16.6534 93.8119H18.0119C18.0352 94.2295 17.8414 94.9833 18.3278 95.1426L21.9344 95.3661L22.3859 96.5414L26.1224 96.557L26.3433 97.8897H30.4131V99.2496H34.3859C34.8259 99.5643 34.6631 100.137 34.6747 100.611L38.4286 100.637C38.915 100.796 38.7212 101.552 38.7445 101.971H42.8142L43.1379 103.337L46.6515 103.46L47.2057 104.697L50.9344 104.709L51.1573 106.038L53.6805 106.131L54.1515 107.407H57.9305V108.767H62.0003L62.2135 110.106L66.2639 110.125C66.2774 110.597 66.1127 111.17 66.5526 111.487H70.3317V112.849L73.0565 112.932L73.2387 114.207H77.3084V115.567H80.0216V116.927H84.0914L84.2871 118.285L86.8181 118.37L87.0003 119.645H91.0701V121.005H95.1398L95.322 122.279H97.6728L97.853 121.003L99.1902 120.983L99.4131 119.654L101.913 119.635L102.134 118.304L103.388 118.104L103.473 116.925H106.186L106.367 115.65L107.543 115.567V114.205L108.814 114.024L108.9 112.845H111.613L111.698 111.666L112.969 111.483L113.19 110.15L114.436 109.943L114.52 108.763H117.041L117.124 107.586L118.388 107.396L118.615 106.263L119.766 106.154L119.946 104.88L121.275 104.658L121.322 103.537L124.016 103.325V101.964L125.372 101.966V100.604H128.084L128.169 99.4245L129.442 99.2438L129.525 98.0645L130.799 97.8839L130.979 96.6075L133.512 96.5239L133.595 95.3447L134.849 95.1446C134.923 93.9284 135.246 93.8429 136.409 93.7944L136.599 92.5277L139.132 92.4442V91.0823L140.403 90.9016L140.487 89.7224L143.02 89.6388L143.2 88.3624L144.378 88.2789L144.739 86.8937L145.917 86.8102L146.097 85.5338L148.63 85.4503V84.0884L149.998 84.0049L150.179 82.7285L151.452 82.5478L151.535 81.3685L154.068 81.285L154.248 80.0086L155.522 79.8279L155.605 78.4544L156.743 78.4292L156.963 77.0964H159.677L159.762 75.7249L161.035 75.5442V74.1823H163.746L163.832 72.8107L165.105 72.6301L165.188 71.4489L166.57 71.0875L166.653 69.9063H167.818L168.012 66.9941H170.725L170.737 66.998Z" fill="#1180F6"/>
<path d="M154.652 21.5375C154.779 21.5433 154.911 21.5277 155.039 21.5375L155.221 22.8138L158.723 23.0917V24.4535H162.597L162.576 25.9864L158.721 26.2001L158.5 27.729L154.781 27.7484L154.458 29.1142L151.936 29.2094L151.237 30.4508L147.605 30.5013L146.971 31.8088L143.729 31.8612L143.095 33.1687L140.051 33.1862L139.413 34.3343L136.617 34.4451L136.436 35.7215C134.958 35.9507 131.927 34.8667 132.367 37.2757L129 37.3009L128.502 38.7444L125.57 38.9134L125.39 40.1898L121.636 40.2151L121.347 40.5084L121.235 41.5614L117.566 41.7693L117.068 43.2127L114.716 43.3798C114.405 43.6071 114.84 44.8505 113.469 44.8505H110.272V46.2123L106.714 46.4319L106.08 47.7393L102.529 47.7743L102.202 49.142L99.2523 49.346L99.0295 50.6787L95.2911 50.8691L94.952 52.2251L91.4035 52.262L91.1147 52.5554L91.0023 53.6084L87.3337 53.8162L86.8357 55.2597L83.6516 55.3704C83.1651 55.5298 83.3589 56.2855 83.3357 56.7051L80.357 56.7304L80.0682 57.0237L79.9558 58.0767L76.2872 58.2846C75.731 58.4128 76.0895 59.4735 75.9597 59.6076L71.919 59.831L71.8725 60.8529L71.5799 61.1443C70.2078 61.597 67.1884 60.1166 67.6361 62.7276L63.3802 62.7179L62.8609 61.1987L59.3008 61.1734V59.8116C59.8822 59.8349 61.7155 59.9126 62.0954 59.6387L62.2078 58.2574H64.9209V56.7012C65.3705 56.6915 65.826 56.7148 66.2775 56.7012C67.1787 56.676 68.0895 56.7187 68.9926 56.7012V55.3394H73.0605V53.7852H77.0333L77.293 53.4646L77.324 52.231H81.3938V50.6768H85.4636V49.3168C86.8589 49.2702 88.1399 49.1323 89.5314 49.3168L89.7271 47.7646H93.7969V46.2104H97.8667C97.5333 44.0617 99.3202 44.7436 100.776 44.6581V43.102H104.843V41.7421H108.913V40.1879H113.177V38.6337H117.247V37.2737H121.026L121.285 36.9532L121.316 35.7195H125.386V34.1653H129.65V32.6111H133.719V30.4741H137.789C137.81 30.0564 137.622 29.3007 138.107 29.1414L141.861 29.1161C141.896 28.5838 141.673 27.9291 142.152 27.56H146.124V26.0058H150.194V24.6459H154.458C154.512 24.201 154.367 23.6415 154.462 23.2257C154.498 23.0703 154.818 23.1713 154.863 22.8119C154.911 22.4098 154.855 21.9008 154.652 21.5375Z" fill="#9B135E"/>
<path d="M33.1386 93.8079C33.1967 93.8002 33.4777 94.078 33.5242 94.0022L33.6173 80.98L34.1095 80.8867C34.3673 82.9713 36.7122 81.5317 38.0533 81.9844L38.3731 82.9324L38.563 82.7343C39.3847 83.5774 40.3149 82.6332 41.2897 83.014L41.47 84.2885H44.1832V85.8446L47.0882 85.6503V87.0103H50.9661V88.3721L53.4584 88.3974L53.7084 89.903C53.8188 89.9885 53.9952 89.8952 54.0688 89.9244C54.7723 90.21 56.0165 90.0274 56.1754 90.142C56.2161 90.1731 56.375 90.7947 56.5882 91.09C56.6347 91.1541 56.718 91.2474 56.782 91.2843C57.8421 91.8963 60.4293 91.1095 61.7084 91.6496L61.8227 92.45L62.0146 91.6729C62.1386 91.9876 62.218 92.4538 62.4021 92.6442C62.9506 93.2115 66.2335 92.5393 67.127 92.8618C67.5107 92.9998 67.3459 93.5185 67.6347 93.8099C68.1076 94.2859 70.8808 93.8585 71.7064 94.0022V95.3641H75.7742L75.9564 96.6385L78.6832 96.7221C78.72 97.2058 78.5146 97.7168 78.877 98.0839C79.3518 98.5657 81.4835 98.1072 82.2452 98.3015C82.5494 98.4123 82.5475 98.9251 82.7529 99.2496C82.7801 99.2904 82.908 99.4205 82.9467 99.4439C83.7859 99.9412 85.7742 99.4808 86.8227 99.6381C86.8111 99.7644 86.8401 99.9004 86.8227 100.027C86.8188 100.054 86.5494 100.198 86.6308 100.413L86.8227 100.027L87.1328 100.625L91.0863 100.608V102.164L92.4428 102.162C92.4467 103.454 92.4351 104.755 92.4428 106.049L88.4971 106.216C88.0107 106.057 88.2045 105.301 88.1812 104.882L85.6463 104.8L85.1502 103.549L81.3847 103.438L81.2045 102.162L77.4506 102.137L76.8169 100.829L73.0649 100.802L72.8421 99.4691L70.3498 99.4439L70.1696 98.1675L66.408 98.0917L65.7723 96.7473L62.3363 96.6949C61.8498 96.5356 62.0436 95.7798 62.0204 95.3602H59.3072C59.4273 95.0183 59.1715 94.0022 58.8227 94.0022H55.2374V92.6423H50.9739C50.9525 92.2246 51.1405 91.4689 50.656 91.3096L47.0863 91.1969L46.906 89.9205H42.8363L42.6153 88.5878L40.1134 88.2789L39.9273 87.0083H36.1483L35.8576 87.2997V92.6423H34.6928C34.8052 93.4466 34.4021 94.5501 34.9855 95.1679H38.7646V96.5278H43.0281C42.7006 98.5832 45.5979 97.6915 46.8944 97.8974L47.1173 99.2263L51.158 99.2554C50.968 101.449 53.8401 100.355 55.2374 100.606C55.2607 101.025 55.0669 101.779 55.5533 101.94L59.3169 102.053L59.4971 103.329L63.251 103.355L63.8847 104.662L67.5204 104.676L68.1502 106.02L71.5843 106.074C72.0708 106.234 71.877 106.99 71.9002 107.409H75.9719L76.1522 108.684L78.6851 108.767C78.7083 109.187 78.5146 109.941 79.001 110.102L82.6308 110.154L83.127 111.405L85.6618 111.487L85.6715 112.645L89.7316 112.847L89.9118 114.123L92.4428 114.209C92.4564 114.58 92.3615 115.141 92.439 115.44C92.4971 115.662 92.8111 115.545 92.8304 115.569C92.8518 115.594 92.8053 115.773 92.9022 115.881C93.0301 116.025 93.3091 116.064 93.3789 116.274C93.5145 116.682 93.3653 117.263 93.4099 117.706L92.4409 117.123C92.4409 117.059 92.4448 116.993 92.4409 116.929C92.4332 116.8 92.4525 116.668 92.4409 116.54C91.8401 116.458 90.9932 116.676 90.4409 116.505C90.1153 116.404 89.9758 115.977 89.7258 115.763C89.658 115.705 89.5901 115.602 89.532 115.569C88.6928 115.083 87.1618 115.547 86.1677 115.347L85.9332 115.192C86.0262 113.523 84.4952 113.803 83.2568 113.832L82.749 113.041C82.7413 112.977 82.7549 112.911 82.749 112.847C82.4835 112.282 79.7045 112.503 79.0669 112.456C79.0863 110.543 77.4099 111.326 76.2994 111.091C76.2684 111.085 75.7859 110.739 75.7723 110.71C75.718 110.589 75.9022 110.178 75.6677 110.115L71.7025 110.129V108.767L68.9138 108.55L67.6347 108.184C67.6173 107.914 67.7413 107.584 67.4409 107.407C66.6948 106.696 63.8615 107.984 63.7568 106.537L63.5649 107.019C63.4661 106.768 63.3072 106.589 63.3576 106.257L60.8382 106.156L60.658 104.685H56.5863C56.5494 104.206 56.7549 103.693 56.3925 103.327C55.9157 102.844 53.7897 103.308 53.0262 103.108L52.1928 101.806C51.251 101.62 50.0107 101.942 49.1173 101.779C48.594 101.684 48.7781 101.099 48.251 101.192C48.2413 100.998 48.2568 100.804 48.251 100.61L44.8847 100.39C44.4487 100.293 44.6715 99.6673 44.532 99.475C44.4545 99.3681 44.249 99.4711 44.1812 99.4419C43.2936 99.0786 42.4215 99.3001 41.468 99.2496C41.4312 98.7678 41.6366 98.2549 41.2742 97.8877C40.7239 97.3301 37.4913 97.9771 36.5572 97.6643C36.2064 97.5458 36.1832 96.9882 35.8479 96.7221C35.22 96.2267 32.7025 96.6871 31.7781 96.5278L31.7878 95.2883C31.7413 95.0513 31.4894 95.2067 31.3925 95.1679C30.2684 94.7191 29.1521 95.2145 28.2258 94.9833C28.0262 94.9328 28.0262 94.4471 27.7103 94.1965C27.1308 93.738 25.5824 94.1285 24.8014 94.0042V92.6423H20.7335V91.0862H19.377L19.5591 89.6155L20.7355 89.532V88.1701H23.4467C23.2665 86.7422 23.7064 86.7091 24.9971 86.8102C25.0146 87.2609 24.9719 87.7213 24.9971 88.1701C25.0049 88.2944 24.9642 88.4226 25.0049 88.547L25.8847 88.7393C25.8537 89.7962 26.2917 90.074 27.3111 90.1226L27.3227 91.0862C27.4506 91.0959 27.5824 91.0764 27.7103 91.0862C28.0165 91.1056 28.3363 91.0007 28.5863 91.2746L29.0552 92.7472C30.1056 92.8307 30.563 93.0367 30.4235 94.1926C31.3925 94.4957 32.4118 93.8954 33.1366 93.8041L33.1386 93.8079Z" fill="#BCBCBC"/>
<path d="M92.4412 114.206L89.9102 114.121L89.7299 112.844L85.6699 112.642L85.6602 111.485L83.1253 111.403L82.6292 110.152L78.9993 110.099C78.5129 109.94 78.7067 109.184 78.6834 108.765L76.1505 108.681L75.9703 107.405H71.8986C71.8753 106.987 72.0691 106.233 71.5827 106.074L68.1486 106.02L67.5187 104.675L63.8831 104.662L63.2493 103.354L59.4955 103.329L59.3152 102.052L55.5517 101.94C55.0652 101.78 55.259 101.025 55.2358 100.605C53.8385 100.355 50.9664 101.448 51.1563 99.2549L47.1156 99.2258L46.8927 97.8969C45.5962 97.6891 42.6989 98.5827 43.0265 96.5273H38.7629V95.1674H34.9838C34.4024 94.5496 34.8055 93.4461 34.6912 92.6398H35.8559V87.2992L36.1466 87.0078H39.9257L40.1117 88.2784L42.6137 88.5873L42.8346 89.92H46.9044L47.0846 91.1964L50.6544 91.3091C51.1389 91.4684 50.9509 92.2241 50.9722 92.6418H55.2358V94.0017H58.821C59.1699 94.0017 59.4257 95.0178 59.3055 95.3616H62.0187C62.042 95.7793 61.8482 96.5331 62.3346 96.6944L65.7706 96.7468L66.4063 98.0912L70.1679 98.167L70.3482 99.4434L72.8404 99.4686L73.0633 100.801L76.8152 100.829L77.4489 102.136L81.2028 102.161L81.383 103.438L85.1486 103.548L85.6447 104.8L88.1796 104.881C88.2028 105.301 88.009 106.055 88.4955 106.216L92.4412 106.049C92.4548 108.759 92.3462 111.502 92.4412 114.208V114.206Z" fill="#FEFFFF"/>
<path d="M136.24 67.1916L136.06 68.468L134.883 68.5515V69.9134L132.546 69.9969L132.364 71.2714L131.034 71.4928L130.827 72.742L128.294 72.8256L128.269 74.1583L126.955 74.3953C127.056 76.2468 126.168 75.4463 125.672 75.9262C125.414 76.1768 125.405 76.7422 125.379 77.0899L122.854 77.1832L122.356 78.6266L119.959 78.6519V80.0137L118.687 80.1944L118.604 81.3737C117.941 81.4242 116.189 81.123 115.922 81.8963C115.839 82.1391 115.963 82.5685 115.862 82.7103C115.796 82.8035 115.575 82.7025 115.503 82.7317L114.362 83.0231C114.36 83.0677 114.534 83.1027 114.534 83.1202C114.532 83.3067 114.563 83.5379 114.534 83.703C114.23 83.8274 113.151 83.9478 113.021 84.1304C112.912 84.2839 112.976 84.7521 112.852 85.0202C112.728 85.2883 112.298 85.2203 112.403 85.6458C111.92 85.6555 111.313 85.6982 110.852 85.6458C110.79 85.638 110.548 85.331 110.273 85.4515L109.689 87.0057C109.561 87.0096 109.428 87.0154 109.302 87.0057C109.271 87.0038 109.106 86.7259 108.916 86.8114C108.893 88.3579 108.22 87.8935 107.637 88.3481C107.344 88.5754 107.358 89.2457 106.98 89.438L104.831 89.6148C104.554 89.8188 104.742 90.4832 104.478 90.8154C104.215 91.1476 103.596 91 103.389 91.2778C103.218 91.5051 103.269 92.1812 102.906 92.4454C102.434 92.4143 101.6 92.3774 101.162 92.4454C100.29 92.5794 100.627 93.3701 100.348 93.5741C100.156 93.714 99.484 93.5916 99.2689 93.8519C99.108 94.0462 99.1991 94.5572 98.8348 94.8719C98.5499 95.1167 97.984 95.105 97.9026 95.2002C97.8309 95.2838 97.6642 96.4475 97.4801 96.7194C97.2475 96.7622 96.9433 96.6806 96.7049 96.7194C96.4801 96.397 95.3483 96.4552 95.141 96.6087C94.9065 96.7816 95.0208 97.2809 94.8658 97.5024C94.6778 97.7705 94.0382 97.4985 94.1855 98.0774C92.9142 98.126 91.5828 98.1046 90.3096 98.0774L89.7146 96.5388C89.3677 96.3212 88.889 96.7097 88.7592 96.7175C88.1836 96.7525 87.5925 96.6981 87.015 96.7175C86.765 96.3969 86.2514 96.6048 85.9278 96.3503C85.5789 96.0764 85.7766 95.3401 85.3444 95.1886C84.9724 95.0584 83.5382 95.0739 83.141 95.3595C82.7572 95.344 82.36 95.3925 81.9782 95.3595L81.4084 93.8908C80.7359 93.5994 79.3134 94.1103 78.858 93.5333L78.6836 91.2797H81.3968V89.9198H85.4665V88.558L88.1913 88.4744L88.3716 87.198L90.9045 87.1145L91.0848 85.8381L93.6177 85.7546L93.7999 84.4801H96.5131V83.1202H100.583L100.765 81.6515L103.492 81.5679L103.513 80.4217C104.736 79.9846 105.967 80.6238 107.244 80.3731L107.534 80.0817L107.56 78.8442H110.275L110.455 77.3755L114.224 77.3017L114.546 75.9398L117.067 75.8446L117.249 74.3759H121.125V73.016H124.032V71.4618H126.746V70.1018H129.459V68.5476H133.529V67.1858C133.624 67.0886 135.775 67.2538 136.242 67.1858L136.24 67.1916Z" fill="#0690DB"/>
<path d="M18.0232 61.1692C18.029 60.7127 18.2906 60.2114 18.0232 59.615H15.31L15.1278 58.1463L12.6801 57.8801L12.5968 55.1467H11.2383V46.4062H13.7596L13.7577 47.7681L16.4844 47.8517L16.6646 49.3223L18.9922 49.4175C19.5018 49.6662 19.3836 50.4044 19.3778 50.8765L23.4495 50.6803V52.2364L24.7131 52.4249L24.9999 53.7887L28.7906 53.9694L29.1646 55.3429H33.1375V56.8971H35.8507V58.257C37.1782 58.1618 37.3429 58.5523 37.5813 59.7277L39.9321 59.8967L40.122 61.1634L43.9611 61.3926L44.1821 62.7253H46.8953L46.9166 64.0639L49.5891 64.299L49.8119 65.6278C51.3332 65.9192 54.31 64.6992 53.872 67.1937L56.2693 67.2189L56.7674 68.6624L59.3003 68.7459V70.1078H64.5309V65.8337C63.5794 65.688 61.7984 66.1213 61.0425 65.6395H64.9185V80.4044H66.2751V83.1242H62.2053V82.9299C62.2267 82.8114 62.1898 82.6657 62.2053 82.5414C62.6743 83.3535 64.9708 82.7454 65.8894 82.9319V80.6006L60.6549 80.4063V78.8502H57.0716L56.5871 77.296H53.8739V75.936H49.8042L49.622 74.4673L47.0891 74.3838L46.9088 73.1074L44.3643 72.9384L44.184 71.4677L41.6511 71.3842L41.4708 70.1078C40.6394 70.2652 39.8294 69.9329 39.0561 69.9057C38.7945 69.898 37.3991 70.4031 37.3991 69.8164V66.1252C37.3991 65.9231 36.8197 65.1227 37.0096 64.6662H36.4301C36.7402 66.0688 35.3856 65.9076 35.1608 66.2126C34.936 66.5176 34.9166 67.9727 34.8604 68.4429L34.684 68.5517V65.6356L35.9553 65.4549L36.0387 64.0814H37.3972V65.6375H41.467V62.7234H38.7538V61.1673C37.4805 61.1109 35.8933 61.6258 36.0329 59.817L34.684 59.8073V58.2551H30.4205V56.6989L28.0871 56.6096L27.6995 55.1545L23.7635 55.3215L23.4728 55.0223L23.4456 53.7868H18.0193L18.2015 55.2555L20.7325 55.341V58.2551H19.3739L19.3759 61.1711H18.0174L18.0232 61.1692Z" fill="#FEFFFF"/>
<path d="M154.457 32.222C155.066 31.4877 156.734 31.4566 157.657 31.6373C158.399 31.783 158.496 33.6461 158.037 34.1609C157.833 34.3901 157.382 34.361 157.256 34.5436C157.039 34.8603 157.326 35.5869 156.988 35.8297L153.417 35.9405C152.93 36.0998 153.124 36.8555 153.101 37.2751L149.058 37.3004L148.837 38.8293L146.304 38.9129L146.122 40.1873L142.052 40.3816V41.7434H138.857C138.713 41.7434 138.291 42.0426 137.996 41.9474L137.694 43.2976H133.721V44.6576H130.329C130.277 44.6576 129.663 44.8888 129.64 44.9723V46.2021L126.936 46.4041V47.766H122.963C122.484 48.1332 122.707 48.7879 122.672 49.3221L118.924 49.3124L118.488 50.7034C117.167 51.1017 115.919 50.4839 114.533 50.8763V52.2343H111.333C110.855 52.6015 111.078 53.2562 111.043 53.7904C109.519 53.975 107.281 52.9939 107.552 55.3427L103.8 55.3699C103.31 55.5311 103.516 56.281 103.481 56.7007L99.4109 56.895V58.2568L96.7461 58.4958L96.5039 59.8091L92.6163 59.8946L92.4361 61.1709L89.9031 61.2545L89.7229 62.7251L85.969 62.7504C85.5233 62.8922 85.7326 63.4226 85.6182 63.7587C85.3353 64.5921 82.3837 64.1725 81.593 64.2891L81.3702 65.6179L78.8702 65.6373L78.6899 67.108L74.7267 67.1818L74.4031 68.5417L70.5368 68.7477V70.1095C70.3043 70.3446 67.9147 69.6646 67.6299 70.4961C67.6357 68.8798 67.626 67.2556 67.6299 65.6393H70.343V64.0851H74.4128L74.4438 62.8514L74.7035 62.5309H78.6764V61.169L81.2074 61.0855L81.3895 59.6167H85.4593V58.2568H89.5291V56.7007C90.593 56.6793 91.6686 56.7337 92.7345 56.7007C93.0155 56.6929 93.2849 56.5122 93.405 56.5064C93.4302 56.5064 93.6143 56.7687 93.7907 56.7007V55.7293C93.9729 55.5447 96.3275 56.0887 96.6996 55.3427C96.7636 55.3349 96.8295 55.3485 96.8934 55.3427L97.312 54.2081L100.576 53.7885L100.767 52.2324L104.521 52.2071L104.812 51.9157L104.837 50.6782H108.326L108.519 49.7087C108.508 49.9283 108.374 50.7015 108.711 50.6782C108.729 49.0016 111.016 49.9691 112.089 49.7184C112.322 49.6874 112.159 49.3959 112.202 49.3202C112.264 49.2094 112.285 49.1881 112.395 49.1259C112.703 48.953 112.829 49.3085 112.868 48.341L113.099 48.1798C113.855 47.9952 115.081 48.3371 115.756 48.1584C115.971 48.1001 115.86 47.7912 115.884 47.766C115.907 47.7407 116.149 47.8262 116.225 47.7291C116.393 47.5154 116.114 46.8101 116.562 46.6003H119.76C119.802 46.2584 119.322 46.4158 119.083 46.406C118.368 46.3769 117.649 46.4332 116.934 46.4138C116.674 46.408 116.508 46.2157 116.465 46.2118H119.762L119.76 44.6556L123.444 44.4633L123.62 44.6576C123.748 42.8353 125.901 44.3273 126.545 43.2976C126.872 42.775 126.727 42.3476 126.738 41.7434H130.711C131.19 41.3763 130.967 40.7216 131.002 40.1873C131.874 40.0435 134.49 40.469 135.072 39.995C135.302 39.8065 135.273 39.3539 135.581 39.2412C136.552 38.8857 139.023 39.9037 138.754 37.6617L141.853 37.4655C141.899 37.1275 141.413 37.2829 141.178 37.2732C140.341 37.2421 139.393 37.2324 138.56 37.2732L141.857 37.0808V35.719H145.828L146.087 35.3984L146.118 34.1648H150.188V32.8049C150.952 33.0535 153.816 33.2303 154.277 32.7174C154.421 32.5581 154.403 32.2803 154.452 32.2201L154.457 32.222Z" fill="#BCBCBC"/>
<path d="M81.9762 95.3614C81.7882 95.3459 81.5925 95.4022 81.4065 95.3517L81.0712 94.188L77.5053 93.918L77.3251 92.6416L74.5964 92.56L74.1255 91.2836H69.1836V89.9217L71.5227 89.8382L71.8832 88.453L75.4549 88.5366C75.9413 88.3773 75.7476 87.6215 75.7708 87.2019L78.4975 87.1184L78.6778 85.842L82.4317 85.8167L82.8619 84.6549L85.4646 84.484V83.1221H89.5324C89.2301 81.0337 90.7766 81.6612 92.2185 81.5407L92.4413 80.208L94.9724 80.1225L95.1623 78.8558L99.2243 78.6538L99.4045 77.3774L101.936 77.2919L102.158 75.9611L105.978 75.7125L106.201 74.3797L110.089 74.2943L110.29 73.0373L112.984 72.8255L113.164 71.5492L115.515 71.3801L115.889 69.9095H119.765V68.5476C120.939 68.4777 122.984 69.0352 122.672 67.1877L126.56 67.1041L126.74 65.6335L129.343 65.4625L129.637 64.1648L133.538 63.9958L133.718 62.7194L136.058 62.6358L136.459 61.1904L140.321 61.0797L140.501 59.609L143.034 59.5255L143.215 58.2491L147.104 58.1656L147.284 56.6949C148.459 56.625 150.505 57.1825 150.191 55.3369H152.905V56.6949L151.573 56.9164L151.521 57.9305L151.228 58.2219L148.821 58.3346L148.641 59.8052L147.368 59.9859L147.284 61.1652L144.751 61.2487L144.571 62.7194L141.672 62.7271C141.897 63.8617 140.87 63.7684 140.499 64.1745C140.246 64.4523 140.346 64.8778 140.129 65.1633C139.656 65.785 138.554 65.14 138.951 66.7991C138.3 66.8555 137.552 66.7078 136.92 66.8069C136.515 66.871 136.277 67.1819 136.238 67.1857C135.771 67.2518 133.62 67.0886 133.523 67.1857V68.5476H129.455V70.1018H126.742V71.4617H124.029V73.0159H121.122V74.3759H117.246L117.063 75.8446L114.542 75.9398L114.22 77.3016L110.451 77.3755L110.271 78.8461H107.556L107.53 80.0817L107.24 80.3731C105.965 80.6237 104.732 79.9826 103.509 80.4217L103.488 81.5679L100.761 81.6515L100.579 83.1202H96.5092V84.4801H93.796L93.6138 85.7545L91.0809 85.8381L90.9006 87.1145L88.3677 87.198L88.1875 88.4744L85.4607 88.5579V89.9198H81.3929V91.2797H78.6797L78.8541 93.5333C79.3096 94.1123 80.732 93.5994 81.4045 93.8908L81.9743 95.3595L81.9762 95.3614Z" fill="#1180F6"/>
<path d="M165.309 44.6562V46.2085L163.978 46.43L163.77 47.6792L159.966 47.9453L159.592 49.3188H155.813V50.6788H151.55V52.2349L148.825 52.3185L148.645 53.7891H144.573L144.489 55.1607L141.889 55.3686L141.666 56.7013L138.177 56.7984C137.668 57.0471 137.786 57.7854 137.792 58.2574H134.883L134.703 59.7262L131.327 59.8388C130.84 59.9981 131.034 60.7539 131.011 61.1735L127.509 61.257L127.329 62.7277L124.214 62.8112L124.034 64.0876L121.152 64.3072L121.125 65.6399H117.249V67.0018L114.524 67.0853L114.344 68.556H110.272L110.092 70.0247L107.559 70.1082V71.4701H104.17C103.584 71.4701 103.501 72.56 103.482 73.0146L100.958 73.1078L100.393 74.4833L97.0263 74.6057L96.5302 75.8568L94.191 76.0375C93.6852 76.2842 93.7976 77.0127 93.8054 77.4965L90.0515 77.5217C89.5651 77.681 89.7589 78.4368 89.7356 78.8564C88.2821 78.9419 86.4934 78.26 86.8286 80.4106L83.2686 80.4359L82.8558 81.5743C82.0825 82.3514 81.0224 81.38 80.0709 81.9901L79.9314 83.1518L76.1542 83.4083L75.7938 84.6011L73.3848 84.7119C72.9333 84.8634 73.0806 85.4715 73.067 85.8523L70.3752 86.066L70.3558 87.0199L67.9643 87.1966L67.6329 88.3701C64.4023 88.407 61.1814 88.8111 57.9507 88.3798L57.7705 87.1034L55.2395 87.0199C55.7763 84.8984 52.817 85.9533 52.5321 85.6522C52.4624 85.5783 52.6426 85.0227 52.3364 84.7799C51.8635 84.401 50.3965 84.6011 49.7996 84.4088L49.6193 83.1324H45.5476L45.3674 81.858L42.8345 81.7744V80.4126L40.4391 80.3873L39.941 78.9438L37.2143 78.8603L37.0341 77.5839L34.6949 77.5004L34.6116 76.1269L33.1445 75.9462V74.5863H35.8596L36.0728 75.9248L40.1232 75.9442L40.3034 77.2206L42.6542 77.3896L43.1523 78.8331L46.9062 78.8584L47.0864 80.1347L49.7279 80.4009L49.8131 81.7725H52.5263V83.1343L57.9546 83.3267C57.9779 83.7463 57.7841 84.5001 58.2705 84.6614L68.5147 84.6886C69.2918 84.708 68.8848 83.4452 68.9972 83.3267L72.8868 83.2431L73.2879 81.7977L77.1387 81.7725L77.222 80.5932L79.8538 80.125L80.0418 78.8564L83.9314 78.7729L84.3054 77.3022H88.1813V75.9403L90.9081 75.8568L91.2705 74.4716L94.2027 74.3026L94.3829 73.0262L97.691 72.9427L98.1891 71.4992L101.759 71.3885L101.939 70.1121L104.517 69.9237L104.856 68.5676L108.121 68.5365L108.464 67.1883L111.449 66.9182L111.629 65.6418L114.162 65.5583L114.633 64.0876H118.412V62.7277H122.191L122.703 61.1988L125.208 61.09L125.476 59.9981C126.637 59.3531 128.017 59.7844 129.276 59.5338L129.484 58.2866C129.796 57.7737 132.486 58.5819 133.152 58.1758L133.515 56.7907L136.253 56.6216L136.751 55.1782L140.185 55.1238C140.672 54.9645 140.478 54.2087 140.501 53.7891L144.367 53.5871L144.377 52.2349L147.104 52.1514L147.284 50.6807H151.354C151.319 50.0921 151.371 49.5326 151.838 49.1285H154.842V47.7685H158.04C158.453 47.7685 158.637 46.5835 158.522 46.2124L162.083 46.1871L162.594 44.6601H165.307L165.309 44.6562Z" fill="#9B135E"/>
<path d="M162.597 53.3981C162.826 53.062 162.777 52.689 163.084 52.4268L163.566 52.7182V56.7008H162.595L162.597 58.257L161.221 58.5289L161.047 59.8131L158.514 59.8966L158.334 61.173L157.06 61.3537L156.977 62.7272C155.696 62.803 154.02 62.1988 154.26 64.0833L152.933 64.3067L152.725 65.5559L150.192 65.6394V67.0013L149.018 67.0848L148.657 68.47L146.113 68.639L145.933 69.9154L144.795 69.9407L144.545 71.2423C143.243 71.4696 143.398 71.5395 143.198 72.8081L140.822 72.8567C140.336 73.016 140.527 73.7718 140.506 74.1914L139.233 74.3721L139.148 75.7436H136.434V77.1055L133.903 77.1891L133.723 78.6597L132.547 78.7432L132.365 80.0177L131.035 80.2392L131.01 81.3796L128.477 81.4631L128.297 82.7395L127.119 82.8211C127.024 84.7871 125.411 83.4952 125.363 85.4321L122.857 85.5429L122.677 87.0135L121.5 87.0971L121.32 88.3735L120.144 88.457L119.936 89.7062L117.431 90.0112L117.25 91.2876L115.977 91.4683L115.894 92.6475L113.361 92.731L113.181 94.0074L112.002 94.089L111.642 95.2819L109.097 95.4509L108.917 96.7273L107.644 96.908L107.56 98.0872L105.027 98.1707L104.847 99.4471L103.574 99.6278L103.491 100.807H102.132L102.134 102.167L100.956 102.249L100.46 103.5L98.0643 103.527L97.8434 104.86L96.6922 104.968L96.512 106.051H95.543V101.291C95.9015 100.667 97.5895 101.201 97.8647 100.99C97.9112 100.869 97.8395 100.704 97.8686 100.611C98.0061 100.168 98.0895 99.7211 98.0623 99.2509C99.5468 99.5112 99.0372 98.9653 99.5139 98.4758C100.02 97.957 101.252 98.1999 100.776 96.533L103.469 96.5116C103.524 95.5344 103.894 95.3518 104.838 95.3576L104.929 93.9919C105.351 93.7801 105.717 93.8054 106.202 93.6169C106.824 93.376 106.427 93.3508 106.903 92.8632L108.915 92.6456L109.109 91.0914C110.615 91.34 110.086 90.798 110.781 89.951L113.06 89.7509C113.206 88.2025 113.715 88.8281 114.264 88.3929C114.502 88.2044 114.683 87.099 115.248 86.8193L116.378 87.2214C116.516 87.0155 117.169 86.8154 117.198 86.7785C117.357 86.5842 117.225 85.912 117.487 85.6944C117.69 85.5254 118.355 85.5837 118.607 85.3622C118.989 85.0261 118.549 84.1111 119.733 84.2607L119.948 82.823L122.673 82.7375V81.3757L124.029 81.3776V80.0157H126.741V78.4596L128.099 78.4615V77.0997H130.81L130.983 75.6582L132.279 75.3609L132.351 74.2769L134.859 74.1661L135.074 72.6352H136.431V71.2734H139.144V69.7172L140.502 69.7192V68.3573L141.859 68.3593V66.9974H144.57C144.535 65.5967 145.026 66.0318 145.62 65.6239C146.122 65.28 145.892 64.6233 145.927 64.0833H148.64V62.7233L150.008 62.6398L150.19 61.1711H152.903V59.8092L154.175 59.6285L154.26 58.257H156.973C156.89 57.0641 157.151 56.7727 158.308 56.6814L158.413 55.7197C159.702 55.3778 159.752 55.3681 159.9 54.0043C160.865 53.8663 161.952 54.3443 162.593 53.402L162.597 53.3981Z" fill="#BCBCBC"/>
<path d="M11.0472 59.0326C10.989 57.6067 10.5956 58.5392 9.71578 57.7446L9.60726 55.3278L8.53943 55.1335L8.33594 44.8506C8.63245 44.8506 9.71578 44.7748 9.8495 44.6174C9.98322 44.4601 9.88826 43.6771 10.1169 43.5237C10.3224 43.3857 10.9193 43.6072 11.022 43.172L11.0452 41.7383H12.5976L12.7894 43.2925L16.1673 43.4732C16.2042 44.1065 16.6441 44.0307 16.6654 44.0696C16.7197 44.1648 16.5356 44.6019 16.77 44.6641L19.3573 44.6718L19.5724 46.2027H22.2855C22.4076 46.3251 22.0317 47.7084 22.5762 47.9531H25.7739V49.1188H28.8747L28.9018 50.6458L31.5995 50.9527L31.7817 52.2272H34.6887V53.9776C36.0065 54.1408 37.0801 53.3618 37.4018 54.947L37.21 55.2365L37.4018 55.3356H37.5956C38.9697 56.2739 41.0956 54.6129 41.2642 57.0005L43.6169 57.3619C43.8243 58.9763 45.0685 58.5314 46.3301 58.7218L46.5123 59.6116C47.0976 59.7825 46.9173 59.019 46.898 58.6383L47.0918 59.6096H51.1615L51.1867 61.1366L53.679 61.3581C53.4115 63.3145 55.2991 62.6073 56.5879 62.718V64.0799H60.6557C60.6867 64.7346 60.4309 65.2436 61.0433 65.6341C61.7991 66.1159 63.5801 65.6827 64.5317 65.8284V70.1024H59.2991V68.7406L56.7662 68.657L56.2681 67.2136L53.8708 67.1883C54.3107 64.6938 51.334 65.9139 49.8107 65.6224L49.5879 64.2936L46.9154 64.0585L46.8941 62.72H44.1809L43.96 61.3873L40.1208 61.158L39.9309 59.8913L37.5801 59.7223C37.3418 58.545 37.177 58.1545 35.8495 58.2517V56.8917H33.1363V55.3375H29.1635L28.7894 53.964L24.9987 53.7833L24.7119 52.4195L23.4464 52.2311V50.6749L19.3766 50.8711C19.3825 50.3991 19.5007 49.6608 18.991 49.4121L16.6635 49.3169L16.4832 47.8463L13.7565 47.7627V46.4009H11.239V55.1433H12.5976L12.6809 57.8748L15.1286 58.1409L15.3107 59.6096H18.0239C18.2914 60.2061 18.0297 60.7073 18.0239 61.1638C18.0239 61.2279 18.0239 61.294 18.0239 61.3581C17.5239 61.9137 18.0801 63.161 17.739 63.6952C17.2933 64.3946 16.8766 63.1008 16.6673 62.9123C16.5918 62.8443 16.5491 62.6967 16.3844 62.72L14.3398 62.6228C13.8166 62.3586 14.0472 61.5602 13.7604 61.1638C13.4193 60.6917 11.9968 61.2007 11.4619 60.7481C11.3805 60.276 11.4561 59.7923 11.4348 59.3143C11.4135 58.8364 11.5724 58.681 11.0472 59.0268V59.0326Z" fill="#BCBCBC"/>
<path d="M99.4178 116.343C98.662 116.724 97.9333 116.905 97.0806 116.646L96.8984 114.204L99.0438 114.121L99.2453 112.864L100.573 112.642L100.583 111.485L103.11 111.395L103.509 110.144L104.652 110.125L104.873 108.792L107.365 108.767L107.546 107.49L108.736 107.323L109.094 106.13L110.272 106.049L110.453 104.772L111.629 104.689V103.521L114.342 103.329L114.426 102.15L115.689 101.959L115.891 100.609H118.604V99.2471L119.78 99.1636L119.96 97.8872L121.234 97.7065L121.319 96.5273H124.032V95.1654L125.389 95.1674L125.408 94.0211L126.736 93.7997L126.926 92.533L129.459 92.4495L129.468 91.2916L130.794 91.0682L130.813 89.7277L131.991 89.6441L132.352 88.2589L134.885 88.1754L134.968 86.9942L136.35 86.6329L136.433 85.4517L138.945 85.442L139.166 84.1112L140.42 83.9111L140.503 82.7318L141.776 82.5512L141.862 81.3719H144.575L144.584 80.0217L145.912 79.8002L146.114 78.5433L148.647 78.4597L148.73 77.0862L150.003 76.9055L150.183 75.6291L151.36 75.5456V74.1837H154.071L154.276 72.8355L155.247 72.7383C155.544 72.5382 155.468 71.5066 155.664 71.3123C156.022 70.9568 157.108 71.4833 156.997 69.9272L159.499 69.7154L159.583 68.5362L160.846 68.3458L161.071 67.0169C161.22 66.8984 161.78 67.1413 162.121 66.8071C162.639 66.3001 161.953 65.2607 163.753 65.4316L163.941 63.9688H164.745L164.937 68.0505C164.897 68.2622 164.451 68.0505 164.15 68.3535C163.792 68.7168 164.03 69.4395 163.736 69.8805L162.598 69.9058V71.2677L159.873 71.3512L159.693 72.8219H158.334V74.1798H155.621V75.736L154.263 75.734V77.0959L152.906 77.094L152.726 78.5646L150.195 78.6501L149.974 79.9828L148.862 80.0353L148.641 81.368H147.284V82.7299H144.571V84.0918L143.234 84.1112L142.993 85.2302L140.501 85.4497L140.418 86.8233L139.145 87.0039V88.3658L137.788 88.3639V89.7257H135.077V91.0837L133.745 91.3052L133.538 92.5544L132.362 92.6379L132.181 93.9143L129.648 93.9978L129.565 95.1771L128.292 95.3578L128.112 96.6341L126.55 96.7196L126.699 97.4054L126.424 97.6619L124.302 97.8658L124.03 99.2452H122.672L122.674 100.411L119.986 100.63L119.939 101.944L118.614 102.167L118.604 103.325H117.245V104.683L115.916 104.906L115.889 106.239H113.176V107.407C112.586 107.35 112.179 107.393 111.625 107.599C111.546 107.628 111.371 107.539 111.255 107.613L111.238 108.378C110.753 108.392 110.261 108.357 109.774 108.378C109.402 108.394 108.997 108.178 109.106 108.767C109.042 108.767 108.976 108.761 108.912 108.767C108.788 108.776 108.658 108.732 108.536 108.774C108.709 109.825 108.063 109.546 107.794 109.789C107.679 109.891 107.774 110.06 107.749 110.127C107.553 110.616 107.474 110.906 107.557 111.488L106.284 111.669L106.199 112.848H103.486V114.21L102.127 114.208V115.57H99.4139C99.4062 115.829 99.4236 116.089 99.4139 116.347L99.4178 116.343Z" fill="#BCBCBC"/>
<path d="M159.884 41.7422C159.873 42.1948 159.894 42.6514 159.884 43.104C158.904 43.1973 157.77 42.801 156.975 43.4907L156.785 43.2925C156.952 45.1634 154.595 44.2678 153.38 44.4562L153.099 44.6563V46.2105H150.192L150.165 47.4461L149.874 47.7375L146.142 47.7861L145.927 49.3189H141.857V50.6788H138.078L137.818 50.9994L137.787 52.233H135.074V53.7872H131.004L130.973 55.0209L130.714 55.3414H127.128V56.7013H123.446L123.415 57.935L123.155 58.2555H119.958V59.8097H115.888L115.708 61.2785C114.849 61.6282 114.02 60.8899 113.204 61.3931L113.177 62.7239H108.913V64.0857L106.38 64.1673C106.138 64.3383 106.295 65.638 105.522 65.638H102.518C102.648 65.9566 102.89 67.1922 102.421 67.1922H99.2233V68.7464H96.5101V70.1083C95.5857 70.2656 93.0663 69.8052 92.4404 70.3006C92.1245 70.5512 92.1032 70.9961 92.0237 71.0486C91.6477 71.2933 90.1342 70.7358 89.7272 71.4662V73.0224H86.2388H85.8512C85.7253 73.036 85.5915 73.0127 85.4656 73.0224C85.4384 73.1448 85.4966 73.3177 85.4656 73.4109C84.9423 74.903 83.6206 74.0015 82.9462 74.5766C82.766 74.7301 82.8144 74.8408 82.7524 74.9651C82.5567 75.3537 82.5799 75.7558 82.171 75.9365C81.0121 75.9715 79.8415 75.9113 78.6807 75.9365V77.4927H75.7756V78.8526H71.7059V80.4068H67.6361C67.6303 79.5034 67.6458 78.5903 67.6361 77.6869L67.828 78.8545L70.0315 78.8254L70.5295 77.3819L73.0625 77.2984V75.9365H77.1303L77.3125 74.4678L79.857 74.2988L80.0373 73.0224H84.109L84.2892 71.5537L86.8222 71.4701V70.1083L89.3512 70.0228L89.7272 68.5541H92.4404V66.9999H96.5101V65.6399H100.289C100.768 65.2728 100.545 64.618 100.58 64.0838H103.683C103.696 63.6136 103.533 63.0405 103.971 62.7258H107.557V61.1697L110.088 61.0861L110.268 59.8097L114.318 59.596L114.367 58.2827L118.285 58.0341C118.772 57.8748 118.578 57.119 118.601 56.6994H122.479L122.659 55.2307L125.386 55.1471L125.374 53.9077C125.398 53.8241 126.012 53.5929 126.064 53.5929H129.456V52.233H132.847C133.648 52.233 133.791 51.3374 133.721 50.6808L136.059 50.5953L136.53 49.1246H140.502V47.7647H144.088C144.5 47.7647 144.685 46.5796 144.57 46.2086H147.283L147.597 44.6446L151.367 44.5728L151.838 43.1021H155.617V41.7402H159.88L159.884 41.7422Z" fill="#BCBCBC"/>
<path d="M22.2867 62.7236C22.2596 63.2423 22.0154 63.7416 22.0929 64.2778H24.808L24.8061 65.6397L26.0367 65.6688L26.3332 65.9467L26.1627 67.1939H29.0696V68.7481L30.4262 68.5538C30.4262 75.0912 30.4262 81.6382 30.4262 88.1775H29.0677L28.9844 86.9983L27.7111 86.8176V85.4557L26.3545 85.4577C26.2421 84.8865 26.6491 82.9651 26.0386 82.7631L23.6413 82.7359V84.0978H22.2867L22.0638 85.4305L20.7324 85.4577V62.7256H22.2847L22.2867 62.7236Z" fill="#E81A84"/>
<path d="M12.4023 37.0792C12.6756 37.0831 13.3132 37.4522 13.7609 37.2735V38.6334C13.476 38.6315 13.0923 38.8374 12.7027 38.8355C11.2454 38.8296 9.78605 38.8238 8.33256 38.8257V40.1876C7.91589 40.2109 7.16396 40.0167 7.0031 40.5043L6.94884 43.0726L5.61938 43.296V56.2134C5.69496 56.905 6.45272 56.6816 6.97403 56.699V61.1674H8.33062L8.55155 62.6944L11.0438 62.7196L11.224 64.1903L13.757 64.2738V65.6357H16.662V67.1918H18.0186V69.9117H16.6601L16.662 68.5498H15.3035L15.1233 67.0811L12.5903 66.9976V65.6357H9.87907L9.68527 64.0815H6.9721V62.7196L5.61357 62.7216V61.1654L4.25698 61.1674L4.17365 58.4339L2.90039 58.2532V43.2921C3.37132 43.2785 3.94303 43.4417 4.25892 43.0027V40.1857L5.43527 40.1002L5.63682 38.8432L8.33062 38.6315V37.2696C9.26473 37.2463 10.2105 37.3007 11.1485 37.2793C11.5884 37.2696 11.9915 37.0714 12.4004 37.0773L12.4023 37.0792Z" fill="#9B135E"/>
<path d="M34.6891 68.5515L34.8654 68.4427C34.9216 67.9726 34.9313 66.5291 35.1658 66.2124C35.4003 65.8958 36.7453 66.0687 36.4352 64.666H37.0147C36.8247 65.1206 37.4042 65.923 37.4042 66.125V69.8162C37.4042 70.403 38.7995 69.8959 39.0612 69.9056C39.8344 69.9309 40.6426 70.265 41.4759 70.1077L41.6561 71.384L44.1891 71.4676L44.3693 72.9382L46.9139 73.1073L47.0941 74.3837L49.6271 74.4672L49.8092 75.9359H53.879V77.2958H56.5922L57.0767 78.85H60.6619V80.4062L65.8926 80.6005V82.9318C64.9778 82.7452 62.6813 83.3533 62.2123 82.5413C62.0515 82.2634 62.0224 81.7739 61.9081 81.7506L57.9468 81.7642V80.4023H55.2356V78.8461C54.6232 78.7801 52.8286 79.0618 52.505 78.5237C52.2588 78.1137 52.4546 77.4882 51.6503 77.4882H48.2588V75.934H44.1891V74.574H41.4759C41.7375 74.0806 41.6232 73.4589 41.2821 73.0198L38.6891 72.8023C38.3712 72.6876 38.3945 72.1728 38.1813 71.8542C37.5379 70.8925 35.3015 72.031 34.7976 71.0693C34.2937 70.1077 34.7976 69.9464 33.1406 70.1077V68.5515H34.693H34.6891Z" fill="#BCBCBC"/>
<path d="M22.2867 61.169C22.2867 61.1437 22.089 60.9708 22.0813 60.6969C22.0406 59.3001 23.0599 60.0772 23.3661 59.6284L23.5599 58.2529H27.713L27.8933 59.7255L30.4262 59.8091V61.1709H33.1375V64.0851L31.8661 64.2677L31.7828 65.6412C31.3448 65.4644 30.6898 65.8355 30.4243 65.8335C30.2576 65.8335 29.4999 65.4294 29.0658 65.6393V64.2793H26.3545V62.7232L24.8022 62.7251V61.169H22.2848H22.2867Z" fill="#E81A84"/>
<path d="M109.109 5.60654C109.692 5.55992 112.938 5.5502 113.159 5.82024L113.469 7.16074H117.054V8.52067H120.543C120.533 9.00247 120.427 9.73294 120.93 9.97773L124.421 10.0729C124.444 10.4926 124.25 11.2463 124.737 11.4076L128.405 11.6155L128.518 12.6684L128.806 12.9618L132.173 12.987C132.186 13.4591 132.023 14.0322 132.461 14.3489H135.659V15.7088H138.857C138.927 15.7088 139.171 15.9089 139.312 15.9342L139.368 16.9444L139.661 17.2358L143.231 17.3485L143.411 18.6249L147.076 18.6424L147.605 20.1519L151.359 20.1772L151.746 21.5371C151.7 21.5371 151.539 21.8635 151.169 21.6498L150.461 20.591L147.223 20.5346C146.717 20.3617 146.816 19.4933 146.522 19.2952C146.072 18.9921 144.21 19.4175 143.359 18.9688C142.851 18.7007 142.934 18.0168 142.51 17.8769C141.57 17.5661 139.919 18.2869 139.035 17.2805C138.785 16.9949 138.762 16.4296 138.446 16.3169L135.795 16.2548L134.758 14.9628L132.306 14.8948C131.752 14.7258 131.859 13.9526 131.392 13.6748C130.51 13.1502 128.843 13.632 128.213 13.1697C127.772 12.8472 128.025 12.1905 127.595 12.0409L124.752 11.9768L123.512 10.5003C122.7 10.2517 120.679 10.8636 120.262 10.0671C120.132 9.82036 120.184 9.34051 119.975 9.18897C119.574 8.89756 117.851 9.26668 117.19 9.06658C116.568 8.87813 116.601 7.86984 116.45 7.76882C116 7.47352 113.752 8.1632 112.977 7.26759C112.797 7.05972 112.781 6.67117 112.609 6.47107C111.944 5.69591 109.347 6.73528 108.527 5.80276C108.727 5.76196 109.008 5.61626 109.109 5.60848V5.60654Z" fill="#B11521"/>
<path d="M22.2864 61.1689H24.8077L24.8058 62.7251H26.3581V64.2773H29.0713V65.6373C29.5034 65.4255 30.2612 65.8296 30.4279 65.8315V68.5514L29.0732 68.7457V67.1915H26.1643L26.3348 65.9442L26.0383 65.6664L24.8077 65.6373V64.2754H22.0945C22.019 63.7392 22.2631 63.2399 22.2883 62.7212C22.3135 62.2025 22.3019 61.6779 22.2883 61.167L22.2864 61.1689Z" fill="#E56CAE"/>
<path d="M33.1387 93.8072V80.2061H34.691V81.7622L38.4546 81.7583L38.567 82.7336L38.377 82.9317L38.0573 81.9837C36.7162 81.531 34.3712 82.9706 34.1135 80.886L33.6212 80.9793L33.5282 94.0015C33.4817 94.0773 33.2007 93.7995 33.1425 93.8072H33.1387Z" fill="#BCBCBC"/>
<path d="M109.302 87.0081C109.307 88.741 108.176 88.2203 107.794 88.605C107.625 88.774 107.689 89.6211 107.371 89.8328L105.038 89.9203L104.957 91.1014L103.868 91.3695L103.488 92.642C103.236 92.7664 102.961 92.4517 102.908 92.4478C103.271 92.1836 103.22 91.5055 103.391 91.2802C103.598 91.0043 104.216 91.15 104.48 90.8178C104.743 90.4856 104.555 89.8192 104.833 89.6172L106.982 89.4404C107.36 89.2481 107.346 88.5778 107.639 88.3505C108.222 87.8959 108.895 88.3602 108.918 86.8138C109.11 86.7264 109.273 87.0061 109.304 87.0081H109.302Z" fill="#1180F6"/>
<path d="M18.0226 80.208V88.3676H16.666V80.208H18.0226ZM16.8598 80.6937V87.6876C16.8598 88.0528 17.8288 88.0528 17.8288 87.6876V80.6937C17.8288 80.4023 16.9916 80.2352 16.8598 80.6937Z" fill="#BCBCBC"/>
<path d="M37.5976 55.3408H41.4736L41.6538 56.8095L43.867 56.9222C44.3535 57.0835 44.1597 57.8373 44.1829 58.2569H46.898C46.9077 58.3851 46.8903 58.5153 46.898 58.6435C46.9174 59.0223 47.0957 59.7858 46.5124 59.6168L46.3302 58.727C45.0686 58.5366 43.8263 58.9815 43.617 57.3671L41.2643 57.0058C41.0957 54.6201 38.9697 56.2792 37.5957 55.3408H37.5976Z" fill="#BCBCBC"/>
<path d="M101.163 92.4473L100.767 93.9937L99.5967 94.085L99.3332 95.1788L98.2421 95.4469L97.9688 96.5387C97.8564 96.731 97.6549 96.6902 97.4785 96.7233C97.6626 96.4513 97.8293 95.2876 97.901 95.204C97.9824 95.1088 98.5463 95.1205 98.8332 94.8757C99.1994 94.561 99.1084 94.05 99.2673 93.8558C99.4824 93.5954 100.155 93.7178 100.347 93.5779C100.626 93.374 100.289 92.5833 101.161 92.4492L101.163 92.4473Z" fill="#1180F6"/>
<path d="M48.255 101.19C48.7821 101.096 48.598 101.681 49.1212 101.776C50.0146 101.94 51.2569 101.617 52.1968 101.804L53.0302 103.105C53.7918 103.305 55.9178 102.841 56.3964 103.325L52.6484 103.333L52.2104 102.138L48.2569 101.965C48.2453 101.706 48.2724 101.444 48.2569 101.188L48.255 101.19Z" fill="#BCBCBC"/>
<path d="M154.264 55.3427L154.275 53.7982L155.432 53.6758C155.963 54.8628 155.644 55.5874 154.262 55.3427H154.264Z" fill="#1180F6"/>
<path d="M92.8291 115.566L93.802 115.679V118.288H92.4415C92.4338 117.902 92.4512 117.509 92.4415 117.121L93.4105 117.703C93.3659 117.26 93.5151 116.68 93.3795 116.272C93.3097 116.06 93.0307 116.023 92.9027 115.879C92.8058 115.77 92.8524 115.592 92.831 115.566H92.8291Z" fill="#BCBCBC"/>
<path d="M138.566 37.2732C139.4 37.2324 140.348 37.2422 141.185 37.2732C141.419 37.281 141.906 37.1275 141.859 37.4656L138.76 37.6618C139.028 39.9037 136.559 38.8857 135.588 39.2413C135.282 39.3539 135.311 39.8066 135.078 39.995V38.8274L138.181 38.8294V37.2732C138.309 37.2635 138.439 37.281 138.566 37.2732Z" fill="#BCBCBC"/>
<path d="M116.472 46.2104C116.515 46.2143 116.679 46.4066 116.941 46.4125C117.656 46.43 118.375 46.3736 119.09 46.4047C119.329 46.4144 119.809 46.257 119.767 46.599H116.569C116.121 46.8088 116.4 47.514 116.232 47.7277C116.156 47.8248 115.914 47.7413 115.891 47.7646C115.867 47.7879 115.978 48.0988 115.763 48.1571C115.09 48.3358 113.864 47.9939 113.106 48.1784L112.875 48.3397C112.836 49.3072 112.71 48.9516 112.402 49.1245V47.7627H115.891V46.4028L116.085 46.2085C116.212 46.2182 116.346 46.1949 116.472 46.2085V46.2104Z" fill="#BCBCBC"/>
<path d="M75.7745 110.71C75.788 110.739 76.2687 111.085 76.3016 111.091C77.414 111.326 79.0904 110.543 79.0691 112.456C79.7067 112.503 82.4838 112.28 82.7512 112.847H78.6795L78.4993 111.573C77.7008 111.37 76.8656 111.545 76.0594 111.489C75.507 111.452 75.8578 111.009 75.7745 110.71Z" fill="#BCBCBC"/>
<path d="M112.209 49.3184C112.166 49.3941 112.329 49.6875 112.096 49.7166C111.023 49.9672 108.736 48.9997 108.718 50.6763C108.383 50.6997 108.517 49.9245 108.527 49.7069C108.532 49.5787 108.517 49.4466 108.527 49.3184H112.211H112.209Z" fill="#BCBCBC"/>
<path d="M96.7047 55.3408C96.3346 56.0868 93.978 55.5448 93.7958 55.7274V56.6988C93.6195 56.7668 93.4354 56.5045 93.4102 56.5045V55.3369C93.5226 55.2184 96.1582 55.4146 96.7047 55.3369V55.3408Z" fill="#BCBCBC"/>
<path d="M126.55 43.2959C125.907 44.3236 123.753 42.8335 123.626 44.6558L123.449 44.4615V43.2939H126.55V43.2959Z" fill="#BCBCBC"/>
<path d="M87.0146 96.7222C86.9894 96.7222 86.8208 96.9223 86.5456 96.9262C84.8538 96.9554 85.7239 95.6537 84.9468 95.3934C84.5224 95.2516 83.658 95.3837 83.1367 95.3623C83.5359 95.0787 84.9701 95.0631 85.3402 95.1913C85.7743 95.3429 85.5747 96.0792 85.9235 96.3531C86.2472 96.6076 86.7608 96.3997 87.0108 96.7203L87.0146 96.7222Z" fill="#1180F6"/>
<path d="M41.2799 97.8873H35.8516V96.7217C36.1868 96.9859 36.2081 97.5454 36.5609 97.6639C37.495 97.9767 40.7295 97.3317 41.2779 97.8873H41.2799Z" fill="#BCBCBC"/>
<path d="M11.0473 59.0328C11.5725 58.6869 11.4136 58.8424 11.4349 59.3203C11.4562 59.7982 11.3787 60.2819 11.462 60.754C11.9988 61.2067 13.4194 60.6996 13.7605 61.1698L11.2295 61.0843C10.9039 60.857 11.0667 59.5165 11.0473 59.0328Z" fill="#BCBCBC"/>
<path d="M89.7285 115.761C89.9785 115.974 90.1181 116.402 90.4436 116.503C90.996 116.676 91.8429 116.456 92.4436 116.538C92.4533 116.666 92.4339 116.798 92.4436 116.926H89.7285V115.761Z" fill="#BCBCBC"/>
<path d="M96.7053 96.7217C96.3661 96.7761 95.8952 97.0637 95.3661 96.9354L95.1336 98.0622C94.8215 98.1302 94.4998 98.07 94.1859 98.0836C94.0386 97.5047 94.6781 97.7766 94.8661 97.5085C95.0212 97.2871 94.9068 96.7858 95.1413 96.6149C95.3487 96.4614 96.4805 96.4031 96.7053 96.7256V96.7217Z" fill="#1180F6"/>
<path d="M82.7528 113.041L83.2605 113.832C84.4989 113.803 86.0299 113.523 85.9369 115.192L86.1714 115.347C87.1656 115.547 88.6966 115.083 89.5357 115.569H85.464L85.466 114.207H82.7508C82.716 113.834 82.8012 113.406 82.7508 113.043L82.7528 113.041Z" fill="#BCBCBC"/>
<path d="M100.581 53.7871L97.317 54.2067L96.8984 55.3413L96.8965 53.7852L100.581 53.7871Z" fill="#BCBCBC"/>
<path d="M111.627 107.601V108.769C110.792 108.784 109.945 108.745 109.108 108.769C108.999 108.18 109.404 108.396 109.776 108.38C110.263 108.361 110.755 108.396 111.24 108.38L111.257 107.615C111.373 107.541 111.548 107.632 111.627 107.601Z" fill="#BCBCBC"/>
<path d="M56.7832 91.2822L61.8937 91.2744C62.132 91.321 61.9751 91.5717 62.0158 91.6707L61.8239 92.4478L61.7096 91.6474C60.4305 91.1073 57.8413 91.8941 56.7832 91.2822Z" fill="#BCBCBC"/>
<path d="M62.4023 92.6416H67.6368V93.8073C67.3481 93.5158 67.5128 92.9971 67.1291 92.8592C66.2357 92.5367 62.9527 93.2089 62.4043 92.6416H62.4023Z" fill="#BCBCBC"/>
<path d="M92.4417 70.3008V71.4684H89.7285C90.1355 70.736 91.6491 71.2935 92.025 71.0507C92.1045 70.9982 92.1258 70.5533 92.4417 70.3027V70.3008Z" fill="#BCBCBC"/>
<path d="M114.535 83.7051C114.504 83.878 114.541 84.0897 114.355 84.1985L113.403 84.3151L113.178 85.6459C112.922 85.6614 112.663 85.642 112.405 85.6459C112.3 85.2204 112.731 85.2904 112.855 85.0203C112.979 84.7503 112.915 84.284 113.023 84.1305C113.153 83.9499 114.232 83.8275 114.537 83.7031L114.535 83.7051Z" fill="#1180F6"/>
<path d="M44.1855 99.442C44.2534 99.4692 44.4568 99.3682 44.5363 99.4751C44.6778 99.6674 44.453 100.291 44.889 100.39L48.2553 100.61H44.1836V99.444L44.1855 99.442Z" fill="#BCBCBC"/>
<path d="M156.978 43.4902V44.6578H153.102L153.383 44.4577C154.598 44.2692 156.954 45.1648 156.788 43.2939L156.978 43.4921V43.4902Z" fill="#BCBCBC"/>
<path d="M18.0226 61.3633C18.011 62.2667 18.0303 63.1798 18.0226 64.0851H16.6641V62.9175C16.8734 63.1059 17.29 64.3998 17.7358 63.7004C18.0769 63.1662 17.5207 61.9189 18.0207 61.3633H18.0226Z" fill="#BCBCBC"/>
<path d="M67.636 108.184L68.915 108.549L71.7057 108.766H67.634C67.6224 108.574 67.6476 108.376 67.634 108.184H67.636Z" fill="#BCBCBC"/>
<path d="M41.2789 73.0201H37.9844L38.1782 71.8545C38.3914 72.1731 38.37 72.6879 38.6859 72.8026L41.2789 73.0201Z" fill="#F3605E"/>
<path d="M85.4647 73.4092L85.6585 74.5748H82.9453C83.6197 73.9998 84.9414 74.8993 85.4647 73.4092Z" fill="#F3605E"/>
<path d="M25.0009 88.1738H26.3594L26.3575 89.73H27.716V91.0879C27.5881 91.0802 27.4563 91.0996 27.3284 91.0879L27.3168 90.1243C26.2974 90.0758 25.8594 89.796 25.8904 88.7411L25.0106 88.5488C24.9699 88.4264 25.0106 88.2962 25.0028 88.1719L25.0009 88.1738Z" fill="#BCBCBC"/>
<path d="M88.7598 96.7214C88.8877 96.7136 89.3683 96.3251 89.7152 96.5427L90.3102 98.0813C90.0524 98.0755 89.7927 98.091 89.535 98.0813C89.6474 97.2304 89.4904 97.0458 88.7598 96.7195V96.7214Z" fill="#1180F6"/>
<path d="M78.875 98.082H82.7529V99.2477C82.5455 98.9232 82.5494 98.4104 82.2452 98.2996C81.4835 98.1073 79.3517 98.5638 78.8769 98.082H78.875Z" fill="#BCBCBC"/>
<path d="M27.7129 94.1963C28.0307 94.4469 28.0307 94.9326 28.2284 94.9831C29.1548 95.2143 30.271 94.7189 31.3951 95.1677L27.8253 95.1716L27.7129 94.1963Z" fill="#BCBCBC"/>
<path d="M67.4423 107.406L63.6884 107.414C63.4501 107.368 63.607 107.117 63.5663 107.018L63.7582 106.536C63.8629 107.983 66.6962 106.695 67.4423 107.406Z" fill="#BCBCBC"/>
<path d="M16.4732 43.2959L16.667 43.6844C16.6883 43.803 16.6515 43.9487 16.667 44.073C16.6437 44.0341 16.2057 44.1099 16.1689 43.4766L12.791 43.2959H16.4732Z" fill="#BCBCBC"/>
<path d="M108.914 92.6416L106.903 92.8592C106.426 93.3468 106.823 93.3721 106.201 93.613L106.314 92.6377L108.914 92.6416Z" fill="#BCBCBC"/>
<path d="M108.914 108.766V110.128H107.751C107.778 110.062 107.681 109.893 107.796 109.79C108.065 109.547 108.708 109.827 108.538 108.776C108.66 108.733 108.79 108.776 108.914 108.768V108.766Z" fill="#BCBCBC"/>
<path d="M54.0703 89.9219H56.5916V91.0875C56.3785 90.7942 56.2195 90.1706 56.1788 90.1395C56.0199 90.0229 54.7757 90.2055 54.0723 89.9219H54.0703Z" fill="#BCBCBC"/>
<path d="M86.8213 99.6357C85.7728 99.4783 83.7845 99.9388 82.9453 99.4414L86.8213 99.6357Z" fill="#BCBCBC"/>
<path d="M110.852 85.6479C110.015 86.0947 110.998 86.9709 109.689 87.0078L110.273 85.4536C110.548 85.3332 110.79 85.6421 110.852 85.6479Z" fill="#1180F6"/>
<path d="M82.7513 74.9629V75.9362C82.5595 75.944 82.3637 75.9284 82.1699 75.9362C82.5788 75.7555 82.5556 75.3534 82.7513 74.9648V74.9629Z" fill="#F3605E"/>
<path d="M115.505 82.7344C115.177 82.8684 114.815 82.9189 114.536 83.1229C114.536 83.1054 114.361 83.0705 114.363 83.0258L115.505 82.7344Z" fill="#1180F6"/>
<path d="M86.2411 73.0205C86.0648 73.3139 85.8806 73.0186 85.8535 73.0205H86.2411Z" fill="#F3605E"/>
<path d="M37.4028 55.3407L37.2109 55.2416L37.4028 54.9521C37.4261 55.0687 37.3873 55.2164 37.4028 55.3407Z" fill="#BCBCBC"/>
<path d="M16.6665 43.6844L16.4727 43.2959C16.7304 43.3231 16.6374 43.5271 16.6665 43.6844Z" fill="#F3BB0C"/>
<path d="M109.108 4.44135L108.721 4.24707C108.893 4.26261 109.085 4.19656 109.108 4.44135Z" fill="#B11521"/>
<path d="M62.2095 83.122L62.0195 83.0229C62.0195 82.9549 62.2075 82.9374 62.2095 82.9277V83.122Z" fill="#F3BB0C"/>
<path d="M106.395 4.24707H106.588L106.491 4.43746C106.362 4.40638 106.416 4.27038 106.395 4.24707Z" fill="#B11521"/>
<path d="M86.8224 100.024L86.6305 100.411C86.5492 100.195 86.8185 100.05 86.8224 100.024Z" fill="#BCBCBC"/>
<path d="M16.8613 80.6938C16.9931 80.2353 17.8303 80.4024 17.8303 80.6938V87.6877C17.8303 88.0529 16.8613 88.0529 16.8613 87.6877V80.6938Z" fill="#BCBCBC"/>
</g>
<defs>
<clipPath id="clip0_1298_9333">
<rect width="175" height="128" fill="white"/>
</clipPath>
</defs>
</svg>
