<svg width="16" height="16" viewBox="0 0 16 16" fill="none" xmlns="http://www.w3.org/2000/svg">
<path d="M13.5107 4.67104C13.4031 4.65402 13.2942 4.68046 13.1974 4.74713L10.668 6.47807V9.52149L13.1974 11.2524C13.282 11.3103 13.376 11.3377 13.4705 11.3319C13.5649 11.3262 13.6568 11.2875 13.7373 11.2195C13.8178 11.1515 13.8843 11.0566 13.9305 10.9436C13.9767 10.8306 14.0011 10.7033 14.0013 10.5738V5.42581C14.0011 5.23958 13.9511 5.0599 13.8607 4.92079C13.7703 4.78169 13.6458 4.69283 13.5107 4.67104Z" fill="#FEFFFF" fill-opacity="0.5"/>
<path d="M3.33398 3.33301C2.23732 3.33301 1.33398 4.23634 1.33398 5.33301V10.6663C1.33398 11.763 2.23732 12.6663 3.33398 12.6663H8.66732C9.76398 12.6663 10.6673 11.763 10.6673 10.6663V5.33301C10.6673 4.23634 9.76398 3.33301 8.66732 3.33301H3.33398Z" fill="#FEFFFF" fill-opacity="0.5"/>
</svg>
