<svg width="16" height="16" viewBox="0 0 16 16" fill="none" xmlns="http://www.w3.org/2000/svg">
<path d="M3.99935 14.6663C3.63268 14.6663 3.3189 14.5359 3.05802 14.275C2.79713 14.0141 2.66646 13.7001 2.66602 13.333V2.66634C2.66602 2.29967 2.79668 1.9859 3.05802 1.72501C3.31935 1.46412 3.63313 1.33345 3.99935 1.33301H8.78268C8.96046 1.33301 9.13002 1.36634 9.29135 1.43301C9.45268 1.49967 9.59424 1.59412 9.71602 1.71634L12.9493 4.94967C13.0716 5.0719 13.166 5.21367 13.2327 5.37501C13.2993 5.53634 13.3327 5.70567 13.3327 5.88301V13.333C13.3327 13.6997 13.2022 14.0137 12.9413 14.275C12.6805 14.5363 12.3665 14.6668 11.9993 14.6663H3.99935ZM8.66602 5.33301C8.66602 5.5219 8.73002 5.68034 8.85802 5.80834C8.98602 5.93634 9.14424 6.00012 9.33268 5.99967H11.9993L8.66602 2.66634V5.33301ZM7.28268 10.083L6.34935 9.14967C6.28268 9.08301 6.21046 9.03301 6.13268 8.99967C6.0549 8.96634 5.97446 8.94967 5.89135 8.94967C5.80824 8.94967 5.7249 8.96634 5.64135 8.99967C5.55779 9.03301 5.48268 9.08301 5.41602 9.14967C5.28268 9.28301 5.21602 9.44145 5.21602 9.62501C5.21602 9.80856 5.28268 9.96679 5.41602 10.0997L6.83268 11.533C6.89935 11.5997 6.97157 11.647 7.04935 11.675C7.12713 11.703 7.21046 11.7168 7.29935 11.7163C7.38824 11.7159 7.47157 11.7021 7.54935 11.675C7.62713 11.6479 7.69935 11.6006 7.76602 11.533L10.5827 8.71634C10.716 8.58301 10.7827 8.4219 10.7827 8.23301C10.7827 8.04412 10.716 7.88301 10.5827 7.74967C10.4493 7.61634 10.2882 7.54967 10.0993 7.54967C9.91046 7.54967 9.74935 7.61634 9.61602 7.74967L7.28268 10.083Z" fill="#FEFFFF" fill-opacity="0.5"/>
</svg>
