<svg width="24" height="25" viewBox="0 0 24 25" fill="none" xmlns="http://www.w3.org/2000/svg">
<path d="M18.3389 5.2627C18.9028 5.20148 19.4677 5.36324 19.915 5.71191L19.916 5.71094C20.1395 5.88407 20.3263 6.10025 20.4648 6.34668C20.6034 6.59319 20.6909 6.86548 20.7227 7.14648C20.7544 7.42741 20.7295 7.71225 20.6494 7.9834C20.5693 8.25446 20.436 8.50699 20.2568 8.72559L20.2559 8.72461L12.7383 17.9629L12.7354 17.9668C12.5435 18.1995 12.3053 18.3904 12.0361 18.5264C11.7669 18.6624 11.4721 18.7405 11.1709 18.7568C10.8697 18.7732 10.5685 18.7272 10.2861 18.6211C10.0038 18.515 9.74618 18.3513 9.53027 18.1406L9.5293 18.1387L3.88867 12.5986L3.86816 12.5781L3.77051 12.4746L3.73926 12.4395C3.03959 11.5974 3.09104 10.3535 3.88965 9.57031C4.63189 8.84264 5.77258 8.75429 6.61035 9.30566L6.77344 9.4248L6.79102 9.43848L6.80762 9.4541L6.91406 9.5498L6.9248 9.55957L6.93457 9.56934L10.8877 13.4355L16.1992 6.9209L16.1719 6.91309L16.8926 6.04199C17.2547 5.60388 17.7738 5.32415 18.3389 5.2627Z" fill="#E81A84" stroke="#FEFFFF" stroke-width="1.5"/>
</svg>
